<?xml version="1.0" encoding="utf-8" standalone="no"?>
<!DOCTYPE svg PUBLIC "-//W3C//DTD SVG 1.1//EN"
  "http://www.w3.org/Graphics/SVG/1.1/DTD/svg11.dtd">
<!-- Created with matplotlib (https://matplotlib.org/) -->
<svg height="326.149161pt" version="1.1" viewBox="0 0 411.44325 326.149161" width="411.44325pt" xmlns="http://www.w3.org/2000/svg" xmlns:xlink="http://www.w3.org/1999/xlink">
 <metadata>
  <rdf:RDF xmlns:cc="http://creativecommons.org/ns#" xmlns:dc="http://purl.org/dc/elements/1.1/" xmlns:rdf="http://www.w3.org/1999/02/22-rdf-syntax-ns#">
   <cc:Work>
    <dc:type rdf:resource="http://purl.org/dc/dcmitype/StillImage"/>
    <dc:date>2020-11-27T01:00:12.155502</dc:date>
    <dc:format>image/svg+xml</dc:format>
    <dc:creator>
     <cc:Agent>
      <dc:title>Matplotlib v3.3.3, https://matplotlib.org/</dc:title>
     </cc:Agent>
    </dc:creator>
   </cc:Work>
  </rdf:RDF>
 </metadata>
 <defs>
  <style type="text/css">*{stroke-linecap:butt;stroke-linejoin:round;}</style>
 </defs>
 <g id="figure_1">
  <g id="patch_1">
   <path d="M 0 326.149161 
L 411.44325 326.149161 
L 411.44325 0 
L 0 0 
z
" style="fill:#ffffff;stroke:#ffffff;stroke-linejoin:miter;"/>
  </g>
  <g id="axes_1">
   <g id="patch_2">
    <path d="M 43.025125 305.482411 
L 400.145125 305.482411 
L 400.145125 39.370411 
L 43.025125 39.370411 
z
" style="fill:none;"/>
   </g>
   <g id="matplotlib.axis_1">
    <g id="xtick_1">
     <g id="line2d_1">
      <path clip-path="url(#pe904f7c2ee)" d="M 50.825267 305.482411 
L 50.825267 39.370411 
" style="fill:none;stroke:#ffffff;"/>
     </g>
     <g id="text_1">
      <!-- Apr -->
      <g style="fill:#4d4d4d;" transform="translate(43.213267 317.119036)scale(0.088 -0.088)">
       <defs>
        <path d="M 34.1875 63.1875 
L 20.796875 26.90625 
L 47.609375 26.90625 
z
M 28.609375 72.90625 
L 39.796875 72.90625 
L 67.578125 0 
L 57.328125 0 
L 50.6875 18.703125 
L 17.828125 18.703125 
L 11.1875 0 
L 0.78125 0 
z
" id="DejaVuSans-65"/>
        <path d="M 18.109375 8.203125 
L 18.109375 -20.796875 
L 9.078125 -20.796875 
L 9.078125 54.6875 
L 18.109375 54.6875 
L 18.109375 46.390625 
Q 20.953125 51.265625 25.265625 53.625 
Q 29.59375 56 35.59375 56 
Q 45.5625 56 51.78125 48.09375 
Q 58.015625 40.1875 58.015625 27.296875 
Q 58.015625 14.40625 51.78125 6.484375 
Q 45.5625 -1.421875 35.59375 -1.421875 
Q 29.59375 -1.421875 25.265625 0.953125 
Q 20.953125 3.328125 18.109375 8.203125 
z
M 48.6875 27.296875 
Q 48.6875 37.203125 44.609375 42.84375 
Q 40.53125 48.484375 33.40625 48.484375 
Q 26.265625 48.484375 22.1875 42.84375 
Q 18.109375 37.203125 18.109375 27.296875 
Q 18.109375 17.390625 22.1875 11.75 
Q 26.265625 6.109375 33.40625 6.109375 
Q 40.53125 6.109375 44.609375 11.75 
Q 48.6875 17.390625 48.6875 27.296875 
z
" id="DejaVuSans-112"/>
        <path d="M 41.109375 46.296875 
Q 39.59375 47.171875 37.8125 47.578125 
Q 36.03125 48 33.890625 48 
Q 26.265625 48 22.1875 43.046875 
Q 18.109375 38.09375 18.109375 28.8125 
L 18.109375 0 
L 9.078125 0 
L 9.078125 54.6875 
L 18.109375 54.6875 
L 18.109375 46.1875 
Q 20.953125 51.171875 25.484375 53.578125 
Q 30.03125 56 36.53125 56 
Q 37.453125 56 38.578125 55.875 
Q 39.703125 55.765625 41.0625 55.515625 
z
" id="DejaVuSans-114"/>
       </defs>
       <use xlink:href="#DejaVuSans-65"/>
       <use x="68.408203" xlink:href="#DejaVuSans-112"/>
       <use x="131.884766" xlink:href="#DejaVuSans-114"/>
      </g>
     </g>
    </g>
    <g id="xtick_2">
     <g id="line2d_2">
      <path clip-path="url(#pe904f7c2ee)" d="M 92.988195 305.482411 
L 92.988195 39.370411 
" style="fill:none;stroke:#ffffff;"/>
     </g>
     <g id="text_2">
      <!-- May -->
      <g style="fill:#4d4d4d;" transform="translate(83.891195 317.119036)scale(0.088 -0.088)">
       <defs>
        <path d="M 9.8125 72.90625 
L 24.515625 72.90625 
L 43.109375 23.296875 
L 61.8125 72.90625 
L 76.515625 72.90625 
L 76.515625 0 
L 66.890625 0 
L 66.890625 64.015625 
L 48.09375 14.015625 
L 38.1875 14.015625 
L 19.390625 64.015625 
L 19.390625 0 
L 9.8125 0 
z
" id="DejaVuSans-77"/>
        <path d="M 34.28125 27.484375 
Q 23.390625 27.484375 19.1875 25 
Q 14.984375 22.515625 14.984375 16.5 
Q 14.984375 11.71875 18.140625 8.90625 
Q 21.296875 6.109375 26.703125 6.109375 
Q 34.1875 6.109375 38.703125 11.40625 
Q 43.21875 16.703125 43.21875 25.484375 
L 43.21875 27.484375 
z
M 52.203125 31.203125 
L 52.203125 0 
L 43.21875 0 
L 43.21875 8.296875 
Q 40.140625 3.328125 35.546875 0.953125 
Q 30.953125 -1.421875 24.3125 -1.421875 
Q 15.921875 -1.421875 10.953125 3.296875 
Q 6 8.015625 6 15.921875 
Q 6 25.140625 12.171875 29.828125 
Q 18.359375 34.515625 30.609375 34.515625 
L 43.21875 34.515625 
L 43.21875 35.40625 
Q 43.21875 41.609375 39.140625 45 
Q 35.0625 48.390625 27.6875 48.390625 
Q 23 48.390625 18.546875 47.265625 
Q 14.109375 46.140625 10.015625 43.890625 
L 10.015625 52.203125 
Q 14.9375 54.109375 19.578125 55.046875 
Q 24.21875 56 28.609375 56 
Q 40.484375 56 46.34375 49.84375 
Q 52.203125 43.703125 52.203125 31.203125 
z
" id="DejaVuSans-97"/>
        <path d="M 32.171875 -5.078125 
Q 28.375 -14.84375 24.75 -17.8125 
Q 21.140625 -20.796875 15.09375 -20.796875 
L 7.90625 -20.796875 
L 7.90625 -13.28125 
L 13.1875 -13.28125 
Q 16.890625 -13.28125 18.9375 -11.515625 
Q 21 -9.765625 23.484375 -3.21875 
L 25.09375 0.875 
L 2.984375 54.6875 
L 12.5 54.6875 
L 29.59375 11.921875 
L 46.6875 54.6875 
L 56.203125 54.6875 
z
" id="DejaVuSans-121"/>
       </defs>
       <use xlink:href="#DejaVuSans-77"/>
       <use x="86.279297" xlink:href="#DejaVuSans-97"/>
       <use x="147.558594" xlink:href="#DejaVuSans-121"/>
      </g>
     </g>
    </g>
    <g id="xtick_3">
     <g id="line2d_3">
      <path clip-path="url(#pe904f7c2ee)" d="M 136.556554 305.482411 
L 136.556554 39.370411 
" style="fill:none;stroke:#ffffff;"/>
     </g>
     <g id="text_3">
      <!-- Jun -->
      <g style="fill:#4d4d4d;" transform="translate(129.681554 317.119036)scale(0.088 -0.088)">
       <defs>
        <path d="M 9.8125 72.90625 
L 19.671875 72.90625 
L 19.671875 5.078125 
Q 19.671875 -8.109375 14.671875 -14.0625 
Q 9.671875 -20.015625 -1.421875 -20.015625 
L -5.171875 -20.015625 
L -5.171875 -11.71875 
L -2.09375 -11.71875 
Q 4.4375 -11.71875 7.125 -8.046875 
Q 9.8125 -4.390625 9.8125 5.078125 
z
" id="DejaVuSans-74"/>
        <path d="M 8.5 21.578125 
L 8.5 54.6875 
L 17.484375 54.6875 
L 17.484375 21.921875 
Q 17.484375 14.15625 20.5 10.265625 
Q 23.53125 6.390625 29.59375 6.390625 
Q 36.859375 6.390625 41.078125 11.03125 
Q 45.3125 15.671875 45.3125 23.6875 
L 45.3125 54.6875 
L 54.296875 54.6875 
L 54.296875 0 
L 45.3125 0 
L 45.3125 8.40625 
Q 42.046875 3.421875 37.71875 1 
Q 33.40625 -1.421875 27.6875 -1.421875 
Q 18.265625 -1.421875 13.375 4.4375 
Q 8.5 10.296875 8.5 21.578125 
z
M 31.109375 56 
z
" id="DejaVuSans-117"/>
        <path d="M 54.890625 33.015625 
L 54.890625 0 
L 45.90625 0 
L 45.90625 32.71875 
Q 45.90625 40.484375 42.875 44.328125 
Q 39.84375 48.1875 33.796875 48.1875 
Q 26.515625 48.1875 22.3125 43.546875 
Q 18.109375 38.921875 18.109375 30.90625 
L 18.109375 0 
L 9.078125 0 
L 9.078125 54.6875 
L 18.109375 54.6875 
L 18.109375 46.1875 
Q 21.34375 51.125 25.703125 53.5625 
Q 30.078125 56 35.796875 56 
Q 45.21875 56 50.046875 50.171875 
Q 54.890625 44.34375 54.890625 33.015625 
z
" id="DejaVuSans-110"/>
       </defs>
       <use xlink:href="#DejaVuSans-74"/>
       <use x="29.492188" xlink:href="#DejaVuSans-117"/>
       <use x="92.871094" xlink:href="#DejaVuSans-110"/>
      </g>
     </g>
    </g>
    <g id="xtick_4">
     <g id="line2d_4">
      <path clip-path="url(#pe904f7c2ee)" d="M 178.719482 305.482411 
L 178.719482 39.370411 
" style="fill:none;stroke:#ffffff;"/>
     </g>
     <g id="text_4">
      <!-- Jul -->
      <g style="fill:#4d4d4d;" transform="translate(173.410607 317.119036)scale(0.088 -0.088)">
       <defs>
        <path d="M 9.421875 75.984375 
L 18.40625 75.984375 
L 18.40625 0 
L 9.421875 0 
z
" id="DejaVuSans-108"/>
       </defs>
       <use xlink:href="#DejaVuSans-74"/>
       <use x="29.492188" xlink:href="#DejaVuSans-117"/>
       <use x="92.871094" xlink:href="#DejaVuSans-108"/>
      </g>
     </g>
    </g>
    <g id="xtick_5">
     <g id="line2d_5">
      <path clip-path="url(#pe904f7c2ee)" d="M 222.28784 305.482411 
L 222.28784 39.370411 
" style="fill:none;stroke:#ffffff;"/>
     </g>
     <g id="text_5">
      <!-- Aug -->
      <g style="fill:#4d4d4d;" transform="translate(213.696153 317.119036)scale(0.088 -0.088)">
       <defs>
        <path d="M 45.40625 27.984375 
Q 45.40625 37.75 41.375 43.109375 
Q 37.359375 48.484375 30.078125 48.484375 
Q 22.859375 48.484375 18.828125 43.109375 
Q 14.796875 37.75 14.796875 27.984375 
Q 14.796875 18.265625 18.828125 12.890625 
Q 22.859375 7.515625 30.078125 7.515625 
Q 37.359375 7.515625 41.375 12.890625 
Q 45.40625 18.265625 45.40625 27.984375 
z
M 54.390625 6.78125 
Q 54.390625 -7.171875 48.1875 -13.984375 
Q 42 -20.796875 29.203125 -20.796875 
Q 24.46875 -20.796875 20.265625 -20.09375 
Q 16.0625 -19.390625 12.109375 -17.921875 
L 12.109375 -9.1875 
Q 16.0625 -11.328125 19.921875 -12.34375 
Q 23.78125 -13.375 27.78125 -13.375 
Q 36.625 -13.375 41.015625 -8.765625 
Q 45.40625 -4.15625 45.40625 5.171875 
L 45.40625 9.625 
Q 42.625 4.78125 38.28125 2.390625 
Q 33.9375 0 27.875 0 
Q 17.828125 0 11.671875 7.65625 
Q 5.515625 15.328125 5.515625 27.984375 
Q 5.515625 40.671875 11.671875 48.328125 
Q 17.828125 56 27.875 56 
Q 33.9375 56 38.28125 53.609375 
Q 42.625 51.21875 45.40625 46.390625 
L 45.40625 54.6875 
L 54.390625 54.6875 
z
" id="DejaVuSans-103"/>
       </defs>
       <use xlink:href="#DejaVuSans-65"/>
       <use x="68.408203" xlink:href="#DejaVuSans-117"/>
       <use x="131.787109" xlink:href="#DejaVuSans-103"/>
      </g>
     </g>
    </g>
    <g id="xtick_6">
     <g id="line2d_6">
      <path clip-path="url(#pe904f7c2ee)" d="M 265.856199 305.482411 
L 265.856199 39.370411 
" style="fill:none;stroke:#ffffff;"/>
     </g>
     <g id="text_6">
      <!-- Sep -->
      <g style="fill:#4d4d4d;" transform="translate(257.562199 317.119036)scale(0.088 -0.088)">
       <defs>
        <path d="M 53.515625 70.515625 
L 53.515625 60.890625 
Q 47.90625 63.578125 42.921875 64.890625 
Q 37.9375 66.21875 33.296875 66.21875 
Q 25.25 66.21875 20.875 63.09375 
Q 16.5 59.96875 16.5 54.203125 
Q 16.5 49.359375 19.40625 46.890625 
Q 22.3125 44.4375 30.421875 42.921875 
L 36.375 41.703125 
Q 47.40625 39.59375 52.65625 34.296875 
Q 57.90625 29 57.90625 20.125 
Q 57.90625 9.515625 50.796875 4.046875 
Q 43.703125 -1.421875 29.984375 -1.421875 
Q 24.8125 -1.421875 18.96875 -0.25 
Q 13.140625 0.921875 6.890625 3.21875 
L 6.890625 13.375 
Q 12.890625 10.015625 18.65625 8.296875 
Q 24.421875 6.59375 29.984375 6.59375 
Q 38.421875 6.59375 43.015625 9.90625 
Q 47.609375 13.234375 47.609375 19.390625 
Q 47.609375 24.75 44.3125 27.78125 
Q 41.015625 30.8125 33.5 32.328125 
L 27.484375 33.5 
Q 16.453125 35.6875 11.515625 40.375 
Q 6.59375 45.0625 6.59375 53.421875 
Q 6.59375 63.09375 13.40625 68.65625 
Q 20.21875 74.21875 32.171875 74.21875 
Q 37.3125 74.21875 42.625 73.28125 
Q 47.953125 72.359375 53.515625 70.515625 
z
" id="DejaVuSans-83"/>
        <path d="M 56.203125 29.59375 
L 56.203125 25.203125 
L 14.890625 25.203125 
Q 15.484375 15.921875 20.484375 11.0625 
Q 25.484375 6.203125 34.421875 6.203125 
Q 39.59375 6.203125 44.453125 7.46875 
Q 49.3125 8.734375 54.109375 11.28125 
L 54.109375 2.78125 
Q 49.265625 0.734375 44.1875 -0.34375 
Q 39.109375 -1.421875 33.890625 -1.421875 
Q 20.796875 -1.421875 13.15625 6.1875 
Q 5.515625 13.8125 5.515625 26.8125 
Q 5.515625 40.234375 12.765625 48.109375 
Q 20.015625 56 32.328125 56 
Q 43.359375 56 49.78125 48.890625 
Q 56.203125 41.796875 56.203125 29.59375 
z
M 47.21875 32.234375 
Q 47.125 39.59375 43.09375 43.984375 
Q 39.0625 48.390625 32.421875 48.390625 
Q 24.90625 48.390625 20.390625 44.140625 
Q 15.875 39.890625 15.1875 32.171875 
z
" id="DejaVuSans-101"/>
       </defs>
       <use xlink:href="#DejaVuSans-83"/>
       <use x="63.476562" xlink:href="#DejaVuSans-101"/>
       <use x="125" xlink:href="#DejaVuSans-112"/>
      </g>
     </g>
    </g>
    <g id="xtick_7">
     <g id="line2d_7">
      <path clip-path="url(#pe904f7c2ee)" d="M 308.019127 305.482411 
L 308.019127 39.370411 
" style="fill:none;stroke:#ffffff;"/>
     </g>
     <g id="text_7">
      <!-- Oct -->
      <g style="fill:#4d4d4d;" transform="translate(300.411252 317.119036)scale(0.088 -0.088)">
       <defs>
        <path d="M 39.40625 66.21875 
Q 28.65625 66.21875 22.328125 58.203125 
Q 16.015625 50.203125 16.015625 36.375 
Q 16.015625 22.609375 22.328125 14.59375 
Q 28.65625 6.59375 39.40625 6.59375 
Q 50.140625 6.59375 56.421875 14.59375 
Q 62.703125 22.609375 62.703125 36.375 
Q 62.703125 50.203125 56.421875 58.203125 
Q 50.140625 66.21875 39.40625 66.21875 
z
M 39.40625 74.21875 
Q 54.734375 74.21875 63.90625 63.9375 
Q 73.09375 53.65625 73.09375 36.375 
Q 73.09375 19.140625 63.90625 8.859375 
Q 54.734375 -1.421875 39.40625 -1.421875 
Q 24.03125 -1.421875 14.8125 8.828125 
Q 5.609375 19.09375 5.609375 36.375 
Q 5.609375 53.65625 14.8125 63.9375 
Q 24.03125 74.21875 39.40625 74.21875 
z
" id="DejaVuSans-79"/>
        <path d="M 48.78125 52.59375 
L 48.78125 44.1875 
Q 44.96875 46.296875 41.140625 47.34375 
Q 37.3125 48.390625 33.40625 48.390625 
Q 24.65625 48.390625 19.8125 42.84375 
Q 14.984375 37.3125 14.984375 27.296875 
Q 14.984375 17.28125 19.8125 11.734375 
Q 24.65625 6.203125 33.40625 6.203125 
Q 37.3125 6.203125 41.140625 7.25 
Q 44.96875 8.296875 48.78125 10.40625 
L 48.78125 2.09375 
Q 45.015625 0.34375 40.984375 -0.53125 
Q 36.96875 -1.421875 32.421875 -1.421875 
Q 20.0625 -1.421875 12.78125 6.34375 
Q 5.515625 14.109375 5.515625 27.296875 
Q 5.515625 40.671875 12.859375 48.328125 
Q 20.21875 56 33.015625 56 
Q 37.15625 56 41.109375 55.140625 
Q 45.0625 54.296875 48.78125 52.59375 
z
" id="DejaVuSans-99"/>
        <path d="M 18.3125 70.21875 
L 18.3125 54.6875 
L 36.8125 54.6875 
L 36.8125 47.703125 
L 18.3125 47.703125 
L 18.3125 18.015625 
Q 18.3125 11.328125 20.140625 9.421875 
Q 21.96875 7.515625 27.59375 7.515625 
L 36.8125 7.515625 
L 36.8125 0 
L 27.59375 0 
Q 17.1875 0 13.234375 3.875 
Q 9.28125 7.765625 9.28125 18.015625 
L 9.28125 47.703125 
L 2.6875 47.703125 
L 2.6875 54.6875 
L 9.28125 54.6875 
L 9.28125 70.21875 
z
" id="DejaVuSans-116"/>
       </defs>
       <use xlink:href="#DejaVuSans-79"/>
       <use x="78.710938" xlink:href="#DejaVuSans-99"/>
       <use x="133.691406" xlink:href="#DejaVuSans-116"/>
      </g>
     </g>
    </g>
    <g id="xtick_8">
     <g id="line2d_8">
      <path clip-path="url(#pe904f7c2ee)" d="M 351.587486 305.482411 
L 351.587486 39.370411 
" style="fill:none;stroke:#ffffff;"/>
     </g>
     <g id="text_8">
      <!-- Nov -->
      <g style="fill:#4d4d4d;" transform="translate(342.999236 317.119036)scale(0.088 -0.088)">
       <defs>
        <path d="M 9.8125 72.90625 
L 23.09375 72.90625 
L 55.421875 11.921875 
L 55.421875 72.90625 
L 64.984375 72.90625 
L 64.984375 0 
L 51.703125 0 
L 19.390625 60.984375 
L 19.390625 0 
L 9.8125 0 
z
" id="DejaVuSans-78"/>
        <path d="M 30.609375 48.390625 
Q 23.390625 48.390625 19.1875 42.75 
Q 14.984375 37.109375 14.984375 27.296875 
Q 14.984375 17.484375 19.15625 11.84375 
Q 23.34375 6.203125 30.609375 6.203125 
Q 37.796875 6.203125 41.984375 11.859375 
Q 46.1875 17.53125 46.1875 27.296875 
Q 46.1875 37.015625 41.984375 42.703125 
Q 37.796875 48.390625 30.609375 48.390625 
z
M 30.609375 56 
Q 42.328125 56 49.015625 48.375 
Q 55.71875 40.765625 55.71875 27.296875 
Q 55.71875 13.875 49.015625 6.21875 
Q 42.328125 -1.421875 30.609375 -1.421875 
Q 18.84375 -1.421875 12.171875 6.21875 
Q 5.515625 13.875 5.515625 27.296875 
Q 5.515625 40.765625 12.171875 48.375 
Q 18.84375 56 30.609375 56 
z
" id="DejaVuSans-111"/>
        <path d="M 2.984375 54.6875 
L 12.5 54.6875 
L 29.59375 8.796875 
L 46.6875 54.6875 
L 56.203125 54.6875 
L 35.6875 0 
L 23.484375 0 
z
" id="DejaVuSans-118"/>
       </defs>
       <use xlink:href="#DejaVuSans-78"/>
       <use x="74.804688" xlink:href="#DejaVuSans-111"/>
       <use x="135.986328" xlink:href="#DejaVuSans-118"/>
      </g>
     </g>
    </g>
    <g id="xtick_9">
     <g id="line2d_9">
      <path clip-path="url(#pe904f7c2ee)" d="M 393.750414 305.482411 
L 393.750414 39.370411 
" style="fill:none;stroke:#ffffff;"/>
     </g>
     <g id="text_9">
      <!-- Dec -->
      <g style="fill:#4d4d4d;" transform="translate(385.235727 317.119036)scale(0.088 -0.088)">
       <defs>
        <path d="M 19.671875 64.796875 
L 19.671875 8.109375 
L 31.59375 8.109375 
Q 46.6875 8.109375 53.6875 14.9375 
Q 60.6875 21.78125 60.6875 36.53125 
Q 60.6875 51.171875 53.6875 57.984375 
Q 46.6875 64.796875 31.59375 64.796875 
z
M 9.8125 72.90625 
L 30.078125 72.90625 
Q 51.265625 72.90625 61.171875 64.09375 
Q 71.09375 55.28125 71.09375 36.53125 
Q 71.09375 17.671875 61.125 8.828125 
Q 51.171875 0 30.078125 0 
L 9.8125 0 
z
" id="DejaVuSans-68"/>
       </defs>
       <use xlink:href="#DejaVuSans-68"/>
       <use x="77.001953" xlink:href="#DejaVuSans-101"/>
       <use x="138.525391" xlink:href="#DejaVuSans-99"/>
      </g>
     </g>
    </g>
    <g id="xtick_10">
     <g id="line2d_10">
      <path clip-path="url(#pe904f7c2ee)" d="M 71.906731 305.482411 
L 71.906731 39.370411 
" style="fill:none;stroke:#ffffff;stroke-width:0.5;"/>
     </g>
    </g>
    <g id="xtick_11">
     <g id="line2d_11">
      <path clip-path="url(#pe904f7c2ee)" d="M 114.772374 305.482411 
L 114.772374 39.370411 
" style="fill:none;stroke:#ffffff;stroke-width:0.5;"/>
     </g>
    </g>
    <g id="xtick_12">
     <g id="line2d_12">
      <path clip-path="url(#pe904f7c2ee)" d="M 157.638018 305.482411 
L 157.638018 39.370411 
" style="fill:none;stroke:#ffffff;stroke-width:0.5;"/>
     </g>
    </g>
    <g id="xtick_13">
     <g id="line2d_13">
      <path clip-path="url(#pe904f7c2ee)" d="M 200.503661 305.482411 
L 200.503661 39.370411 
" style="fill:none;stroke:#ffffff;stroke-width:0.5;"/>
     </g>
    </g>
    <g id="xtick_14">
     <g id="line2d_14">
      <path clip-path="url(#pe904f7c2ee)" d="M 244.07202 305.482411 
L 244.07202 39.370411 
" style="fill:none;stroke:#ffffff;stroke-width:0.5;"/>
     </g>
    </g>
    <g id="xtick_15">
     <g id="line2d_15">
      <path clip-path="url(#pe904f7c2ee)" d="M 286.937663 305.482411 
L 286.937663 39.370411 
" style="fill:none;stroke:#ffffff;stroke-width:0.5;"/>
     </g>
    </g>
    <g id="xtick_16">
     <g id="line2d_16">
      <path clip-path="url(#pe904f7c2ee)" d="M 329.803307 305.482411 
L 329.803307 39.370411 
" style="fill:none;stroke:#ffffff;stroke-width:0.5;"/>
     </g>
    </g>
    <g id="xtick_17">
     <g id="line2d_17">
      <path clip-path="url(#pe904f7c2ee)" d="M 372.66895 305.482411 
L 372.66895 39.370411 
" style="fill:none;stroke:#ffffff;stroke-width:0.5;"/>
     </g>
    </g>
   </g>
   <g id="matplotlib.axis_2">
    <g id="ytick_1">
     <g id="line2d_18">
      <path clip-path="url(#pe904f7c2ee)" d="M 43.025125 293.386411 
L 400.145125 293.386411 
" style="fill:none;stroke:#ffffff;"/>
     </g>
     <g id="line2d_19">
      <path d="M 43.025125 293.386411 
" style="fill:none;stroke:#333333;stroke-width:1.5;"/>
      <defs>
       <path d="M 0 0 
L -2.75 0 
" id="m6dcd94449d" style="stroke:#000000;"/>
      </defs>
      <g>
       <use style="fill:#333333;stroke:#000000;" x="43.025125" xlink:href="#m6dcd94449d" y="293.386411"/>
      </g>
     </g>
     <g id="text_10">
      <!-- 0 -->
      <g style="fill:#00008b;" transform="translate(32.476125 295.814661)scale(0.088 -0.088)">
       <defs>
        <path d="M 31.78125 66.40625 
Q 24.171875 66.40625 20.328125 58.90625 
Q 16.5 51.421875 16.5 36.375 
Q 16.5 21.390625 20.328125 13.890625 
Q 24.171875 6.390625 31.78125 6.390625 
Q 39.453125 6.390625 43.28125 13.890625 
Q 47.125 21.390625 47.125 36.375 
Q 47.125 51.421875 43.28125 58.90625 
Q 39.453125 66.40625 31.78125 66.40625 
z
M 31.78125 74.21875 
Q 44.046875 74.21875 50.515625 64.515625 
Q 56.984375 54.828125 56.984375 36.375 
Q 56.984375 17.96875 50.515625 8.265625 
Q 44.046875 -1.421875 31.78125 -1.421875 
Q 19.53125 -1.421875 13.0625 8.265625 
Q 6.59375 17.96875 6.59375 36.375 
Q 6.59375 54.828125 13.0625 64.515625 
Q 19.53125 74.21875 31.78125 74.21875 
z
" id="DejaVuSans-48"/>
       </defs>
       <use xlink:href="#DejaVuSans-48"/>
      </g>
     </g>
    </g>
    <g id="ytick_2">
     <g id="line2d_20">
      <path clip-path="url(#pe904f7c2ee)" d="M 43.025125 245.002411 
L 400.145125 245.002411 
" style="fill:none;stroke:#ffffff;"/>
     </g>
     <g id="line2d_21">
      <path d="M 43.025125 245.002411 
" style="fill:none;stroke:#333333;stroke-width:1.5;"/>
      <g>
       <use style="fill:#333333;stroke:#000000;" x="43.025125" xlink:href="#m6dcd94449d" y="245.002411"/>
      </g>
     </g>
     <g id="text_11">
      <!-- 100 -->
      <g style="fill:#00008b;" transform="translate(21.278125 247.430661)scale(0.088 -0.088)">
       <defs>
        <path d="M 12.40625 8.296875 
L 28.515625 8.296875 
L 28.515625 63.921875 
L 10.984375 60.40625 
L 10.984375 69.390625 
L 28.421875 72.90625 
L 38.28125 72.90625 
L 38.28125 8.296875 
L 54.390625 8.296875 
L 54.390625 0 
L 12.40625 0 
z
" id="DejaVuSans-49"/>
       </defs>
       <use xlink:href="#DejaVuSans-49"/>
       <use x="63.623047" xlink:href="#DejaVuSans-48"/>
       <use x="127.246094" xlink:href="#DejaVuSans-48"/>
      </g>
     </g>
    </g>
    <g id="ytick_3">
     <g id="line2d_22">
      <path clip-path="url(#pe904f7c2ee)" d="M 43.025125 196.618411 
L 400.145125 196.618411 
" style="fill:none;stroke:#ffffff;"/>
     </g>
     <g id="line2d_23">
      <path d="M 43.025125 196.618411 
" style="fill:none;stroke:#333333;stroke-width:1.5;"/>
      <g>
       <use style="fill:#333333;stroke:#000000;" x="43.025125" xlink:href="#m6dcd94449d" y="196.618411"/>
      </g>
     </g>
     <g id="text_12">
      <!-- 200 -->
      <g style="fill:#00008b;" transform="translate(21.278125 199.046661)scale(0.088 -0.088)">
       <defs>
        <path d="M 19.1875 8.296875 
L 53.609375 8.296875 
L 53.609375 0 
L 7.328125 0 
L 7.328125 8.296875 
Q 12.9375 14.109375 22.625 23.890625 
Q 32.328125 33.6875 34.8125 36.53125 
Q 39.546875 41.84375 41.421875 45.53125 
Q 43.3125 49.21875 43.3125 52.78125 
Q 43.3125 58.59375 39.234375 62.25 
Q 35.15625 65.921875 28.609375 65.921875 
Q 23.96875 65.921875 18.8125 64.3125 
Q 13.671875 62.703125 7.8125 59.421875 
L 7.8125 69.390625 
Q 13.765625 71.78125 18.9375 73 
Q 24.125 74.21875 28.421875 74.21875 
Q 39.75 74.21875 46.484375 68.546875 
Q 53.21875 62.890625 53.21875 53.421875 
Q 53.21875 48.921875 51.53125 44.890625 
Q 49.859375 40.875 45.40625 35.40625 
Q 44.1875 33.984375 37.640625 27.21875 
Q 31.109375 20.453125 19.1875 8.296875 
z
" id="DejaVuSans-50"/>
       </defs>
       <use xlink:href="#DejaVuSans-50"/>
       <use x="63.623047" xlink:href="#DejaVuSans-48"/>
       <use x="127.246094" xlink:href="#DejaVuSans-48"/>
      </g>
     </g>
    </g>
    <g id="ytick_4">
     <g id="line2d_24">
      <path clip-path="url(#pe904f7c2ee)" d="M 43.025125 148.234411 
L 400.145125 148.234411 
" style="fill:none;stroke:#ffffff;"/>
     </g>
     <g id="line2d_25">
      <path d="M 43.025125 148.234411 
" style="fill:none;stroke:#333333;stroke-width:1.5;"/>
      <g>
       <use style="fill:#333333;stroke:#000000;" x="43.025125" xlink:href="#m6dcd94449d" y="148.234411"/>
      </g>
     </g>
     <g id="text_13">
      <!-- 300 -->
      <g style="fill:#00008b;" transform="translate(21.278125 150.662661)scale(0.088 -0.088)">
       <defs>
        <path d="M 40.578125 39.3125 
Q 47.65625 37.796875 51.625 33 
Q 55.609375 28.21875 55.609375 21.1875 
Q 55.609375 10.40625 48.1875 4.484375 
Q 40.765625 -1.421875 27.09375 -1.421875 
Q 22.515625 -1.421875 17.65625 -0.515625 
Q 12.796875 0.390625 7.625 2.203125 
L 7.625 11.71875 
Q 11.71875 9.328125 16.59375 8.109375 
Q 21.484375 6.890625 26.8125 6.890625 
Q 36.078125 6.890625 40.9375 10.546875 
Q 45.796875 14.203125 45.796875 21.1875 
Q 45.796875 27.640625 41.28125 31.265625 
Q 36.765625 34.90625 28.71875 34.90625 
L 20.21875 34.90625 
L 20.21875 43.015625 
L 29.109375 43.015625 
Q 36.375 43.015625 40.234375 45.921875 
Q 44.09375 48.828125 44.09375 54.296875 
Q 44.09375 59.90625 40.109375 62.90625 
Q 36.140625 65.921875 28.71875 65.921875 
Q 24.65625 65.921875 20.015625 65.03125 
Q 15.375 64.15625 9.8125 62.3125 
L 9.8125 71.09375 
Q 15.4375 72.65625 20.34375 73.4375 
Q 25.25 74.21875 29.59375 74.21875 
Q 40.828125 74.21875 47.359375 69.109375 
Q 53.90625 64.015625 53.90625 55.328125 
Q 53.90625 49.265625 50.4375 45.09375 
Q 46.96875 40.921875 40.578125 39.3125 
z
" id="DejaVuSans-51"/>
       </defs>
       <use xlink:href="#DejaVuSans-51"/>
       <use x="63.623047" xlink:href="#DejaVuSans-48"/>
       <use x="127.246094" xlink:href="#DejaVuSans-48"/>
      </g>
     </g>
    </g>
    <g id="ytick_5">
     <g id="line2d_26">
      <path clip-path="url(#pe904f7c2ee)" d="M 43.025125 99.850411 
L 400.145125 99.850411 
" style="fill:none;stroke:#ffffff;"/>
     </g>
     <g id="line2d_27">
      <path d="M 43.025125 99.850411 
" style="fill:none;stroke:#333333;stroke-width:1.5;"/>
      <g>
       <use style="fill:#333333;stroke:#000000;" x="43.025125" xlink:href="#m6dcd94449d" y="99.850411"/>
      </g>
     </g>
     <g id="text_14">
      <!-- 400 -->
      <g style="fill:#00008b;" transform="translate(21.278125 102.278661)scale(0.088 -0.088)">
       <defs>
        <path d="M 37.796875 64.3125 
L 12.890625 25.390625 
L 37.796875 25.390625 
z
M 35.203125 72.90625 
L 47.609375 72.90625 
L 47.609375 25.390625 
L 58.015625 25.390625 
L 58.015625 17.1875 
L 47.609375 17.1875 
L 47.609375 0 
L 37.796875 0 
L 37.796875 17.1875 
L 4.890625 17.1875 
L 4.890625 26.703125 
z
" id="DejaVuSans-52"/>
       </defs>
       <use xlink:href="#DejaVuSans-52"/>
       <use x="63.623047" xlink:href="#DejaVuSans-48"/>
       <use x="127.246094" xlink:href="#DejaVuSans-48"/>
      </g>
     </g>
    </g>
    <g id="ytick_6">
     <g id="line2d_28">
      <path clip-path="url(#pe904f7c2ee)" d="M 43.025125 51.466411 
L 400.145125 51.466411 
" style="fill:none;stroke:#ffffff;"/>
     </g>
     <g id="line2d_29">
      <path d="M 43.025125 51.466411 
" style="fill:none;stroke:#333333;stroke-width:1.5;"/>
      <g>
       <use style="fill:#333333;stroke:#000000;" x="43.025125" xlink:href="#m6dcd94449d" y="51.466411"/>
      </g>
     </g>
     <g id="text_15">
      <!-- 500 -->
      <g style="fill:#00008b;" transform="translate(21.278125 53.894661)scale(0.088 -0.088)">
       <defs>
        <path d="M 10.796875 72.90625 
L 49.515625 72.90625 
L 49.515625 64.59375 
L 19.828125 64.59375 
L 19.828125 46.734375 
Q 21.96875 47.46875 24.109375 47.828125 
Q 26.265625 48.1875 28.421875 48.1875 
Q 40.625 48.1875 47.75 41.5 
Q 54.890625 34.8125 54.890625 23.390625 
Q 54.890625 11.625 47.5625 5.09375 
Q 40.234375 -1.421875 26.90625 -1.421875 
Q 22.3125 -1.421875 17.546875 -0.640625 
Q 12.796875 0.140625 7.71875 1.703125 
L 7.71875 11.625 
Q 12.109375 9.234375 16.796875 8.0625 
Q 21.484375 6.890625 26.703125 6.890625 
Q 35.15625 6.890625 40.078125 11.328125 
Q 45.015625 15.765625 45.015625 23.390625 
Q 45.015625 31 40.078125 35.4375 
Q 35.15625 39.890625 26.703125 39.890625 
Q 22.75 39.890625 18.8125 39.015625 
Q 14.890625 38.140625 10.796875 36.28125 
z
" id="DejaVuSans-53"/>
       </defs>
       <use xlink:href="#DejaVuSans-53"/>
       <use x="63.623047" xlink:href="#DejaVuSans-48"/>
       <use x="127.246094" xlink:href="#DejaVuSans-48"/>
      </g>
     </g>
    </g>
    <g id="ytick_7">
     <g id="line2d_30">
      <path clip-path="url(#pe904f7c2ee)" d="M 43.025125 269.194411 
L 400.145125 269.194411 
" style="fill:none;stroke:#ffffff;stroke-width:0.5;"/>
     </g>
    </g>
    <g id="ytick_8">
     <g id="line2d_31">
      <path clip-path="url(#pe904f7c2ee)" d="M 43.025125 220.810411 
L 400.145125 220.810411 
" style="fill:none;stroke:#ffffff;stroke-width:0.5;"/>
     </g>
    </g>
    <g id="ytick_9">
     <g id="line2d_32">
      <path clip-path="url(#pe904f7c2ee)" d="M 43.025125 172.426411 
L 400.145125 172.426411 
" style="fill:none;stroke:#ffffff;stroke-width:0.5;"/>
     </g>
    </g>
    <g id="ytick_10">
     <g id="line2d_33">
      <path clip-path="url(#pe904f7c2ee)" d="M 43.025125 124.042411 
L 400.145125 124.042411 
" style="fill:none;stroke:#ffffff;stroke-width:0.5;"/>
     </g>
    </g>
    <g id="ytick_11">
     <g id="line2d_34">
      <path clip-path="url(#pe904f7c2ee)" d="M 43.025125 75.658411 
L 400.145125 75.658411 
" style="fill:none;stroke:#ffffff;stroke-width:0.5;"/>
     </g>
    </g>
    <g id="text_16">
     <!-- Inmate Covid19 positive test result -->
     <g style="fill:#00008b;" transform="translate(14.798438 258.461692)rotate(-90)scale(0.1 -0.1)">
      <defs>
       <path d="M 9.8125 72.90625 
L 19.671875 72.90625 
L 19.671875 0 
L 9.8125 0 
z
" id="DejaVuSans-73"/>
       <path d="M 52 44.1875 
Q 55.375 50.25 60.0625 53.125 
Q 64.75 56 71.09375 56 
Q 79.640625 56 84.28125 50.015625 
Q 88.921875 44.046875 88.921875 33.015625 
L 88.921875 0 
L 79.890625 0 
L 79.890625 32.71875 
Q 79.890625 40.578125 77.09375 44.375 
Q 74.3125 48.1875 68.609375 48.1875 
Q 61.625 48.1875 57.5625 43.546875 
Q 53.515625 38.921875 53.515625 30.90625 
L 53.515625 0 
L 44.484375 0 
L 44.484375 32.71875 
Q 44.484375 40.625 41.703125 44.40625 
Q 38.921875 48.1875 33.109375 48.1875 
Q 26.21875 48.1875 22.15625 43.53125 
Q 18.109375 38.875 18.109375 30.90625 
L 18.109375 0 
L 9.078125 0 
L 9.078125 54.6875 
L 18.109375 54.6875 
L 18.109375 46.1875 
Q 21.1875 51.21875 25.484375 53.609375 
Q 29.78125 56 35.6875 56 
Q 41.65625 56 45.828125 52.96875 
Q 50 49.953125 52 44.1875 
z
" id="DejaVuSans-109"/>
       <path id="DejaVuSans-32"/>
       <path d="M 64.40625 67.28125 
L 64.40625 56.890625 
Q 59.421875 61.53125 53.78125 63.8125 
Q 48.140625 66.109375 41.796875 66.109375 
Q 29.296875 66.109375 22.65625 58.46875 
Q 16.015625 50.828125 16.015625 36.375 
Q 16.015625 21.96875 22.65625 14.328125 
Q 29.296875 6.6875 41.796875 6.6875 
Q 48.140625 6.6875 53.78125 8.984375 
Q 59.421875 11.28125 64.40625 15.921875 
L 64.40625 5.609375 
Q 59.234375 2.09375 53.4375 0.328125 
Q 47.65625 -1.421875 41.21875 -1.421875 
Q 24.65625 -1.421875 15.125 8.703125 
Q 5.609375 18.84375 5.609375 36.375 
Q 5.609375 53.953125 15.125 64.078125 
Q 24.65625 74.21875 41.21875 74.21875 
Q 47.75 74.21875 53.53125 72.484375 
Q 59.328125 70.75 64.40625 67.28125 
z
" id="DejaVuSans-67"/>
       <path d="M 9.421875 54.6875 
L 18.40625 54.6875 
L 18.40625 0 
L 9.421875 0 
z
M 9.421875 75.984375 
L 18.40625 75.984375 
L 18.40625 64.59375 
L 9.421875 64.59375 
z
" id="DejaVuSans-105"/>
       <path d="M 45.40625 46.390625 
L 45.40625 75.984375 
L 54.390625 75.984375 
L 54.390625 0 
L 45.40625 0 
L 45.40625 8.203125 
Q 42.578125 3.328125 38.25 0.953125 
Q 33.9375 -1.421875 27.875 -1.421875 
Q 17.96875 -1.421875 11.734375 6.484375 
Q 5.515625 14.40625 5.515625 27.296875 
Q 5.515625 40.1875 11.734375 48.09375 
Q 17.96875 56 27.875 56 
Q 33.9375 56 38.25 53.625 
Q 42.578125 51.265625 45.40625 46.390625 
z
M 14.796875 27.296875 
Q 14.796875 17.390625 18.875 11.75 
Q 22.953125 6.109375 30.078125 6.109375 
Q 37.203125 6.109375 41.296875 11.75 
Q 45.40625 17.390625 45.40625 27.296875 
Q 45.40625 37.203125 41.296875 42.84375 
Q 37.203125 48.484375 30.078125 48.484375 
Q 22.953125 48.484375 18.875 42.84375 
Q 14.796875 37.203125 14.796875 27.296875 
z
" id="DejaVuSans-100"/>
       <path d="M 10.984375 1.515625 
L 10.984375 10.5 
Q 14.703125 8.734375 18.5 7.8125 
Q 22.3125 6.890625 25.984375 6.890625 
Q 35.75 6.890625 40.890625 13.453125 
Q 46.046875 20.015625 46.78125 33.40625 
Q 43.953125 29.203125 39.59375 26.953125 
Q 35.25 24.703125 29.984375 24.703125 
Q 19.046875 24.703125 12.671875 31.3125 
Q 6.296875 37.9375 6.296875 49.421875 
Q 6.296875 60.640625 12.9375 67.421875 
Q 19.578125 74.21875 30.609375 74.21875 
Q 43.265625 74.21875 49.921875 64.515625 
Q 56.59375 54.828125 56.59375 36.375 
Q 56.59375 19.140625 48.40625 8.859375 
Q 40.234375 -1.421875 26.421875 -1.421875 
Q 22.703125 -1.421875 18.890625 -0.6875 
Q 15.09375 0.046875 10.984375 1.515625 
z
M 30.609375 32.421875 
Q 37.25 32.421875 41.125 36.953125 
Q 45.015625 41.5 45.015625 49.421875 
Q 45.015625 57.28125 41.125 61.84375 
Q 37.25 66.40625 30.609375 66.40625 
Q 23.96875 66.40625 20.09375 61.84375 
Q 16.21875 57.28125 16.21875 49.421875 
Q 16.21875 41.5 20.09375 36.953125 
Q 23.96875 32.421875 30.609375 32.421875 
z
" id="DejaVuSans-57"/>
       <path d="M 44.28125 53.078125 
L 44.28125 44.578125 
Q 40.484375 46.53125 36.375 47.5 
Q 32.28125 48.484375 27.875 48.484375 
Q 21.1875 48.484375 17.84375 46.4375 
Q 14.5 44.390625 14.5 40.28125 
Q 14.5 37.15625 16.890625 35.375 
Q 19.28125 33.59375 26.515625 31.984375 
L 29.59375 31.296875 
Q 39.15625 29.25 43.1875 25.515625 
Q 47.21875 21.78125 47.21875 15.09375 
Q 47.21875 7.46875 41.1875 3.015625 
Q 35.15625 -1.421875 24.609375 -1.421875 
Q 20.21875 -1.421875 15.453125 -0.5625 
Q 10.6875 0.296875 5.421875 2 
L 5.421875 11.28125 
Q 10.40625 8.6875 15.234375 7.390625 
Q 20.0625 6.109375 24.8125 6.109375 
Q 31.15625 6.109375 34.5625 8.28125 
Q 37.984375 10.453125 37.984375 14.40625 
Q 37.984375 18.0625 35.515625 20.015625 
Q 33.0625 21.96875 24.703125 23.78125 
L 21.578125 24.515625 
Q 13.234375 26.265625 9.515625 29.90625 
Q 5.8125 33.546875 5.8125 39.890625 
Q 5.8125 47.609375 11.28125 51.796875 
Q 16.75 56 26.8125 56 
Q 31.78125 56 36.171875 55.265625 
Q 40.578125 54.546875 44.28125 53.078125 
z
" id="DejaVuSans-115"/>
      </defs>
      <use xlink:href="#DejaVuSans-73"/>
      <use x="29.492188" xlink:href="#DejaVuSans-110"/>
      <use x="92.871094" xlink:href="#DejaVuSans-109"/>
      <use x="190.283203" xlink:href="#DejaVuSans-97"/>
      <use x="251.5625" xlink:href="#DejaVuSans-116"/>
      <use x="290.771484" xlink:href="#DejaVuSans-101"/>
      <use x="352.294922" xlink:href="#DejaVuSans-32"/>
      <use x="384.082031" xlink:href="#DejaVuSans-67"/>
      <use x="453.90625" xlink:href="#DejaVuSans-111"/>
      <use x="515.087891" xlink:href="#DejaVuSans-118"/>
      <use x="574.267578" xlink:href="#DejaVuSans-105"/>
      <use x="602.050781" xlink:href="#DejaVuSans-100"/>
      <use x="665.527344" xlink:href="#DejaVuSans-49"/>
      <use x="729.150391" xlink:href="#DejaVuSans-57"/>
      <use x="792.773438" xlink:href="#DejaVuSans-32"/>
      <use x="824.560547" xlink:href="#DejaVuSans-112"/>
      <use x="888.037109" xlink:href="#DejaVuSans-111"/>
      <use x="949.21875" xlink:href="#DejaVuSans-115"/>
      <use x="1001.318359" xlink:href="#DejaVuSans-105"/>
      <use x="1029.101562" xlink:href="#DejaVuSans-116"/>
      <use x="1068.310547" xlink:href="#DejaVuSans-105"/>
      <use x="1096.09375" xlink:href="#DejaVuSans-118"/>
      <use x="1155.273438" xlink:href="#DejaVuSans-101"/>
      <use x="1216.796875" xlink:href="#DejaVuSans-32"/>
      <use x="1248.583984" xlink:href="#DejaVuSans-116"/>
      <use x="1287.792969" xlink:href="#DejaVuSans-101"/>
      <use x="1349.316406" xlink:href="#DejaVuSans-115"/>
      <use x="1401.416016" xlink:href="#DejaVuSans-116"/>
      <use x="1440.625" xlink:href="#DejaVuSans-32"/>
      <use x="1472.412109" xlink:href="#DejaVuSans-114"/>
      <use x="1511.275391" xlink:href="#DejaVuSans-101"/>
      <use x="1572.798828" xlink:href="#DejaVuSans-115"/>
      <use x="1624.898438" xlink:href="#DejaVuSans-117"/>
      <use x="1688.277344" xlink:href="#DejaVuSans-108"/>
      <use x="1716.060547" xlink:href="#DejaVuSans-116"/>
     </g>
    </g>
   </g>
   <g id="PathCollection_1">
    <path clip-path="url(#pe904f7c2ee)" d="M 59.257852 290.926484 
C 59.375367 290.926484 59.488085 290.879795 59.571181 290.796699 
C 59.654277 290.713604 59.700966 290.600886 59.700966 290.483371 
C 59.700966 290.365856 59.654277 290.253138 59.571181 290.170042 
C 59.488085 290.086947 59.375367 290.040257 59.257852 290.040257 
C 59.140337 290.040257 59.027619 290.086947 58.944524 290.170042 
C 58.861428 290.253138 58.814739 290.365856 58.814739 290.483371 
C 58.814739 290.600886 58.861428 290.713604 58.944524 290.796699 
C 59.027619 290.879795 59.140337 290.926484 59.257852 290.926484 
z
" style="fill:#ffffff;stroke:#ffffff;stroke-width:0.886227;"/>
    <path clip-path="url(#pe904f7c2ee)" d="M 69.095869 293.829524 
C 69.213384 293.829524 69.326102 293.782835 69.409197 293.699739 
C 69.492293 293.616644 69.538982 293.503926 69.538982 293.386411 
C 69.538982 293.268896 69.492293 293.156178 69.409197 293.073082 
C 69.326102 292.989987 69.213384 292.943297 69.095869 292.943297 
C 68.978354 292.943297 68.865636 292.989987 68.78254 293.073082 
C 68.699445 293.156178 68.652755 293.268896 68.652755 293.386411 
C 68.652755 293.503926 68.699445 293.616644 68.78254 293.699739 
C 68.865636 293.782835 68.978354 293.829524 69.095869 293.829524 
z
" style="fill:#ffffff;stroke:#ffffff;stroke-width:0.886227;"/>
    <path clip-path="url(#pe904f7c2ee)" d="M 78.933885 293.829524 
C 79.0514 293.829524 79.164118 293.782835 79.247214 293.699739 
C 79.33031 293.616644 79.376999 293.503926 79.376999 293.386411 
C 79.376999 293.268896 79.33031 293.156178 79.247214 293.073082 
C 79.164118 292.989987 79.0514 292.943297 78.933885 292.943297 
C 78.81637 292.943297 78.703652 292.989987 78.620557 293.073082 
C 78.537461 293.156178 78.490772 293.268896 78.490772 293.386411 
C 78.490772 293.503926 78.537461 293.616644 78.620557 293.699739 
C 78.703652 293.782835 78.81637 293.829524 78.933885 293.829524 
z
" style="fill:#ffffff;stroke:#ffffff;stroke-width:0.886227;"/>
    <path clip-path="url(#pe904f7c2ee)" d="M 88.771902 293.829524 
C 88.889417 293.829524 89.002135 293.782835 89.08523 293.699739 
C 89.168326 293.616644 89.215015 293.503926 89.215015 293.386411 
C 89.215015 293.268896 89.168326 293.156178 89.08523 293.073082 
C 89.002135 292.989987 88.889417 292.943297 88.771902 292.943297 
C 88.654387 292.943297 88.541669 292.989987 88.458573 293.073082 
C 88.375478 293.156178 88.328788 293.268896 88.328788 293.386411 
C 88.328788 293.503926 88.375478 293.616644 88.458573 293.699739 
C 88.541669 293.782835 88.654387 293.829524 88.771902 293.829524 
z
" style="fill:#ffffff;stroke:#ffffff;stroke-width:0.886227;"/>
    <path clip-path="url(#pe904f7c2ee)" d="M 98.609918 242.542484 
C 98.727433 242.542484 98.840151 242.495795 98.923247 242.412699 
C 99.006343 242.329604 99.053032 242.216886 99.053032 242.099371 
C 99.053032 241.981856 99.006343 241.869138 98.923247 241.786042 
C 98.840151 241.702947 98.727433 241.656257 98.609918 241.656257 
C 98.492403 241.656257 98.379686 241.702947 98.29659 241.786042 
C 98.213494 241.869138 98.166805 241.981856 98.166805 242.099371 
C 98.166805 242.216886 98.213494 242.329604 98.29659 242.412699 
C 98.379686 242.495795 98.492403 242.542484 98.609918 242.542484 
z
" style="fill:#ffffff;stroke:#ffffff;stroke-width:0.886227;"/>
    <path clip-path="url(#pe904f7c2ee)" d="M 108.447935 289.474964 
C 108.56545 289.474964 108.678168 289.428275 108.761263 289.345179 
C 108.844359 289.262084 108.891048 289.149366 108.891048 289.031851 
C 108.891048 288.914336 108.844359 288.801618 108.761263 288.718522 
C 108.678168 288.635427 108.56545 288.588737 108.447935 288.588737 
C 108.33042 288.588737 108.217702 288.635427 108.134606 288.718522 
C 108.051511 288.801618 108.004821 288.914336 108.004821 289.031851 
C 108.004821 289.149366 108.051511 289.262084 108.134606 289.345179 
C 108.217702 289.428275 108.33042 289.474964 108.447935 289.474964 
z
" style="fill:#ffffff;stroke:#ffffff;stroke-width:0.886227;"/>
    <path clip-path="url(#pe904f7c2ee)" d="M 118.285951 285.120404 
C 118.403467 285.120404 118.516184 285.073715 118.59928 284.990619 
C 118.682376 284.907524 118.729065 284.794806 118.729065 284.677291 
C 118.729065 284.559776 118.682376 284.447058 118.59928 284.363962 
C 118.516184 284.280867 118.403467 284.234177 118.285951 284.234177 
C 118.168436 284.234177 118.055719 284.280867 117.972623 284.363962 
C 117.889527 284.447058 117.842838 284.559776 117.842838 284.677291 
C 117.842838 284.794806 117.889527 284.907524 117.972623 284.990619 
C 118.055719 285.073715 118.168436 285.120404 118.285951 285.120404 
z
" style="fill:#ffffff;stroke:#ffffff;stroke-width:0.886227;"/>
    <path clip-path="url(#pe904f7c2ee)" d="M 128.123968 288.991124 
C 128.241483 288.991124 128.354201 288.944435 128.437297 288.861339 
C 128.520392 288.778244 128.567081 288.665526 128.567081 288.548011 
C 128.567081 288.430496 128.520392 288.317778 128.437297 288.234682 
C 128.354201 288.151587 128.241483 288.104897 128.123968 288.104897 
C 128.006453 288.104897 127.893735 288.151587 127.810639 288.234682 
C 127.727544 288.317778 127.680855 288.430496 127.680855 288.548011 
C 127.680855 288.665526 127.727544 288.778244 127.810639 288.861339 
C 127.893735 288.944435 128.006453 288.991124 128.123968 288.991124 
z
" style="fill:#ffffff;stroke:#ffffff;stroke-width:0.886227;"/>
    <path clip-path="url(#pe904f7c2ee)" d="M 137.961985 291.894164 
C 138.0795 291.894164 138.192217 291.847475 138.275313 291.764379 
C 138.358409 291.681284 138.405098 291.568566 138.405098 291.451051 
C 138.405098 291.333536 138.358409 291.220818 138.275313 291.137722 
C 138.192217 291.054627 138.0795 291.007937 137.961985 291.007937 
C 137.844469 291.007937 137.731752 291.054627 137.648656 291.137722 
C 137.56556 291.220818 137.518871 291.333536 137.518871 291.451051 
C 137.518871 291.568566 137.56556 291.681284 137.648656 291.764379 
C 137.731752 291.847475 137.844469 291.894164 137.961985 291.894164 
z
" style="fill:#ffffff;stroke:#ffffff;stroke-width:0.886227;"/>
    <path clip-path="url(#pe904f7c2ee)" d="M 147.800001 288.991124 
C 147.917516 288.991124 148.030234 288.944435 148.11333 288.861339 
C 148.196425 288.778244 148.243114 288.665526 148.243114 288.548011 
C 148.243114 288.430496 148.196425 288.317778 148.11333 288.234682 
C 148.030234 288.151587 147.917516 288.104897 147.800001 288.104897 
C 147.682486 288.104897 147.569768 288.151587 147.486672 288.234682 
C 147.403577 288.317778 147.356888 288.430496 147.356888 288.548011 
C 147.356888 288.665526 147.403577 288.778244 147.486672 288.861339 
C 147.569768 288.944435 147.682486 288.991124 147.800001 288.991124 
z
" style="fill:#ffffff;stroke:#ffffff;stroke-width:0.886227;"/>
    <path clip-path="url(#pe904f7c2ee)" d="M 157.638018 290.926484 
C 157.755533 290.926484 157.86825 290.879795 157.951346 290.796699 
C 158.034442 290.713604 158.081131 290.600886 158.081131 290.483371 
C 158.081131 290.365856 158.034442 290.253138 157.951346 290.170042 
C 157.86825 290.086947 157.755533 290.040257 157.638018 290.040257 
C 157.520502 290.040257 157.407785 290.086947 157.324689 290.170042 
C 157.241593 290.253138 157.194904 290.365856 157.194904 290.483371 
C 157.194904 290.600886 157.241593 290.713604 157.324689 290.796699 
C 157.407785 290.879795 157.520502 290.926484 157.638018 290.926484 
z
" style="fill:#ffffff;stroke:#ffffff;stroke-width:0.886227;"/>
    <path clip-path="url(#pe904f7c2ee)" d="M 167.476034 290.442644 
C 167.593549 290.442644 167.706267 290.395955 167.789363 290.312859 
C 167.872458 290.229764 167.919148 290.117046 167.919148 289.999531 
C 167.919148 289.882016 167.872458 289.769298 167.789363 289.686202 
C 167.706267 289.603107 167.593549 289.556417 167.476034 289.556417 
C 167.358519 289.556417 167.245801 289.603107 167.162706 289.686202 
C 167.07961 289.769298 167.032921 289.882016 167.032921 289.999531 
C 167.032921 290.117046 167.07961 290.229764 167.162706 290.312859 
C 167.245801 290.395955 167.358519 290.442644 167.476034 290.442644 
z
" style="fill:#ffffff;stroke:#ffffff;stroke-width:0.886227;"/>
    <path clip-path="url(#pe904f7c2ee)" d="M 177.314051 292.861844 
C 177.431566 292.861844 177.544283 292.815155 177.627379 292.732059 
C 177.710475 292.648964 177.757164 292.536246 177.757164 292.418731 
C 177.757164 292.301216 177.710475 292.188498 177.627379 292.105402 
C 177.544283 292.022307 177.431566 291.975617 177.314051 291.975617 
C 177.196536 291.975617 177.083818 292.022307 177.000722 292.105402 
C 176.917626 292.188498 176.870937 292.301216 176.870937 292.418731 
C 176.870937 292.536246 176.917626 292.648964 177.000722 292.732059 
C 177.083818 292.815155 177.196536 292.861844 177.314051 292.861844 
z
" style="fill:#ffffff;stroke:#ffffff;stroke-width:0.886227;"/>
    <path clip-path="url(#pe904f7c2ee)" d="M 187.152067 290.442644 
C 187.269582 290.442644 187.3823 290.395955 187.465396 290.312859 
C 187.548491 290.229764 187.595181 290.117046 187.595181 289.999531 
C 187.595181 289.882016 187.548491 289.769298 187.465396 289.686202 
C 187.3823 289.603107 187.269582 289.556417 187.152067 289.556417 
C 187.034552 289.556417 186.921834 289.603107 186.838739 289.686202 
C 186.755643 289.769298 186.708954 289.882016 186.708954 289.999531 
C 186.708954 290.117046 186.755643 290.229764 186.838739 290.312859 
C 186.921834 290.395955 187.034552 290.442644 187.152067 290.442644 
z
" style="fill:#ffffff;stroke:#ffffff;stroke-width:0.886227;"/>
    <path clip-path="url(#pe904f7c2ee)" d="M 196.990084 291.894164 
C 197.107599 291.894164 197.220317 291.847475 197.303412 291.764379 
C 197.386508 291.681284 197.433197 291.568566 197.433197 291.451051 
C 197.433197 291.333536 197.386508 291.220818 197.303412 291.137722 
C 197.220317 291.054627 197.107599 291.007937 196.990084 291.007937 
C 196.872569 291.007937 196.759851 291.054627 196.676755 291.137722 
C 196.593659 291.220818 196.54697 291.333536 196.54697 291.451051 
C 196.54697 291.568566 196.593659 291.681284 196.676755 291.764379 
C 196.759851 291.847475 196.872569 291.894164 196.990084 291.894164 
z
" style="fill:#ffffff;stroke:#ffffff;stroke-width:0.886227;"/>
    <path clip-path="url(#pe904f7c2ee)" d="M 206.8281 293.345684 
C 206.945615 293.345684 207.058333 293.298995 207.141429 293.215899 
C 207.224524 293.132804 207.271214 293.020086 207.271214 292.902571 
C 207.271214 292.785056 207.224524 292.672338 207.141429 292.589242 
C 207.058333 292.506147 206.945615 292.459457 206.8281 292.459457 
C 206.710585 292.459457 206.597867 292.506147 206.514772 292.589242 
C 206.431676 292.672338 206.384987 292.785056 206.384987 292.902571 
C 206.384987 293.020086 206.431676 293.132804 206.514772 293.215899 
C 206.597867 293.298995 206.710585 293.345684 206.8281 293.345684 
z
" style="fill:#ffffff;stroke:#ffffff;stroke-width:0.886227;"/>
    <path clip-path="url(#pe904f7c2ee)" d="M 216.666117 290.442644 
C 216.783632 290.442644 216.89635 290.395955 216.979445 290.312859 
C 217.062541 290.229764 217.10923 290.117046 217.10923 289.999531 
C 217.10923 289.882016 217.062541 289.769298 216.979445 289.686202 
C 216.89635 289.603107 216.783632 289.556417 216.666117 289.556417 
C 216.548602 289.556417 216.435884 289.603107 216.352788 289.686202 
C 216.269693 289.769298 216.223003 289.882016 216.223003 289.999531 
C 216.223003 290.117046 216.269693 290.229764 216.352788 290.312859 
C 216.435884 290.395955 216.548602 290.442644 216.666117 290.442644 
z
" style="fill:#ffffff;stroke:#ffffff;stroke-width:0.886227;"/>
    <path clip-path="url(#pe904f7c2ee)" d="M 226.504133 292.861844 
C 226.621648 292.861844 226.734366 292.815155 226.817462 292.732059 
C 226.900557 292.648964 226.947247 292.536246 226.947247 292.418731 
C 226.947247 292.301216 226.900557 292.188498 226.817462 292.105402 
C 226.734366 292.022307 226.621648 291.975617 226.504133 291.975617 
C 226.386618 291.975617 226.2739 292.022307 226.190805 292.105402 
C 226.107709 292.188498 226.06102 292.301216 226.06102 292.418731 
C 226.06102 292.536246 226.107709 292.648964 226.190805 292.732059 
C 226.2739 292.815155 226.386618 292.861844 226.504133 292.861844 
z
" style="fill:#ffffff;stroke:#ffffff;stroke-width:0.886227;"/>
    <path clip-path="url(#pe904f7c2ee)" d="M 236.34215 293.345684 
C 236.459665 293.345684 236.572383 293.298995 236.655478 293.215899 
C 236.738574 293.132804 236.785263 293.020086 236.785263 292.902571 
C 236.785263 292.785056 236.738574 292.672338 236.655478 292.589242 
C 236.572383 292.506147 236.459665 292.459457 236.34215 292.459457 
C 236.224635 292.459457 236.111917 292.506147 236.028821 292.589242 
C 235.945726 292.672338 235.899036 292.785056 235.899036 292.902571 
C 235.899036 293.020086 235.945726 293.132804 236.028821 293.215899 
C 236.111917 293.298995 236.224635 293.345684 236.34215 293.345684 
z
" style="fill:#ffffff;stroke:#ffffff;stroke-width:0.886227;"/>
    <path clip-path="url(#pe904f7c2ee)" d="M 246.180166 293.829524 
C 246.297681 293.829524 246.410399 293.782835 246.493495 293.699739 
C 246.576591 293.616644 246.62328 293.503926 246.62328 293.386411 
C 246.62328 293.268896 246.576591 293.156178 246.493495 293.073082 
C 246.410399 292.989987 246.297681 292.943297 246.180166 292.943297 
C 246.062651 292.943297 245.949933 292.989987 245.866838 293.073082 
C 245.783742 293.156178 245.737053 293.268896 245.737053 293.386411 
C 245.737053 293.503926 245.783742 293.616644 245.866838 293.699739 
C 245.949933 293.782835 246.062651 293.829524 246.180166 293.829524 
z
" style="fill:#ffffff;stroke:#ffffff;stroke-width:0.886227;"/>
    <path clip-path="url(#pe904f7c2ee)" d="M 256.018183 284.152724 
C 256.135698 284.152724 256.248416 284.106035 256.331511 284.022939 
C 256.414607 283.939844 256.461296 283.827126 256.461296 283.709611 
C 256.461296 283.592096 256.414607 283.479378 256.331511 283.396282 
C 256.248416 283.313187 256.135698 283.266497 256.018183 283.266497 
C 255.900668 283.266497 255.78795 283.313187 255.704854 283.396282 
C 255.621759 283.479378 255.575069 283.592096 255.575069 283.709611 
C 255.575069 283.827126 255.621759 283.939844 255.704854 284.022939 
C 255.78795 284.106035 255.900668 284.152724 256.018183 284.152724 
z
" style="fill:#ffffff;stroke:#ffffff;stroke-width:0.886227;"/>
    <path clip-path="url(#pe904f7c2ee)" d="M 265.856199 293.829524 
C 265.973714 293.829524 266.086432 293.782835 266.169528 293.699739 
C 266.252624 293.616644 266.299313 293.503926 266.299313 293.386411 
C 266.299313 293.268896 266.252624 293.156178 266.169528 293.073082 
C 266.086432 292.989987 265.973714 292.943297 265.856199 292.943297 
C 265.738684 292.943297 265.625967 292.989987 265.542871 293.073082 
C 265.459775 293.156178 265.413086 293.268896 265.413086 293.386411 
C 265.413086 293.503926 265.459775 293.616644 265.542871 293.699739 
C 265.625967 293.782835 265.738684 293.829524 265.856199 293.829524 
z
" style="fill:#ffffff;stroke:#ffffff;stroke-width:0.886227;"/>
    <path clip-path="url(#pe904f7c2ee)" d="M 275.694216 293.829524 
C 275.811731 293.829524 275.924449 293.782835 276.007544 293.699739 
C 276.09064 293.616644 276.137329 293.503926 276.137329 293.386411 
C 276.137329 293.268896 276.09064 293.156178 276.007544 293.073082 
C 275.924449 292.989987 275.811731 292.943297 275.694216 292.943297 
C 275.576701 292.943297 275.463983 292.989987 275.380887 293.073082 
C 275.297792 293.156178 275.251102 293.268896 275.251102 293.386411 
C 275.251102 293.503926 275.297792 293.616644 275.380887 293.699739 
C 275.463983 293.782835 275.576701 293.829524 275.694216 293.829524 
z
" style="fill:#ffffff;stroke:#ffffff;stroke-width:0.886227;"/>
    <path clip-path="url(#pe904f7c2ee)" d="M 285.532232 293.829524 
C 285.649748 293.829524 285.762465 293.782835 285.845561 293.699739 
C 285.928657 293.616644 285.975346 293.503926 285.975346 293.386411 
C 285.975346 293.268896 285.928657 293.156178 285.845561 293.073082 
C 285.762465 292.989987 285.649748 292.943297 285.532232 292.943297 
C 285.414717 292.943297 285.302 292.989987 285.218904 293.073082 
C 285.135808 293.156178 285.089119 293.268896 285.089119 293.386411 
C 285.089119 293.503926 285.135808 293.616644 285.218904 293.699739 
C 285.302 293.782835 285.414717 293.829524 285.532232 293.829524 
z
" style="fill:#ffffff;stroke:#ffffff;stroke-width:0.886227;"/>
    <path clip-path="url(#pe904f7c2ee)" d="M 295.370249 254.638484 
C 295.487764 254.638484 295.600482 254.591795 295.683578 254.508699 
C 295.766673 254.425604 295.813362 254.312886 295.813362 254.195371 
C 295.813362 254.077856 295.766673 253.965138 295.683578 253.882042 
C 295.600482 253.798947 295.487764 253.752257 295.370249 253.752257 
C 295.252734 253.752257 295.140016 253.798947 295.05692 253.882042 
C 294.973825 253.965138 294.927136 254.077856 294.927136 254.195371 
C 294.927136 254.312886 294.973825 254.425604 295.05692 254.508699 
C 295.140016 254.591795 295.252734 254.638484 295.370249 254.638484 
z
" style="fill:#ffffff;stroke:#ffffff;stroke-width:0.886227;"/>
    <path clip-path="url(#pe904f7c2ee)" d="M 305.208265 275.443604 
C 305.325781 275.443604 305.438498 275.396915 305.521594 275.313819 
C 305.60469 275.230724 305.651379 275.118006 305.651379 275.000491 
C 305.651379 274.882976 305.60469 274.770258 305.521594 274.687162 
C 305.438498 274.604067 305.325781 274.557377 305.208265 274.557377 
C 305.09075 274.557377 304.978033 274.604067 304.894937 274.687162 
C 304.811841 274.770258 304.765152 274.882976 304.765152 275.000491 
C 304.765152 275.118006 304.811841 275.230724 304.894937 275.313819 
C 304.978033 275.396915 305.09075 275.443604 305.208265 275.443604 
z
" style="fill:#ffffff;stroke:#ffffff;stroke-width:0.886227;"/>
    <path clip-path="url(#pe904f7c2ee)" d="M 315.046282 280.765844 
C 315.163797 280.765844 315.276515 280.719155 315.359611 280.636059 
C 315.442706 280.552964 315.489395 280.440246 315.489395 280.322731 
C 315.489395 280.205216 315.442706 280.092498 315.359611 280.009402 
C 315.276515 279.926307 315.163797 279.879617 315.046282 279.879617 
C 314.928767 279.879617 314.816049 279.926307 314.732953 280.009402 
C 314.649858 280.092498 314.603169 280.205216 314.603169 280.322731 
C 314.603169 280.440246 314.649858 280.552964 314.732953 280.636059 
C 314.816049 280.719155 314.928767 280.765844 315.046282 280.765844 
z
" style="fill:#ffffff;stroke:#ffffff;stroke-width:0.886227;"/>
    <path clip-path="url(#pe904f7c2ee)" d="M 324.884299 269.153684 
C 325.001814 269.153684 325.114531 269.106995 325.197627 269.023899 
C 325.280723 268.940804 325.327412 268.828086 325.327412 268.710571 
C 325.327412 268.593056 325.280723 268.480338 325.197627 268.397242 
C 325.114531 268.314147 325.001814 268.267457 324.884299 268.267457 
C 324.766783 268.267457 324.654066 268.314147 324.57097 268.397242 
C 324.487874 268.480338 324.441185 268.593056 324.441185 268.710571 
C 324.441185 268.828086 324.487874 268.940804 324.57097 269.023899 
C 324.654066 269.106995 324.766783 269.153684 324.884299 269.153684 
z
" style="fill:#ffffff;stroke:#ffffff;stroke-width:0.886227;"/>
    <path clip-path="url(#pe904f7c2ee)" d="M 334.722315 229.962644 
C 334.83983 229.962644 334.952548 229.915955 335.035644 229.832859 
C 335.118739 229.749764 335.165429 229.637046 335.165429 229.519531 
C 335.165429 229.402016 335.118739 229.289298 335.035644 229.206202 
C 334.952548 229.123107 334.83983 229.076417 334.722315 229.076417 
C 334.6048 229.076417 334.492082 229.123107 334.408987 229.206202 
C 334.325891 229.289298 334.279202 229.402016 334.279202 229.519531 
C 334.279202 229.637046 334.325891 229.749764 334.408987 229.832859 
C 334.492082 229.915955 334.6048 229.962644 334.722315 229.962644 
z
" style="fill:#ffffff;stroke:#ffffff;stroke-width:0.886227;"/>
    <path clip-path="url(#pe904f7c2ee)" d="M 344.560332 247.864724 
C 344.677847 247.864724 344.790564 247.818035 344.87366 247.734939 
C 344.956756 247.651844 345.003445 247.539126 345.003445 247.421611 
C 345.003445 247.304096 344.956756 247.191378 344.87366 247.108282 
C 344.790564 247.025187 344.677847 246.978497 344.560332 246.978497 
C 344.442817 246.978497 344.330099 247.025187 344.247003 247.108282 
C 344.163907 247.191378 344.117218 247.304096 344.117218 247.421611 
C 344.117218 247.539126 344.163907 247.651844 344.247003 247.734939 
C 344.330099 247.818035 344.442817 247.864724 344.560332 247.864724 
z
" style="fill:#ffffff;stroke:#ffffff;stroke-width:0.886227;"/>
    <path clip-path="url(#pe904f7c2ee)" d="M 354.398348 185.933204 
C 354.515863 185.933204 354.628581 185.886515 354.711677 185.803419 
C 354.794772 185.720324 354.841462 185.607606 354.841462 185.490091 
C 354.841462 185.372576 354.794772 185.259858 354.711677 185.176762 
C 354.628581 185.093667 354.515863 185.046977 354.398348 185.046977 
C 354.280833 185.046977 354.168115 185.093667 354.08502 185.176762 
C 354.001924 185.259858 353.955235 185.372576 353.955235 185.490091 
C 353.955235 185.607606 354.001924 185.720324 354.08502 185.803419 
C 354.168115 185.886515 354.280833 185.933204 354.398348 185.933204 
z
" style="fill:#ffffff;stroke:#ffffff;stroke-width:0.886227;"/>
    <path clip-path="url(#pe904f7c2ee)" d="M 364.236365 118.679444 
C 364.35388 118.679444 364.466598 118.632755 364.549693 118.549659 
C 364.632789 118.466564 364.679478 118.353846 364.679478 118.236331 
C 364.679478 118.118816 364.632789 118.006098 364.549693 117.923002 
C 364.466598 117.839907 364.35388 117.793217 364.236365 117.793217 
C 364.11885 117.793217 364.006132 117.839907 363.923036 117.923002 
C 363.83994 118.006098 363.793251 118.118816 363.793251 118.236331 
C 363.793251 118.353846 363.83994 118.466564 363.923036 118.549659 
C 364.006132 118.632755 364.11885 118.679444 364.236365 118.679444 
z
" style="fill:#ffffff;stroke:#ffffff;stroke-width:0.886227;"/>
    <path clip-path="url(#pe904f7c2ee)" d="M 383.912398 175.772564 
C 384.029913 175.772564 384.142631 175.725875 384.225726 175.642779 
C 384.308822 175.559684 384.355511 175.446966 384.355511 175.329451 
C 384.355511 175.211936 384.308822 175.099218 384.225726 175.016122 
C 384.142631 174.933027 384.029913 174.886337 383.912398 174.886337 
C 383.794883 174.886337 383.682165 174.933027 383.599069 175.016122 
C 383.515973 175.099218 383.469284 175.211936 383.469284 175.329451 
C 383.469284 175.446966 383.515973 175.559684 383.599069 175.642779 
C 383.682165 175.725875 383.794883 175.772564 383.912398 175.772564 
z
" style="fill:#ffffff;stroke:#ffffff;stroke-width:0.886227;"/>
   </g>
   <g id="line2d_35">
    <path clip-path="url(#pe904f7c2ee)" d="M 67.476955 291.121594 
L 71.586506 288.589877 
L 75.696057 285.923733 
L 79.805608 283.559379 
L 83.91516 281.068787 
L 88.024711 278.842446 
L 92.134262 276.216454 
L 96.243813 272.612128 
L 100.353364 271.370349 
L 104.462916 272.024743 
L 108.572467 273.306037 
L 112.682018 277.489833 
L 116.791569 283.132066 
L 120.90112 286.213038 
L 125.010672 289.299934 
L 129.120223 291.116445 
L 133.229774 290.42829 
L 137.339325 289.460697 
L 141.448876 289.728581 
L 145.558428 289.979784 
L 149.667979 290.150957 
L 153.77753 290.071452 
L 157.887081 290.064208 
L 161.996632 290.299634 
L 166.106184 290.567152 
L 170.215735 290.726799 
L 174.325286 290.875175 
L 178.434837 291.024 
L 182.544389 291.171656 
L 186.65394 291.299156 
L 190.763491 291.384266 
L 194.873042 291.433096 
L 198.982593 291.452879 
L 203.092145 291.405991 
L 207.201696 291.423049 
L 211.311247 291.514037 
L 215.420798 291.625279 
L 219.530349 291.885214 
L 223.639901 292.349583 
L 227.749452 292.470391 
L 231.859003 292.395632 
L 235.968554 292.212575 
L 240.078105 291.571744 
L 244.187657 290.672829 
L 248.297208 290.268083 
L 252.406759 289.7818 
L 256.51631 289.609883 
L 260.625861 291.187864 
L 264.735413 292.781265 
L 268.844964 292.664681 
L 272.954515 292.513118 
L 277.064066 290.792312 
L 281.173618 286.198993 
L 285.283169 281.932074 
L 289.39272 278.336786 
L 293.502271 274.198313 
L 297.611822 272.461429 
L 301.721374 272.939441 
L 305.830925 272.361663 
L 309.940476 272.487044 
L 314.050027 272.46017 
L 318.159578 270.277712 
L 322.26913 267.77045 
L 326.378681 263.624059 
L 330.488232 259.489727 
L 334.597783 252.629108 
L 338.707334 238.404577 
L 342.816886 221.238579 
L 346.926437 208.323094 
L 351.035988 194.866488 
L 355.145539 184.742431 
L 359.25509 176.990502 
L 363.364642 170.370699 
L 367.474193 165.460962 
L 371.583744 161.807332 
L 375.693295 159.491208 
L 379.802847 158.620657 
L 383.912398 159.303748 
" style="fill:none;stroke:#00008b;stroke-linejoin:miter;stroke-width:2.658681;"/>
   </g>
   <g id="patch_3">
    <path d="M 43.025125 305.482411 
L 400.145125 305.482411 
" style="fill:none;stroke:#000000;stroke-linecap:square;stroke-linejoin:miter;stroke-width:0.7;"/>
   </g>
  </g>
  <g id="text_17">
   <!-- Weekly positive Covid19 cases in Pennsylvania prison -->
   <g transform="translate(27.407 17.837812)scale(0.14 -0.14)">
    <defs>
     <path d="M 3.328125 72.90625 
L 13.28125 72.90625 
L 28.609375 11.28125 
L 43.890625 72.90625 
L 54.984375 72.90625 
L 70.3125 11.28125 
L 85.59375 72.90625 
L 95.609375 72.90625 
L 77.296875 0 
L 64.890625 0 
L 49.515625 63.28125 
L 33.984375 0 
L 21.578125 0 
z
" id="DejaVuSans-87"/>
     <path d="M 9.078125 75.984375 
L 18.109375 75.984375 
L 18.109375 31.109375 
L 44.921875 54.6875 
L 56.390625 54.6875 
L 27.390625 29.109375 
L 57.625 0 
L 45.90625 0 
L 18.109375 26.703125 
L 18.109375 0 
L 9.078125 0 
z
" id="DejaVuSans-107"/>
     <path d="M 19.671875 64.796875 
L 19.671875 37.40625 
L 32.078125 37.40625 
Q 38.96875 37.40625 42.71875 40.96875 
Q 46.484375 44.53125 46.484375 51.125 
Q 46.484375 57.671875 42.71875 61.234375 
Q 38.96875 64.796875 32.078125 64.796875 
z
M 9.8125 72.90625 
L 32.078125 72.90625 
Q 44.34375 72.90625 50.609375 67.359375 
Q 56.890625 61.8125 56.890625 51.125 
Q 56.890625 40.328125 50.609375 34.8125 
Q 44.34375 29.296875 32.078125 29.296875 
L 19.671875 29.296875 
L 19.671875 0 
L 9.8125 0 
z
" id="DejaVuSans-80"/>
    </defs>
    <use xlink:href="#DejaVuSans-87"/>
    <use x="93.001953" xlink:href="#DejaVuSans-101"/>
    <use x="154.525391" xlink:href="#DejaVuSans-101"/>
    <use x="216.048828" xlink:href="#DejaVuSans-107"/>
    <use x="273.958984" xlink:href="#DejaVuSans-108"/>
    <use x="301.742188" xlink:href="#DejaVuSans-121"/>
    <use x="360.921875" xlink:href="#DejaVuSans-32"/>
    <use x="392.708984" xlink:href="#DejaVuSans-112"/>
    <use x="456.185547" xlink:href="#DejaVuSans-111"/>
    <use x="517.367188" xlink:href="#DejaVuSans-115"/>
    <use x="569.466797" xlink:href="#DejaVuSans-105"/>
    <use x="597.25" xlink:href="#DejaVuSans-116"/>
    <use x="636.458984" xlink:href="#DejaVuSans-105"/>
    <use x="664.242188" xlink:href="#DejaVuSans-118"/>
    <use x="723.421875" xlink:href="#DejaVuSans-101"/>
    <use x="784.945312" xlink:href="#DejaVuSans-32"/>
    <use x="816.732422" xlink:href="#DejaVuSans-67"/>
    <use x="886.556641" xlink:href="#DejaVuSans-111"/>
    <use x="947.738281" xlink:href="#DejaVuSans-118"/>
    <use x="1006.917969" xlink:href="#DejaVuSans-105"/>
    <use x="1034.701172" xlink:href="#DejaVuSans-100"/>
    <use x="1098.177734" xlink:href="#DejaVuSans-49"/>
    <use x="1161.800781" xlink:href="#DejaVuSans-57"/>
    <use x="1225.423828" xlink:href="#DejaVuSans-32"/>
    <use x="1257.210938" xlink:href="#DejaVuSans-99"/>
    <use x="1312.191406" xlink:href="#DejaVuSans-97"/>
    <use x="1373.470703" xlink:href="#DejaVuSans-115"/>
    <use x="1425.570312" xlink:href="#DejaVuSans-101"/>
    <use x="1487.09375" xlink:href="#DejaVuSans-115"/>
    <use x="1539.193359" xlink:href="#DejaVuSans-32"/>
    <use x="1570.980469" xlink:href="#DejaVuSans-105"/>
    <use x="1598.763672" xlink:href="#DejaVuSans-110"/>
    <use x="1662.142578" xlink:href="#DejaVuSans-32"/>
    <use x="1693.929688" xlink:href="#DejaVuSans-80"/>
    <use x="1750.607422" xlink:href="#DejaVuSans-101"/>
    <use x="1812.130859" xlink:href="#DejaVuSans-110"/>
    <use x="1875.509766" xlink:href="#DejaVuSans-110"/>
    <use x="1938.888672" xlink:href="#DejaVuSans-115"/>
    <use x="1990.988281" xlink:href="#DejaVuSans-121"/>
    <use x="2050.167969" xlink:href="#DejaVuSans-108"/>
    <use x="2077.951172" xlink:href="#DejaVuSans-118"/>
    <use x="2137.130859" xlink:href="#DejaVuSans-97"/>
    <use x="2198.410156" xlink:href="#DejaVuSans-110"/>
    <use x="2261.789062" xlink:href="#DejaVuSans-105"/>
    <use x="2289.572266" xlink:href="#DejaVuSans-97"/>
    <use x="2350.851562" xlink:href="#DejaVuSans-32"/>
    <use x="2382.638672" xlink:href="#DejaVuSans-112"/>
    <use x="2446.115234" xlink:href="#DejaVuSans-114"/>
    <use x="2487.228516" xlink:href="#DejaVuSans-105"/>
    <use x="2515.011719" xlink:href="#DejaVuSans-115"/>
    <use x="2567.111328" xlink:href="#DejaVuSans-111"/>
    <use x="2628.292969" xlink:href="#DejaVuSans-110"/>
   </g>
   <!-- for weeks of 07 Apr to 24 Nov -->
   <g transform="translate(111.225437 30.323406)scale(0.14 -0.14)">
    <defs>
     <path d="M 37.109375 75.984375 
L 37.109375 68.5 
L 28.515625 68.5 
Q 23.6875 68.5 21.796875 66.546875 
Q 19.921875 64.59375 19.921875 59.515625 
L 19.921875 54.6875 
L 34.71875 54.6875 
L 34.71875 47.703125 
L 19.921875 47.703125 
L 19.921875 0 
L 10.890625 0 
L 10.890625 47.703125 
L 2.296875 47.703125 
L 2.296875 54.6875 
L 10.890625 54.6875 
L 10.890625 58.5 
Q 10.890625 67.625 15.140625 71.796875 
Q 19.390625 75.984375 28.609375 75.984375 
z
" id="DejaVuSans-102"/>
     <path d="M 4.203125 54.6875 
L 13.1875 54.6875 
L 24.421875 12.015625 
L 35.59375 54.6875 
L 46.1875 54.6875 
L 57.421875 12.015625 
L 68.609375 54.6875 
L 77.59375 54.6875 
L 63.28125 0 
L 52.6875 0 
L 40.921875 44.828125 
L 29.109375 0 
L 18.5 0 
z
" id="DejaVuSans-119"/>
     <path d="M 8.203125 72.90625 
L 55.078125 72.90625 
L 55.078125 68.703125 
L 28.609375 0 
L 18.3125 0 
L 43.21875 64.59375 
L 8.203125 64.59375 
z
" id="DejaVuSans-55"/>
    </defs>
    <use xlink:href="#DejaVuSans-102"/>
    <use x="35.205078" xlink:href="#DejaVuSans-111"/>
    <use x="96.386719" xlink:href="#DejaVuSans-114"/>
    <use x="137.5" xlink:href="#DejaVuSans-32"/>
    <use x="169.287109" xlink:href="#DejaVuSans-119"/>
    <use x="251.074219" xlink:href="#DejaVuSans-101"/>
    <use x="312.597656" xlink:href="#DejaVuSans-101"/>
    <use x="374.121094" xlink:href="#DejaVuSans-107"/>
    <use x="432.03125" xlink:href="#DejaVuSans-115"/>
    <use x="484.130859" xlink:href="#DejaVuSans-32"/>
    <use x="515.917969" xlink:href="#DejaVuSans-111"/>
    <use x="577.099609" xlink:href="#DejaVuSans-102"/>
    <use x="612.304688" xlink:href="#DejaVuSans-32"/>
    <use x="644.091797" xlink:href="#DejaVuSans-48"/>
    <use x="707.714844" xlink:href="#DejaVuSans-55"/>
    <use x="771.337891" xlink:href="#DejaVuSans-32"/>
    <use x="803.125" xlink:href="#DejaVuSans-65"/>
    <use x="871.533203" xlink:href="#DejaVuSans-112"/>
    <use x="935.009766" xlink:href="#DejaVuSans-114"/>
    <use x="976.123047" xlink:href="#DejaVuSans-32"/>
    <use x="1007.910156" xlink:href="#DejaVuSans-116"/>
    <use x="1047.119141" xlink:href="#DejaVuSans-111"/>
    <use x="1108.300781" xlink:href="#DejaVuSans-32"/>
    <use x="1140.087891" xlink:href="#DejaVuSans-50"/>
    <use x="1203.710938" xlink:href="#DejaVuSans-52"/>
    <use x="1267.333984" xlink:href="#DejaVuSans-32"/>
    <use x="1299.121094" xlink:href="#DejaVuSans-78"/>
    <use x="1373.925781" xlink:href="#DejaVuSans-111"/>
    <use x="1435.107422" xlink:href="#DejaVuSans-118"/>
   </g>
  </g>
 </g>
 <defs>
  <clipPath id="pe904f7c2ee">
   <rect height="266.112" width="357.12" x="43.025125" y="39.370411"/>
  </clipPath>
 </defs>
</svg>
