<?xml version="1.0" encoding="utf-8" standalone="no"?>
<!DOCTYPE svg PUBLIC "-//W3C//DTD SVG 1.1//EN"
  "http://www.w3.org/Graphics/SVG/1.1/DTD/svg11.dtd">
<!-- Created with matplotlib (https://matplotlib.org/) -->
<svg height="326.149161pt" version="1.1" viewBox="0 0 411.44325 326.149161" width="411.44325pt" xmlns="http://www.w3.org/2000/svg" xmlns:xlink="http://www.w3.org/1999/xlink">
 <metadata>
  <rdf:RDF xmlns:cc="http://creativecommons.org/ns#" xmlns:dc="http://purl.org/dc/elements/1.1/" xmlns:rdf="http://www.w3.org/1999/02/22-rdf-syntax-ns#">
   <cc:Work>
    <dc:type rdf:resource="http://purl.org/dc/dcmitype/StillImage"/>
    <dc:date>2020-11-24T20:34:40.511741</dc:date>
    <dc:format>image/svg+xml</dc:format>
    <dc:creator>
     <cc:Agent>
      <dc:title>Matplotlib v3.3.3, https://matplotlib.org/</dc:title>
     </cc:Agent>
    </dc:creator>
   </cc:Work>
  </rdf:RDF>
 </metadata>
 <defs>
  <style type="text/css">*{stroke-linecap:butt;stroke-linejoin:round;}</style>
 </defs>
 <g id="figure_1">
  <g id="patch_1">
   <path d="M 0 326.149161 
L 411.44325 326.149161 
L 411.44325 0 
L 0 0 
z
" style="fill:#ffffff;stroke:#ffffff;stroke-linejoin:miter;"/>
  </g>
  <g id="axes_1">
   <g id="patch_2">
    <path d="M 43.025125 305.482411 
L 400.145125 305.482411 
L 400.145125 39.370411 
L 43.025125 39.370411 
z
" style="fill:none;"/>
   </g>
   <g id="matplotlib.axis_1">
    <g id="xtick_1">
     <g id="line2d_1">
      <path clip-path="url(#p6f4c8fc787)" d="M 50.561748 305.482411 
L 50.561748 39.370411 
" style="fill:none;stroke:#ffffff;"/>
     </g>
     <g id="text_1">
      <!-- Apr -->
      <g style="fill:#4d4d4d;" transform="translate(42.949748 317.119036)scale(0.088 -0.088)">
       <defs>
        <path d="M 34.1875 63.1875 
L 20.796875 26.90625 
L 47.609375 26.90625 
z
M 28.609375 72.90625 
L 39.796875 72.90625 
L 67.578125 0 
L 57.328125 0 
L 50.6875 18.703125 
L 17.828125 18.703125 
L 11.1875 0 
L 0.78125 0 
z
" id="DejaVuSans-65"/>
        <path d="M 18.109375 8.203125 
L 18.109375 -20.796875 
L 9.078125 -20.796875 
L 9.078125 54.6875 
L 18.109375 54.6875 
L 18.109375 46.390625 
Q 20.953125 51.265625 25.265625 53.625 
Q 29.59375 56 35.59375 56 
Q 45.5625 56 51.78125 48.09375 
Q 58.015625 40.1875 58.015625 27.296875 
Q 58.015625 14.40625 51.78125 6.484375 
Q 45.5625 -1.421875 35.59375 -1.421875 
Q 29.59375 -1.421875 25.265625 0.953125 
Q 20.953125 3.328125 18.109375 8.203125 
z
M 48.6875 27.296875 
Q 48.6875 37.203125 44.609375 42.84375 
Q 40.53125 48.484375 33.40625 48.484375 
Q 26.265625 48.484375 22.1875 42.84375 
Q 18.109375 37.203125 18.109375 27.296875 
Q 18.109375 17.390625 22.1875 11.75 
Q 26.265625 6.109375 33.40625 6.109375 
Q 40.53125 6.109375 44.609375 11.75 
Q 48.6875 17.390625 48.6875 27.296875 
z
" id="DejaVuSans-112"/>
        <path d="M 41.109375 46.296875 
Q 39.59375 47.171875 37.8125 47.578125 
Q 36.03125 48 33.890625 48 
Q 26.265625 48 22.1875 43.046875 
Q 18.109375 38.09375 18.109375 28.8125 
L 18.109375 0 
L 9.078125 0 
L 9.078125 54.6875 
L 18.109375 54.6875 
L 18.109375 46.1875 
Q 20.953125 51.171875 25.484375 53.578125 
Q 30.03125 56 36.53125 56 
Q 37.453125 56 38.578125 55.875 
Q 39.703125 55.765625 41.0625 55.515625 
z
" id="DejaVuSans-114"/>
       </defs>
       <use xlink:href="#DejaVuSans-65"/>
       <use x="68.408203" xlink:href="#DejaVuSans-112"/>
       <use x="131.884766" xlink:href="#DejaVuSans-114"/>
      </g>
     </g>
    </g>
    <g id="xtick_2">
     <g id="line2d_2">
      <path clip-path="url(#p6f4c8fc787)" d="M 94.042268 305.482411 
L 94.042268 39.370411 
" style="fill:none;stroke:#ffffff;"/>
     </g>
     <g id="text_2">
      <!-- May -->
      <g style="fill:#4d4d4d;" transform="translate(84.945268 317.119036)scale(0.088 -0.088)">
       <defs>
        <path d="M 9.8125 72.90625 
L 24.515625 72.90625 
L 43.109375 23.296875 
L 61.8125 72.90625 
L 76.515625 72.90625 
L 76.515625 0 
L 66.890625 0 
L 66.890625 64.015625 
L 48.09375 14.015625 
L 38.1875 14.015625 
L 19.390625 64.015625 
L 19.390625 0 
L 9.8125 0 
z
" id="DejaVuSans-77"/>
        <path d="M 34.28125 27.484375 
Q 23.390625 27.484375 19.1875 25 
Q 14.984375 22.515625 14.984375 16.5 
Q 14.984375 11.71875 18.140625 8.90625 
Q 21.296875 6.109375 26.703125 6.109375 
Q 34.1875 6.109375 38.703125 11.40625 
Q 43.21875 16.703125 43.21875 25.484375 
L 43.21875 27.484375 
z
M 52.203125 31.203125 
L 52.203125 0 
L 43.21875 0 
L 43.21875 8.296875 
Q 40.140625 3.328125 35.546875 0.953125 
Q 30.953125 -1.421875 24.3125 -1.421875 
Q 15.921875 -1.421875 10.953125 3.296875 
Q 6 8.015625 6 15.921875 
Q 6 25.140625 12.171875 29.828125 
Q 18.359375 34.515625 30.609375 34.515625 
L 43.21875 34.515625 
L 43.21875 35.40625 
Q 43.21875 41.609375 39.140625 45 
Q 35.0625 48.390625 27.6875 48.390625 
Q 23 48.390625 18.546875 47.265625 
Q 14.109375 46.140625 10.015625 43.890625 
L 10.015625 52.203125 
Q 14.9375 54.109375 19.578125 55.046875 
Q 24.21875 56 28.609375 56 
Q 40.484375 56 46.34375 49.84375 
Q 52.203125 43.703125 52.203125 31.203125 
z
" id="DejaVuSans-97"/>
        <path d="M 32.171875 -5.078125 
Q 28.375 -14.84375 24.75 -17.8125 
Q 21.140625 -20.796875 15.09375 -20.796875 
L 7.90625 -20.796875 
L 7.90625 -13.28125 
L 13.1875 -13.28125 
Q 16.890625 -13.28125 18.9375 -11.515625 
Q 21 -9.765625 23.484375 -3.21875 
L 25.09375 0.875 
L 2.984375 54.6875 
L 12.5 54.6875 
L 29.59375 11.921875 
L 46.6875 54.6875 
L 56.203125 54.6875 
z
" id="DejaVuSans-121"/>
       </defs>
       <use xlink:href="#DejaVuSans-77"/>
       <use x="86.279297" xlink:href="#DejaVuSans-97"/>
       <use x="147.558594" xlink:href="#DejaVuSans-121"/>
      </g>
     </g>
    </g>
    <g id="xtick_3">
     <g id="line2d_3">
      <path clip-path="url(#p6f4c8fc787)" d="M 138.972138 305.482411 
L 138.972138 39.370411 
" style="fill:none;stroke:#ffffff;"/>
     </g>
     <g id="text_3">
      <!-- Jun -->
      <g style="fill:#4d4d4d;" transform="translate(132.097138 317.119036)scale(0.088 -0.088)">
       <defs>
        <path d="M 9.8125 72.90625 
L 19.671875 72.90625 
L 19.671875 5.078125 
Q 19.671875 -8.109375 14.671875 -14.0625 
Q 9.671875 -20.015625 -1.421875 -20.015625 
L -5.171875 -20.015625 
L -5.171875 -11.71875 
L -2.09375 -11.71875 
Q 4.4375 -11.71875 7.125 -8.046875 
Q 9.8125 -4.390625 9.8125 5.078125 
z
" id="DejaVuSans-74"/>
        <path d="M 8.5 21.578125 
L 8.5 54.6875 
L 17.484375 54.6875 
L 17.484375 21.921875 
Q 17.484375 14.15625 20.5 10.265625 
Q 23.53125 6.390625 29.59375 6.390625 
Q 36.859375 6.390625 41.078125 11.03125 
Q 45.3125 15.671875 45.3125 23.6875 
L 45.3125 54.6875 
L 54.296875 54.6875 
L 54.296875 0 
L 45.3125 0 
L 45.3125 8.40625 
Q 42.046875 3.421875 37.71875 1 
Q 33.40625 -1.421875 27.6875 -1.421875 
Q 18.265625 -1.421875 13.375 4.4375 
Q 8.5 10.296875 8.5 21.578125 
z
M 31.109375 56 
z
" id="DejaVuSans-117"/>
        <path d="M 54.890625 33.015625 
L 54.890625 0 
L 45.90625 0 
L 45.90625 32.71875 
Q 45.90625 40.484375 42.875 44.328125 
Q 39.84375 48.1875 33.796875 48.1875 
Q 26.515625 48.1875 22.3125 43.546875 
Q 18.109375 38.921875 18.109375 30.90625 
L 18.109375 0 
L 9.078125 0 
L 9.078125 54.6875 
L 18.109375 54.6875 
L 18.109375 46.1875 
Q 21.34375 51.125 25.703125 53.5625 
Q 30.078125 56 35.796875 56 
Q 45.21875 56 50.046875 50.171875 
Q 54.890625 44.34375 54.890625 33.015625 
z
" id="DejaVuSans-110"/>
       </defs>
       <use xlink:href="#DejaVuSans-74"/>
       <use x="29.492188" xlink:href="#DejaVuSans-117"/>
       <use x="92.871094" xlink:href="#DejaVuSans-110"/>
      </g>
     </g>
    </g>
    <g id="xtick_4">
     <g id="line2d_4">
      <path clip-path="url(#p6f4c8fc787)" d="M 182.452657 305.482411 
L 182.452657 39.370411 
" style="fill:none;stroke:#ffffff;"/>
     </g>
     <g id="text_4">
      <!-- Jul -->
      <g style="fill:#4d4d4d;" transform="translate(177.143782 317.119036)scale(0.088 -0.088)">
       <defs>
        <path d="M 9.421875 75.984375 
L 18.40625 75.984375 
L 18.40625 0 
L 9.421875 0 
z
" id="DejaVuSans-108"/>
       </defs>
       <use xlink:href="#DejaVuSans-74"/>
       <use x="29.492188" xlink:href="#DejaVuSans-117"/>
       <use x="92.871094" xlink:href="#DejaVuSans-108"/>
      </g>
     </g>
    </g>
    <g id="xtick_5">
     <g id="line2d_5">
      <path clip-path="url(#p6f4c8fc787)" d="M 227.382528 305.482411 
L 227.382528 39.370411 
" style="fill:none;stroke:#ffffff;"/>
     </g>
     <g id="text_5">
      <!-- Aug -->
      <g style="fill:#4d4d4d;" transform="translate(218.79084 317.119036)scale(0.088 -0.088)">
       <defs>
        <path d="M 45.40625 27.984375 
Q 45.40625 37.75 41.375 43.109375 
Q 37.359375 48.484375 30.078125 48.484375 
Q 22.859375 48.484375 18.828125 43.109375 
Q 14.796875 37.75 14.796875 27.984375 
Q 14.796875 18.265625 18.828125 12.890625 
Q 22.859375 7.515625 30.078125 7.515625 
Q 37.359375 7.515625 41.375 12.890625 
Q 45.40625 18.265625 45.40625 27.984375 
z
M 54.390625 6.78125 
Q 54.390625 -7.171875 48.1875 -13.984375 
Q 42 -20.796875 29.203125 -20.796875 
Q 24.46875 -20.796875 20.265625 -20.09375 
Q 16.0625 -19.390625 12.109375 -17.921875 
L 12.109375 -9.1875 
Q 16.0625 -11.328125 19.921875 -12.34375 
Q 23.78125 -13.375 27.78125 -13.375 
Q 36.625 -13.375 41.015625 -8.765625 
Q 45.40625 -4.15625 45.40625 5.171875 
L 45.40625 9.625 
Q 42.625 4.78125 38.28125 2.390625 
Q 33.9375 0 27.875 0 
Q 17.828125 0 11.671875 7.65625 
Q 5.515625 15.328125 5.515625 27.984375 
Q 5.515625 40.671875 11.671875 48.328125 
Q 17.828125 56 27.875 56 
Q 33.9375 56 38.28125 53.609375 
Q 42.625 51.21875 45.40625 46.390625 
L 45.40625 54.6875 
L 54.390625 54.6875 
z
" id="DejaVuSans-103"/>
       </defs>
       <use xlink:href="#DejaVuSans-65"/>
       <use x="68.408203" xlink:href="#DejaVuSans-117"/>
       <use x="131.787109" xlink:href="#DejaVuSans-103"/>
      </g>
     </g>
    </g>
    <g id="xtick_6">
     <g id="line2d_6">
      <path clip-path="url(#p6f4c8fc787)" d="M 272.312398 305.482411 
L 272.312398 39.370411 
" style="fill:none;stroke:#ffffff;"/>
     </g>
     <g id="text_6">
      <!-- Sep -->
      <g style="fill:#4d4d4d;" transform="translate(264.018398 317.119036)scale(0.088 -0.088)">
       <defs>
        <path d="M 53.515625 70.515625 
L 53.515625 60.890625 
Q 47.90625 63.578125 42.921875 64.890625 
Q 37.9375 66.21875 33.296875 66.21875 
Q 25.25 66.21875 20.875 63.09375 
Q 16.5 59.96875 16.5 54.203125 
Q 16.5 49.359375 19.40625 46.890625 
Q 22.3125 44.4375 30.421875 42.921875 
L 36.375 41.703125 
Q 47.40625 39.59375 52.65625 34.296875 
Q 57.90625 29 57.90625 20.125 
Q 57.90625 9.515625 50.796875 4.046875 
Q 43.703125 -1.421875 29.984375 -1.421875 
Q 24.8125 -1.421875 18.96875 -0.25 
Q 13.140625 0.921875 6.890625 3.21875 
L 6.890625 13.375 
Q 12.890625 10.015625 18.65625 8.296875 
Q 24.421875 6.59375 29.984375 6.59375 
Q 38.421875 6.59375 43.015625 9.90625 
Q 47.609375 13.234375 47.609375 19.390625 
Q 47.609375 24.75 44.3125 27.78125 
Q 41.015625 30.8125 33.5 32.328125 
L 27.484375 33.5 
Q 16.453125 35.6875 11.515625 40.375 
Q 6.59375 45.0625 6.59375 53.421875 
Q 6.59375 63.09375 13.40625 68.65625 
Q 20.21875 74.21875 32.171875 74.21875 
Q 37.3125 74.21875 42.625 73.28125 
Q 47.953125 72.359375 53.515625 70.515625 
z
" id="DejaVuSans-83"/>
        <path d="M 56.203125 29.59375 
L 56.203125 25.203125 
L 14.890625 25.203125 
Q 15.484375 15.921875 20.484375 11.0625 
Q 25.484375 6.203125 34.421875 6.203125 
Q 39.59375 6.203125 44.453125 7.46875 
Q 49.3125 8.734375 54.109375 11.28125 
L 54.109375 2.78125 
Q 49.265625 0.734375 44.1875 -0.34375 
Q 39.109375 -1.421875 33.890625 -1.421875 
Q 20.796875 -1.421875 13.15625 6.1875 
Q 5.515625 13.8125 5.515625 26.8125 
Q 5.515625 40.234375 12.765625 48.109375 
Q 20.015625 56 32.328125 56 
Q 43.359375 56 49.78125 48.890625 
Q 56.203125 41.796875 56.203125 29.59375 
z
M 47.21875 32.234375 
Q 47.125 39.59375 43.09375 43.984375 
Q 39.0625 48.390625 32.421875 48.390625 
Q 24.90625 48.390625 20.390625 44.140625 
Q 15.875 39.890625 15.1875 32.171875 
z
" id="DejaVuSans-101"/>
       </defs>
       <use xlink:href="#DejaVuSans-83"/>
       <use x="63.476562" xlink:href="#DejaVuSans-101"/>
       <use x="125" xlink:href="#DejaVuSans-112"/>
      </g>
     </g>
    </g>
    <g id="xtick_7">
     <g id="line2d_7">
      <path clip-path="url(#p6f4c8fc787)" d="M 315.792917 305.482411 
L 315.792917 39.370411 
" style="fill:none;stroke:#ffffff;"/>
     </g>
     <g id="text_7">
      <!-- Oct -->
      <g style="fill:#4d4d4d;" transform="translate(308.185042 317.119036)scale(0.088 -0.088)">
       <defs>
        <path d="M 39.40625 66.21875 
Q 28.65625 66.21875 22.328125 58.203125 
Q 16.015625 50.203125 16.015625 36.375 
Q 16.015625 22.609375 22.328125 14.59375 
Q 28.65625 6.59375 39.40625 6.59375 
Q 50.140625 6.59375 56.421875 14.59375 
Q 62.703125 22.609375 62.703125 36.375 
Q 62.703125 50.203125 56.421875 58.203125 
Q 50.140625 66.21875 39.40625 66.21875 
z
M 39.40625 74.21875 
Q 54.734375 74.21875 63.90625 63.9375 
Q 73.09375 53.65625 73.09375 36.375 
Q 73.09375 19.140625 63.90625 8.859375 
Q 54.734375 -1.421875 39.40625 -1.421875 
Q 24.03125 -1.421875 14.8125 8.828125 
Q 5.609375 19.09375 5.609375 36.375 
Q 5.609375 53.65625 14.8125 63.9375 
Q 24.03125 74.21875 39.40625 74.21875 
z
" id="DejaVuSans-79"/>
        <path d="M 48.78125 52.59375 
L 48.78125 44.1875 
Q 44.96875 46.296875 41.140625 47.34375 
Q 37.3125 48.390625 33.40625 48.390625 
Q 24.65625 48.390625 19.8125 42.84375 
Q 14.984375 37.3125 14.984375 27.296875 
Q 14.984375 17.28125 19.8125 11.734375 
Q 24.65625 6.203125 33.40625 6.203125 
Q 37.3125 6.203125 41.140625 7.25 
Q 44.96875 8.296875 48.78125 10.40625 
L 48.78125 2.09375 
Q 45.015625 0.34375 40.984375 -0.53125 
Q 36.96875 -1.421875 32.421875 -1.421875 
Q 20.0625 -1.421875 12.78125 6.34375 
Q 5.515625 14.109375 5.515625 27.296875 
Q 5.515625 40.671875 12.859375 48.328125 
Q 20.21875 56 33.015625 56 
Q 37.15625 56 41.109375 55.140625 
Q 45.0625 54.296875 48.78125 52.59375 
z
" id="DejaVuSans-99"/>
        <path d="M 18.3125 70.21875 
L 18.3125 54.6875 
L 36.8125 54.6875 
L 36.8125 47.703125 
L 18.3125 47.703125 
L 18.3125 18.015625 
Q 18.3125 11.328125 20.140625 9.421875 
Q 21.96875 7.515625 27.59375 7.515625 
L 36.8125 7.515625 
L 36.8125 0 
L 27.59375 0 
Q 17.1875 0 13.234375 3.875 
Q 9.28125 7.765625 9.28125 18.015625 
L 9.28125 47.703125 
L 2.6875 47.703125 
L 2.6875 54.6875 
L 9.28125 54.6875 
L 9.28125 70.21875 
z
" id="DejaVuSans-116"/>
       </defs>
       <use xlink:href="#DejaVuSans-79"/>
       <use x="78.710938" xlink:href="#DejaVuSans-99"/>
       <use x="133.691406" xlink:href="#DejaVuSans-116"/>
      </g>
     </g>
    </g>
    <g id="xtick_8">
     <g id="line2d_8">
      <path clip-path="url(#p6f4c8fc787)" d="M 360.722787 305.482411 
L 360.722787 39.370411 
" style="fill:none;stroke:#ffffff;"/>
     </g>
     <g id="text_8">
      <!-- Nov -->
      <g style="fill:#4d4d4d;" transform="translate(352.134537 317.119036)scale(0.088 -0.088)">
       <defs>
        <path d="M 9.8125 72.90625 
L 23.09375 72.90625 
L 55.421875 11.921875 
L 55.421875 72.90625 
L 64.984375 72.90625 
L 64.984375 0 
L 51.703125 0 
L 19.390625 60.984375 
L 19.390625 0 
L 9.8125 0 
z
" id="DejaVuSans-78"/>
        <path d="M 30.609375 48.390625 
Q 23.390625 48.390625 19.1875 42.75 
Q 14.984375 37.109375 14.984375 27.296875 
Q 14.984375 17.484375 19.15625 11.84375 
Q 23.34375 6.203125 30.609375 6.203125 
Q 37.796875 6.203125 41.984375 11.859375 
Q 46.1875 17.53125 46.1875 27.296875 
Q 46.1875 37.015625 41.984375 42.703125 
Q 37.796875 48.390625 30.609375 48.390625 
z
M 30.609375 56 
Q 42.328125 56 49.015625 48.375 
Q 55.71875 40.765625 55.71875 27.296875 
Q 55.71875 13.875 49.015625 6.21875 
Q 42.328125 -1.421875 30.609375 -1.421875 
Q 18.84375 -1.421875 12.171875 6.21875 
Q 5.515625 13.875 5.515625 27.296875 
Q 5.515625 40.765625 12.171875 48.375 
Q 18.84375 56 30.609375 56 
z
" id="DejaVuSans-111"/>
        <path d="M 2.984375 54.6875 
L 12.5 54.6875 
L 29.59375 8.796875 
L 46.6875 54.6875 
L 56.203125 54.6875 
L 35.6875 0 
L 23.484375 0 
z
" id="DejaVuSans-118"/>
       </defs>
       <use xlink:href="#DejaVuSans-78"/>
       <use x="74.804688" xlink:href="#DejaVuSans-111"/>
       <use x="135.986328" xlink:href="#DejaVuSans-118"/>
      </g>
     </g>
    </g>
    <g id="xtick_9">
     <g id="line2d_9">
      <path clip-path="url(#p6f4c8fc787)" d="M 72.302008 305.482411 
L 72.302008 39.370411 
" style="fill:none;stroke:#ffffff;stroke-width:0.5;"/>
     </g>
    </g>
    <g id="xtick_10">
     <g id="line2d_10">
      <path clip-path="url(#p6f4c8fc787)" d="M 116.507203 305.482411 
L 116.507203 39.370411 
" style="fill:none;stroke:#ffffff;stroke-width:0.5;"/>
     </g>
    </g>
    <g id="xtick_11">
     <g id="line2d_11">
      <path clip-path="url(#p6f4c8fc787)" d="M 160.712398 305.482411 
L 160.712398 39.370411 
" style="fill:none;stroke:#ffffff;stroke-width:0.5;"/>
     </g>
    </g>
    <g id="xtick_12">
     <g id="line2d_12">
      <path clip-path="url(#p6f4c8fc787)" d="M 204.917593 305.482411 
L 204.917593 39.370411 
" style="fill:none;stroke:#ffffff;stroke-width:0.5;"/>
     </g>
    </g>
    <g id="xtick_13">
     <g id="line2d_13">
      <path clip-path="url(#p6f4c8fc787)" d="M 249.847463 305.482411 
L 249.847463 39.370411 
" style="fill:none;stroke:#ffffff;stroke-width:0.5;"/>
     </g>
    </g>
    <g id="xtick_14">
     <g id="line2d_14">
      <path clip-path="url(#p6f4c8fc787)" d="M 294.052657 305.482411 
L 294.052657 39.370411 
" style="fill:none;stroke:#ffffff;stroke-width:0.5;"/>
     </g>
    </g>
    <g id="xtick_15">
     <g id="line2d_15">
      <path clip-path="url(#p6f4c8fc787)" d="M 338.257852 305.482411 
L 338.257852 39.370411 
" style="fill:none;stroke:#ffffff;stroke-width:0.5;"/>
     </g>
    </g>
   </g>
   <g id="matplotlib.axis_2">
    <g id="ytick_1">
     <g id="line2d_16">
      <path clip-path="url(#p6f4c8fc787)" d="M 43.025125 293.386411 
L 400.145125 293.386411 
" style="fill:none;stroke:#ffffff;"/>
     </g>
     <g id="line2d_17">
      <path d="M 43.025125 293.386411 
" style="fill:none;stroke:#333333;stroke-width:1.5;"/>
      <defs>
       <path d="M 0 0 
L -2.75 0 
" id="mc9beaaf385" style="stroke:#000000;"/>
      </defs>
      <g>
       <use style="fill:#333333;stroke:#000000;" x="43.025125" xlink:href="#mc9beaaf385" y="293.386411"/>
      </g>
     </g>
     <g id="text_9">
      <!-- 0 -->
      <g style="fill:#00008b;" transform="translate(32.476125 295.814661)scale(0.088 -0.088)">
       <defs>
        <path d="M 31.78125 66.40625 
Q 24.171875 66.40625 20.328125 58.90625 
Q 16.5 51.421875 16.5 36.375 
Q 16.5 21.390625 20.328125 13.890625 
Q 24.171875 6.390625 31.78125 6.390625 
Q 39.453125 6.390625 43.28125 13.890625 
Q 47.125 21.390625 47.125 36.375 
Q 47.125 51.421875 43.28125 58.90625 
Q 39.453125 66.40625 31.78125 66.40625 
z
M 31.78125 74.21875 
Q 44.046875 74.21875 50.515625 64.515625 
Q 56.984375 54.828125 56.984375 36.375 
Q 56.984375 17.96875 50.515625 8.265625 
Q 44.046875 -1.421875 31.78125 -1.421875 
Q 19.53125 -1.421875 13.0625 8.265625 
Q 6.59375 17.96875 6.59375 36.375 
Q 6.59375 54.828125 13.0625 64.515625 
Q 19.53125 74.21875 31.78125 74.21875 
z
" id="DejaVuSans-48"/>
       </defs>
       <use xlink:href="#DejaVuSans-48"/>
      </g>
     </g>
    </g>
    <g id="ytick_2">
     <g id="line2d_18">
      <path clip-path="url(#p6f4c8fc787)" d="M 43.025125 245.002411 
L 400.145125 245.002411 
" style="fill:none;stroke:#ffffff;"/>
     </g>
     <g id="line2d_19">
      <path d="M 43.025125 245.002411 
" style="fill:none;stroke:#333333;stroke-width:1.5;"/>
      <g>
       <use style="fill:#333333;stroke:#000000;" x="43.025125" xlink:href="#mc9beaaf385" y="245.002411"/>
      </g>
     </g>
     <g id="text_10">
      <!-- 100 -->
      <g style="fill:#00008b;" transform="translate(21.278125 247.430661)scale(0.088 -0.088)">
       <defs>
        <path d="M 12.40625 8.296875 
L 28.515625 8.296875 
L 28.515625 63.921875 
L 10.984375 60.40625 
L 10.984375 69.390625 
L 28.421875 72.90625 
L 38.28125 72.90625 
L 38.28125 8.296875 
L 54.390625 8.296875 
L 54.390625 0 
L 12.40625 0 
z
" id="DejaVuSans-49"/>
       </defs>
       <use xlink:href="#DejaVuSans-49"/>
       <use x="63.623047" xlink:href="#DejaVuSans-48"/>
       <use x="127.246094" xlink:href="#DejaVuSans-48"/>
      </g>
     </g>
    </g>
    <g id="ytick_3">
     <g id="line2d_20">
      <path clip-path="url(#p6f4c8fc787)" d="M 43.025125 196.618411 
L 400.145125 196.618411 
" style="fill:none;stroke:#ffffff;"/>
     </g>
     <g id="line2d_21">
      <path d="M 43.025125 196.618411 
" style="fill:none;stroke:#333333;stroke-width:1.5;"/>
      <g>
       <use style="fill:#333333;stroke:#000000;" x="43.025125" xlink:href="#mc9beaaf385" y="196.618411"/>
      </g>
     </g>
     <g id="text_11">
      <!-- 200 -->
      <g style="fill:#00008b;" transform="translate(21.278125 199.046661)scale(0.088 -0.088)">
       <defs>
        <path d="M 19.1875 8.296875 
L 53.609375 8.296875 
L 53.609375 0 
L 7.328125 0 
L 7.328125 8.296875 
Q 12.9375 14.109375 22.625 23.890625 
Q 32.328125 33.6875 34.8125 36.53125 
Q 39.546875 41.84375 41.421875 45.53125 
Q 43.3125 49.21875 43.3125 52.78125 
Q 43.3125 58.59375 39.234375 62.25 
Q 35.15625 65.921875 28.609375 65.921875 
Q 23.96875 65.921875 18.8125 64.3125 
Q 13.671875 62.703125 7.8125 59.421875 
L 7.8125 69.390625 
Q 13.765625 71.78125 18.9375 73 
Q 24.125 74.21875 28.421875 74.21875 
Q 39.75 74.21875 46.484375 68.546875 
Q 53.21875 62.890625 53.21875 53.421875 
Q 53.21875 48.921875 51.53125 44.890625 
Q 49.859375 40.875 45.40625 35.40625 
Q 44.1875 33.984375 37.640625 27.21875 
Q 31.109375 20.453125 19.1875 8.296875 
z
" id="DejaVuSans-50"/>
       </defs>
       <use xlink:href="#DejaVuSans-50"/>
       <use x="63.623047" xlink:href="#DejaVuSans-48"/>
       <use x="127.246094" xlink:href="#DejaVuSans-48"/>
      </g>
     </g>
    </g>
    <g id="ytick_4">
     <g id="line2d_22">
      <path clip-path="url(#p6f4c8fc787)" d="M 43.025125 148.234411 
L 400.145125 148.234411 
" style="fill:none;stroke:#ffffff;"/>
     </g>
     <g id="line2d_23">
      <path d="M 43.025125 148.234411 
" style="fill:none;stroke:#333333;stroke-width:1.5;"/>
      <g>
       <use style="fill:#333333;stroke:#000000;" x="43.025125" xlink:href="#mc9beaaf385" y="148.234411"/>
      </g>
     </g>
     <g id="text_12">
      <!-- 300 -->
      <g style="fill:#00008b;" transform="translate(21.278125 150.662661)scale(0.088 -0.088)">
       <defs>
        <path d="M 40.578125 39.3125 
Q 47.65625 37.796875 51.625 33 
Q 55.609375 28.21875 55.609375 21.1875 
Q 55.609375 10.40625 48.1875 4.484375 
Q 40.765625 -1.421875 27.09375 -1.421875 
Q 22.515625 -1.421875 17.65625 -0.515625 
Q 12.796875 0.390625 7.625 2.203125 
L 7.625 11.71875 
Q 11.71875 9.328125 16.59375 8.109375 
Q 21.484375 6.890625 26.8125 6.890625 
Q 36.078125 6.890625 40.9375 10.546875 
Q 45.796875 14.203125 45.796875 21.1875 
Q 45.796875 27.640625 41.28125 31.265625 
Q 36.765625 34.90625 28.71875 34.90625 
L 20.21875 34.90625 
L 20.21875 43.015625 
L 29.109375 43.015625 
Q 36.375 43.015625 40.234375 45.921875 
Q 44.09375 48.828125 44.09375 54.296875 
Q 44.09375 59.90625 40.109375 62.90625 
Q 36.140625 65.921875 28.71875 65.921875 
Q 24.65625 65.921875 20.015625 65.03125 
Q 15.375 64.15625 9.8125 62.3125 
L 9.8125 71.09375 
Q 15.4375 72.65625 20.34375 73.4375 
Q 25.25 74.21875 29.59375 74.21875 
Q 40.828125 74.21875 47.359375 69.109375 
Q 53.90625 64.015625 53.90625 55.328125 
Q 53.90625 49.265625 50.4375 45.09375 
Q 46.96875 40.921875 40.578125 39.3125 
z
" id="DejaVuSans-51"/>
       </defs>
       <use xlink:href="#DejaVuSans-51"/>
       <use x="63.623047" xlink:href="#DejaVuSans-48"/>
       <use x="127.246094" xlink:href="#DejaVuSans-48"/>
      </g>
     </g>
    </g>
    <g id="ytick_5">
     <g id="line2d_24">
      <path clip-path="url(#p6f4c8fc787)" d="M 43.025125 99.850411 
L 400.145125 99.850411 
" style="fill:none;stroke:#ffffff;"/>
     </g>
     <g id="line2d_25">
      <path d="M 43.025125 99.850411 
" style="fill:none;stroke:#333333;stroke-width:1.5;"/>
      <g>
       <use style="fill:#333333;stroke:#000000;" x="43.025125" xlink:href="#mc9beaaf385" y="99.850411"/>
      </g>
     </g>
     <g id="text_13">
      <!-- 400 -->
      <g style="fill:#00008b;" transform="translate(21.278125 102.278661)scale(0.088 -0.088)">
       <defs>
        <path d="M 37.796875 64.3125 
L 12.890625 25.390625 
L 37.796875 25.390625 
z
M 35.203125 72.90625 
L 47.609375 72.90625 
L 47.609375 25.390625 
L 58.015625 25.390625 
L 58.015625 17.1875 
L 47.609375 17.1875 
L 47.609375 0 
L 37.796875 0 
L 37.796875 17.1875 
L 4.890625 17.1875 
L 4.890625 26.703125 
z
" id="DejaVuSans-52"/>
       </defs>
       <use xlink:href="#DejaVuSans-52"/>
       <use x="63.623047" xlink:href="#DejaVuSans-48"/>
       <use x="127.246094" xlink:href="#DejaVuSans-48"/>
      </g>
     </g>
    </g>
    <g id="ytick_6">
     <g id="line2d_26">
      <path clip-path="url(#p6f4c8fc787)" d="M 43.025125 51.466411 
L 400.145125 51.466411 
" style="fill:none;stroke:#ffffff;"/>
     </g>
     <g id="line2d_27">
      <path d="M 43.025125 51.466411 
" style="fill:none;stroke:#333333;stroke-width:1.5;"/>
      <g>
       <use style="fill:#333333;stroke:#000000;" x="43.025125" xlink:href="#mc9beaaf385" y="51.466411"/>
      </g>
     </g>
     <g id="text_14">
      <!-- 500 -->
      <g style="fill:#00008b;" transform="translate(21.278125 53.894661)scale(0.088 -0.088)">
       <defs>
        <path d="M 10.796875 72.90625 
L 49.515625 72.90625 
L 49.515625 64.59375 
L 19.828125 64.59375 
L 19.828125 46.734375 
Q 21.96875 47.46875 24.109375 47.828125 
Q 26.265625 48.1875 28.421875 48.1875 
Q 40.625 48.1875 47.75 41.5 
Q 54.890625 34.8125 54.890625 23.390625 
Q 54.890625 11.625 47.5625 5.09375 
Q 40.234375 -1.421875 26.90625 -1.421875 
Q 22.3125 -1.421875 17.546875 -0.640625 
Q 12.796875 0.140625 7.71875 1.703125 
L 7.71875 11.625 
Q 12.109375 9.234375 16.796875 8.0625 
Q 21.484375 6.890625 26.703125 6.890625 
Q 35.15625 6.890625 40.078125 11.328125 
Q 45.015625 15.765625 45.015625 23.390625 
Q 45.015625 31 40.078125 35.4375 
Q 35.15625 39.890625 26.703125 39.890625 
Q 22.75 39.890625 18.8125 39.015625 
Q 14.890625 38.140625 10.796875 36.28125 
z
" id="DejaVuSans-53"/>
       </defs>
       <use xlink:href="#DejaVuSans-53"/>
       <use x="63.623047" xlink:href="#DejaVuSans-48"/>
       <use x="127.246094" xlink:href="#DejaVuSans-48"/>
      </g>
     </g>
    </g>
    <g id="ytick_7">
     <g id="line2d_28">
      <path clip-path="url(#p6f4c8fc787)" d="M 43.025125 269.194411 
L 400.145125 269.194411 
" style="fill:none;stroke:#ffffff;stroke-width:0.5;"/>
     </g>
    </g>
    <g id="ytick_8">
     <g id="line2d_29">
      <path clip-path="url(#p6f4c8fc787)" d="M 43.025125 220.810411 
L 400.145125 220.810411 
" style="fill:none;stroke:#ffffff;stroke-width:0.5;"/>
     </g>
    </g>
    <g id="ytick_9">
     <g id="line2d_30">
      <path clip-path="url(#p6f4c8fc787)" d="M 43.025125 172.426411 
L 400.145125 172.426411 
" style="fill:none;stroke:#ffffff;stroke-width:0.5;"/>
     </g>
    </g>
    <g id="ytick_10">
     <g id="line2d_31">
      <path clip-path="url(#p6f4c8fc787)" d="M 43.025125 124.042411 
L 400.145125 124.042411 
" style="fill:none;stroke:#ffffff;stroke-width:0.5;"/>
     </g>
    </g>
    <g id="ytick_11">
     <g id="line2d_32">
      <path clip-path="url(#p6f4c8fc787)" d="M 43.025125 75.658411 
L 400.145125 75.658411 
" style="fill:none;stroke:#ffffff;stroke-width:0.5;"/>
     </g>
    </g>
    <g id="text_15">
     <!-- Inmate Covid19 positive test result -->
     <g style="fill:#00008b;" transform="translate(14.798438 258.461692)rotate(-90)scale(0.1 -0.1)">
      <defs>
       <path d="M 9.8125 72.90625 
L 19.671875 72.90625 
L 19.671875 0 
L 9.8125 0 
z
" id="DejaVuSans-73"/>
       <path d="M 52 44.1875 
Q 55.375 50.25 60.0625 53.125 
Q 64.75 56 71.09375 56 
Q 79.640625 56 84.28125 50.015625 
Q 88.921875 44.046875 88.921875 33.015625 
L 88.921875 0 
L 79.890625 0 
L 79.890625 32.71875 
Q 79.890625 40.578125 77.09375 44.375 
Q 74.3125 48.1875 68.609375 48.1875 
Q 61.625 48.1875 57.5625 43.546875 
Q 53.515625 38.921875 53.515625 30.90625 
L 53.515625 0 
L 44.484375 0 
L 44.484375 32.71875 
Q 44.484375 40.625 41.703125 44.40625 
Q 38.921875 48.1875 33.109375 48.1875 
Q 26.21875 48.1875 22.15625 43.53125 
Q 18.109375 38.875 18.109375 30.90625 
L 18.109375 0 
L 9.078125 0 
L 9.078125 54.6875 
L 18.109375 54.6875 
L 18.109375 46.1875 
Q 21.1875 51.21875 25.484375 53.609375 
Q 29.78125 56 35.6875 56 
Q 41.65625 56 45.828125 52.96875 
Q 50 49.953125 52 44.1875 
z
" id="DejaVuSans-109"/>
       <path id="DejaVuSans-32"/>
       <path d="M 64.40625 67.28125 
L 64.40625 56.890625 
Q 59.421875 61.53125 53.78125 63.8125 
Q 48.140625 66.109375 41.796875 66.109375 
Q 29.296875 66.109375 22.65625 58.46875 
Q 16.015625 50.828125 16.015625 36.375 
Q 16.015625 21.96875 22.65625 14.328125 
Q 29.296875 6.6875 41.796875 6.6875 
Q 48.140625 6.6875 53.78125 8.984375 
Q 59.421875 11.28125 64.40625 15.921875 
L 64.40625 5.609375 
Q 59.234375 2.09375 53.4375 0.328125 
Q 47.65625 -1.421875 41.21875 -1.421875 
Q 24.65625 -1.421875 15.125 8.703125 
Q 5.609375 18.84375 5.609375 36.375 
Q 5.609375 53.953125 15.125 64.078125 
Q 24.65625 74.21875 41.21875 74.21875 
Q 47.75 74.21875 53.53125 72.484375 
Q 59.328125 70.75 64.40625 67.28125 
z
" id="DejaVuSans-67"/>
       <path d="M 9.421875 54.6875 
L 18.40625 54.6875 
L 18.40625 0 
L 9.421875 0 
z
M 9.421875 75.984375 
L 18.40625 75.984375 
L 18.40625 64.59375 
L 9.421875 64.59375 
z
" id="DejaVuSans-105"/>
       <path d="M 45.40625 46.390625 
L 45.40625 75.984375 
L 54.390625 75.984375 
L 54.390625 0 
L 45.40625 0 
L 45.40625 8.203125 
Q 42.578125 3.328125 38.25 0.953125 
Q 33.9375 -1.421875 27.875 -1.421875 
Q 17.96875 -1.421875 11.734375 6.484375 
Q 5.515625 14.40625 5.515625 27.296875 
Q 5.515625 40.1875 11.734375 48.09375 
Q 17.96875 56 27.875 56 
Q 33.9375 56 38.25 53.625 
Q 42.578125 51.265625 45.40625 46.390625 
z
M 14.796875 27.296875 
Q 14.796875 17.390625 18.875 11.75 
Q 22.953125 6.109375 30.078125 6.109375 
Q 37.203125 6.109375 41.296875 11.75 
Q 45.40625 17.390625 45.40625 27.296875 
Q 45.40625 37.203125 41.296875 42.84375 
Q 37.203125 48.484375 30.078125 48.484375 
Q 22.953125 48.484375 18.875 42.84375 
Q 14.796875 37.203125 14.796875 27.296875 
z
" id="DejaVuSans-100"/>
       <path d="M 10.984375 1.515625 
L 10.984375 10.5 
Q 14.703125 8.734375 18.5 7.8125 
Q 22.3125 6.890625 25.984375 6.890625 
Q 35.75 6.890625 40.890625 13.453125 
Q 46.046875 20.015625 46.78125 33.40625 
Q 43.953125 29.203125 39.59375 26.953125 
Q 35.25 24.703125 29.984375 24.703125 
Q 19.046875 24.703125 12.671875 31.3125 
Q 6.296875 37.9375 6.296875 49.421875 
Q 6.296875 60.640625 12.9375 67.421875 
Q 19.578125 74.21875 30.609375 74.21875 
Q 43.265625 74.21875 49.921875 64.515625 
Q 56.59375 54.828125 56.59375 36.375 
Q 56.59375 19.140625 48.40625 8.859375 
Q 40.234375 -1.421875 26.421875 -1.421875 
Q 22.703125 -1.421875 18.890625 -0.6875 
Q 15.09375 0.046875 10.984375 1.515625 
z
M 30.609375 32.421875 
Q 37.25 32.421875 41.125 36.953125 
Q 45.015625 41.5 45.015625 49.421875 
Q 45.015625 57.28125 41.125 61.84375 
Q 37.25 66.40625 30.609375 66.40625 
Q 23.96875 66.40625 20.09375 61.84375 
Q 16.21875 57.28125 16.21875 49.421875 
Q 16.21875 41.5 20.09375 36.953125 
Q 23.96875 32.421875 30.609375 32.421875 
z
" id="DejaVuSans-57"/>
       <path d="M 44.28125 53.078125 
L 44.28125 44.578125 
Q 40.484375 46.53125 36.375 47.5 
Q 32.28125 48.484375 27.875 48.484375 
Q 21.1875 48.484375 17.84375 46.4375 
Q 14.5 44.390625 14.5 40.28125 
Q 14.5 37.15625 16.890625 35.375 
Q 19.28125 33.59375 26.515625 31.984375 
L 29.59375 31.296875 
Q 39.15625 29.25 43.1875 25.515625 
Q 47.21875 21.78125 47.21875 15.09375 
Q 47.21875 7.46875 41.1875 3.015625 
Q 35.15625 -1.421875 24.609375 -1.421875 
Q 20.21875 -1.421875 15.453125 -0.5625 
Q 10.6875 0.296875 5.421875 2 
L 5.421875 11.28125 
Q 10.40625 8.6875 15.234375 7.390625 
Q 20.0625 6.109375 24.8125 6.109375 
Q 31.15625 6.109375 34.5625 8.28125 
Q 37.984375 10.453125 37.984375 14.40625 
Q 37.984375 18.0625 35.515625 20.015625 
Q 33.0625 21.96875 24.703125 23.78125 
L 21.578125 24.515625 
Q 13.234375 26.265625 9.515625 29.90625 
Q 5.8125 33.546875 5.8125 39.890625 
Q 5.8125 47.609375 11.28125 51.796875 
Q 16.75 56 26.8125 56 
Q 31.78125 56 36.171875 55.265625 
Q 40.578125 54.546875 44.28125 53.078125 
z
" id="DejaVuSans-115"/>
      </defs>
      <use xlink:href="#DejaVuSans-73"/>
      <use x="29.492188" xlink:href="#DejaVuSans-110"/>
      <use x="92.871094" xlink:href="#DejaVuSans-109"/>
      <use x="190.283203" xlink:href="#DejaVuSans-97"/>
      <use x="251.5625" xlink:href="#DejaVuSans-116"/>
      <use x="290.771484" xlink:href="#DejaVuSans-101"/>
      <use x="352.294922" xlink:href="#DejaVuSans-32"/>
      <use x="384.082031" xlink:href="#DejaVuSans-67"/>
      <use x="453.90625" xlink:href="#DejaVuSans-111"/>
      <use x="515.087891" xlink:href="#DejaVuSans-118"/>
      <use x="574.267578" xlink:href="#DejaVuSans-105"/>
      <use x="602.050781" xlink:href="#DejaVuSans-100"/>
      <use x="665.527344" xlink:href="#DejaVuSans-49"/>
      <use x="729.150391" xlink:href="#DejaVuSans-57"/>
      <use x="792.773438" xlink:href="#DejaVuSans-32"/>
      <use x="824.560547" xlink:href="#DejaVuSans-112"/>
      <use x="888.037109" xlink:href="#DejaVuSans-111"/>
      <use x="949.21875" xlink:href="#DejaVuSans-115"/>
      <use x="1001.318359" xlink:href="#DejaVuSans-105"/>
      <use x="1029.101562" xlink:href="#DejaVuSans-116"/>
      <use x="1068.310547" xlink:href="#DejaVuSans-105"/>
      <use x="1096.09375" xlink:href="#DejaVuSans-118"/>
      <use x="1155.273438" xlink:href="#DejaVuSans-101"/>
      <use x="1216.796875" xlink:href="#DejaVuSans-32"/>
      <use x="1248.583984" xlink:href="#DejaVuSans-116"/>
      <use x="1287.792969" xlink:href="#DejaVuSans-101"/>
      <use x="1349.316406" xlink:href="#DejaVuSans-115"/>
      <use x="1401.416016" xlink:href="#DejaVuSans-116"/>
      <use x="1440.625" xlink:href="#DejaVuSans-32"/>
      <use x="1472.412109" xlink:href="#DejaVuSans-114"/>
      <use x="1511.275391" xlink:href="#DejaVuSans-101"/>
      <use x="1572.798828" xlink:href="#DejaVuSans-115"/>
      <use x="1624.898438" xlink:href="#DejaVuSans-117"/>
      <use x="1688.277344" xlink:href="#DejaVuSans-108"/>
      <use x="1716.060547" xlink:href="#DejaVuSans-116"/>
     </g>
    </g>
   </g>
   <g id="PathCollection_1">
    <path clip-path="url(#p6f4c8fc787)" d="M 59.257852 290.926484 
C 59.375367 290.926484 59.488085 290.879795 59.571181 290.796699 
C 59.654277 290.713604 59.700966 290.600886 59.700966 290.483371 
C 59.700966 290.365856 59.654277 290.253138 59.571181 290.170042 
C 59.488085 290.086947 59.375367 290.040257 59.257852 290.040257 
C 59.140337 290.040257 59.027619 290.086947 58.944524 290.170042 
C 58.861428 290.253138 58.814739 290.365856 58.814739 290.483371 
C 58.814739 290.600886 58.861428 290.713604 58.944524 290.796699 
C 59.027619 290.879795 59.140337 290.926484 59.257852 290.926484 
z
" style="fill:#ffffff;stroke:#ffffff;stroke-width:0.886227;"/>
    <path clip-path="url(#p6f4c8fc787)" d="M 69.403307 293.829524 
C 69.520822 293.829524 69.63354 293.782835 69.716635 293.699739 
C 69.799731 293.616644 69.84642 293.503926 69.84642 293.386411 
C 69.84642 293.268896 69.799731 293.156178 69.716635 293.073082 
C 69.63354 292.989987 69.520822 292.943297 69.403307 292.943297 
C 69.285792 292.943297 69.173074 292.989987 69.089978 293.073082 
C 69.006883 293.156178 68.960193 293.268896 68.960193 293.386411 
C 68.960193 293.503926 69.006883 293.616644 69.089978 293.699739 
C 69.173074 293.782835 69.285792 293.829524 69.403307 293.829524 
z
" style="fill:#ffffff;stroke:#ffffff;stroke-width:0.886227;"/>
    <path clip-path="url(#p6f4c8fc787)" d="M 79.548761 293.829524 
C 79.666276 293.829524 79.778994 293.782835 79.86209 293.699739 
C 79.945186 293.616644 79.991875 293.503926 79.991875 293.386411 
C 79.991875 293.268896 79.945186 293.156178 79.86209 293.073082 
C 79.778994 292.989987 79.666276 292.943297 79.548761 292.943297 
C 79.431246 292.943297 79.318529 292.989987 79.235433 293.073082 
C 79.152337 293.156178 79.105648 293.268896 79.105648 293.386411 
C 79.105648 293.503926 79.152337 293.616644 79.235433 293.699739 
C 79.318529 293.782835 79.431246 293.829524 79.548761 293.829524 
z
" style="fill:#ffffff;stroke:#ffffff;stroke-width:0.886227;"/>
    <path clip-path="url(#p6f4c8fc787)" d="M 89.694216 293.829524 
C 89.811731 293.829524 89.924449 293.782835 90.007544 293.699739 
C 90.09064 293.616644 90.137329 293.503926 90.137329 293.386411 
C 90.137329 293.268896 90.09064 293.156178 90.007544 293.073082 
C 89.924449 292.989987 89.811731 292.943297 89.694216 292.943297 
C 89.576701 292.943297 89.463983 292.989987 89.380887 293.073082 
C 89.297792 293.156178 89.251102 293.268896 89.251102 293.386411 
C 89.251102 293.503926 89.297792 293.616644 89.380887 293.699739 
C 89.463983 293.782835 89.576701 293.829524 89.694216 293.829524 
z
" style="fill:#ffffff;stroke:#ffffff;stroke-width:0.886227;"/>
    <path clip-path="url(#p6f4c8fc787)" d="M 99.83967 242.542484 
C 99.957186 242.542484 100.069903 242.495795 100.152999 242.412699 
C 100.236095 242.329604 100.282784 242.216886 100.282784 242.099371 
C 100.282784 241.981856 100.236095 241.869138 100.152999 241.786042 
C 100.069903 241.702947 99.957186 241.656257 99.83967 241.656257 
C 99.722155 241.656257 99.609438 241.702947 99.526342 241.786042 
C 99.443246 241.869138 99.396557 241.981856 99.396557 242.099371 
C 99.396557 242.216886 99.443246 242.329604 99.526342 242.412699 
C 99.609438 242.495795 99.722155 242.542484 99.83967 242.542484 
z
" style="fill:#ffffff;stroke:#ffffff;stroke-width:0.886227;"/>
    <path clip-path="url(#p6f4c8fc787)" d="M 109.985125 289.474964 
C 110.10264 289.474964 110.215358 289.428275 110.298454 289.345179 
C 110.381549 289.262084 110.428238 289.149366 110.428238 289.031851 
C 110.428238 288.914336 110.381549 288.801618 110.298454 288.718522 
C 110.215358 288.635427 110.10264 288.588737 109.985125 288.588737 
C 109.86761 288.588737 109.754892 288.635427 109.671796 288.718522 
C 109.588701 288.801618 109.542012 288.914336 109.542012 289.031851 
C 109.542012 289.149366 109.588701 289.262084 109.671796 289.345179 
C 109.754892 289.428275 109.86761 289.474964 109.985125 289.474964 
z
" style="fill:#ffffff;stroke:#ffffff;stroke-width:0.886227;"/>
    <path clip-path="url(#p6f4c8fc787)" d="M 120.13058 285.120404 
C 120.248095 285.120404 120.360812 285.073715 120.443908 284.990619 
C 120.527004 284.907524 120.573693 284.794806 120.573693 284.677291 
C 120.573693 284.559776 120.527004 284.447058 120.443908 284.363962 
C 120.360812 284.280867 120.248095 284.234177 120.13058 284.234177 
C 120.013064 284.234177 119.900347 284.280867 119.817251 284.363962 
C 119.734155 284.447058 119.687466 284.559776 119.687466 284.677291 
C 119.687466 284.794806 119.734155 284.907524 119.817251 284.990619 
C 119.900347 285.073715 120.013064 285.120404 120.13058 285.120404 
z
" style="fill:#ffffff;stroke:#ffffff;stroke-width:0.886227;"/>
    <path clip-path="url(#p6f4c8fc787)" d="M 130.276034 288.991124 
C 130.393549 288.991124 130.506267 288.944435 130.589363 288.861339 
C 130.672458 288.778244 130.719148 288.665526 130.719148 288.548011 
C 130.719148 288.430496 130.672458 288.317778 130.589363 288.234682 
C 130.506267 288.151587 130.393549 288.104897 130.276034 288.104897 
C 130.158519 288.104897 130.045801 288.151587 129.962706 288.234682 
C 129.87961 288.317778 129.832921 288.430496 129.832921 288.548011 
C 129.832921 288.665526 129.87961 288.778244 129.962706 288.861339 
C 130.045801 288.944435 130.158519 288.991124 130.276034 288.991124 
z
" style="fill:#ffffff;stroke:#ffffff;stroke-width:0.886227;"/>
    <path clip-path="url(#p6f4c8fc787)" d="M 140.421489 291.894164 
C 140.539004 291.894164 140.651721 291.847475 140.734817 291.764379 
C 140.817913 291.681284 140.864602 291.568566 140.864602 291.451051 
C 140.864602 291.333536 140.817913 291.220818 140.734817 291.137722 
C 140.651721 291.054627 140.539004 291.007937 140.421489 291.007937 
C 140.303974 291.007937 140.191256 291.054627 140.10816 291.137722 
C 140.025064 291.220818 139.978375 291.333536 139.978375 291.451051 
C 139.978375 291.568566 140.025064 291.681284 140.10816 291.764379 
C 140.191256 291.847475 140.303974 291.894164 140.421489 291.894164 
z
" style="fill:#ffffff;stroke:#ffffff;stroke-width:0.886227;"/>
    <path clip-path="url(#p6f4c8fc787)" d="M 150.566943 288.991124 
C 150.684458 288.991124 150.797176 288.944435 150.880272 288.861339 
C 150.963367 288.778244 151.010057 288.665526 151.010057 288.548011 
C 151.010057 288.430496 150.963367 288.317778 150.880272 288.234682 
C 150.797176 288.151587 150.684458 288.104897 150.566943 288.104897 
C 150.449428 288.104897 150.33671 288.151587 150.253615 288.234682 
C 150.170519 288.317778 150.12383 288.430496 150.12383 288.548011 
C 150.12383 288.665526 150.170519 288.778244 150.253615 288.861339 
C 150.33671 288.944435 150.449428 288.991124 150.566943 288.991124 
z
" style="fill:#ffffff;stroke:#ffffff;stroke-width:0.886227;"/>
    <path clip-path="url(#p6f4c8fc787)" d="M 160.712398 290.926484 
C 160.829913 290.926484 160.942631 290.879795 161.025726 290.796699 
C 161.108822 290.713604 161.155511 290.600886 161.155511 290.483371 
C 161.155511 290.365856 161.108822 290.253138 161.025726 290.170042 
C 160.942631 290.086947 160.829913 290.040257 160.712398 290.040257 
C 160.594883 290.040257 160.482165 290.086947 160.399069 290.170042 
C 160.315973 290.253138 160.269284 290.365856 160.269284 290.483371 
C 160.269284 290.600886 160.315973 290.713604 160.399069 290.796699 
C 160.482165 290.879795 160.594883 290.926484 160.712398 290.926484 
z
" style="fill:#ffffff;stroke:#ffffff;stroke-width:0.886227;"/>
    <path clip-path="url(#p6f4c8fc787)" d="M 170.857852 290.442644 
C 170.975367 290.442644 171.088085 290.395955 171.171181 290.312859 
C 171.254277 290.229764 171.300966 290.117046 171.300966 289.999531 
C 171.300966 289.882016 171.254277 289.769298 171.171181 289.686202 
C 171.088085 289.603107 170.975367 289.556417 170.857852 289.556417 
C 170.740337 289.556417 170.627619 289.603107 170.544524 289.686202 
C 170.461428 289.769298 170.414739 289.882016 170.414739 289.999531 
C 170.414739 290.117046 170.461428 290.229764 170.544524 290.312859 
C 170.627619 290.395955 170.740337 290.442644 170.857852 290.442644 
z
" style="fill:#ffffff;stroke:#ffffff;stroke-width:0.886227;"/>
    <path clip-path="url(#p6f4c8fc787)" d="M 181.003307 292.861844 
C 181.120822 292.861844 181.23354 292.815155 181.316635 292.732059 
C 181.399731 292.648964 181.44642 292.536246 181.44642 292.418731 
C 181.44642 292.301216 181.399731 292.188498 181.316635 292.105402 
C 181.23354 292.022307 181.120822 291.975617 181.003307 291.975617 
C 180.885792 291.975617 180.773074 292.022307 180.689978 292.105402 
C 180.606883 292.188498 180.560193 292.301216 180.560193 292.418731 
C 180.560193 292.536246 180.606883 292.648964 180.689978 292.732059 
C 180.773074 292.815155 180.885792 292.861844 181.003307 292.861844 
z
" style="fill:#ffffff;stroke:#ffffff;stroke-width:0.886227;"/>
    <path clip-path="url(#p6f4c8fc787)" d="M 191.148761 290.442644 
C 191.266276 290.442644 191.378994 290.395955 191.46209 290.312859 
C 191.545186 290.229764 191.591875 290.117046 191.591875 289.999531 
C 191.591875 289.882016 191.545186 289.769298 191.46209 289.686202 
C 191.378994 289.603107 191.266276 289.556417 191.148761 289.556417 
C 191.031246 289.556417 190.918529 289.603107 190.835433 289.686202 
C 190.752337 289.769298 190.705648 289.882016 190.705648 289.999531 
C 190.705648 290.117046 190.752337 290.229764 190.835433 290.312859 
C 190.918529 290.395955 191.031246 290.442644 191.148761 290.442644 
z
" style="fill:#ffffff;stroke:#ffffff;stroke-width:0.886227;"/>
    <path clip-path="url(#p6f4c8fc787)" d="M 201.294216 291.894164 
C 201.411731 291.894164 201.524449 291.847475 201.607544 291.764379 
C 201.69064 291.681284 201.737329 291.568566 201.737329 291.451051 
C 201.737329 291.333536 201.69064 291.220818 201.607544 291.137722 
C 201.524449 291.054627 201.411731 291.007937 201.294216 291.007937 
C 201.176701 291.007937 201.063983 291.054627 200.980887 291.137722 
C 200.897792 291.220818 200.851102 291.333536 200.851102 291.451051 
C 200.851102 291.568566 200.897792 291.681284 200.980887 291.764379 
C 201.063983 291.847475 201.176701 291.894164 201.294216 291.894164 
z
" style="fill:#ffffff;stroke:#ffffff;stroke-width:0.886227;"/>
    <path clip-path="url(#p6f4c8fc787)" d="M 211.43967 293.345684 
C 211.557186 293.345684 211.669903 293.298995 211.752999 293.215899 
C 211.836095 293.132804 211.882784 293.020086 211.882784 292.902571 
C 211.882784 292.785056 211.836095 292.672338 211.752999 292.589242 
C 211.669903 292.506147 211.557186 292.459457 211.43967 292.459457 
C 211.322155 292.459457 211.209438 292.506147 211.126342 292.589242 
C 211.043246 292.672338 210.996557 292.785056 210.996557 292.902571 
C 210.996557 293.020086 211.043246 293.132804 211.126342 293.215899 
C 211.209438 293.298995 211.322155 293.345684 211.43967 293.345684 
z
" style="fill:#ffffff;stroke:#ffffff;stroke-width:0.886227;"/>
    <path clip-path="url(#p6f4c8fc787)" d="M 221.585125 290.442644 
C 221.70264 290.442644 221.815358 290.395955 221.898454 290.312859 
C 221.981549 290.229764 222.028238 290.117046 222.028238 289.999531 
C 222.028238 289.882016 221.981549 289.769298 221.898454 289.686202 
C 221.815358 289.603107 221.70264 289.556417 221.585125 289.556417 
C 221.46761 289.556417 221.354892 289.603107 221.271796 289.686202 
C 221.188701 289.769298 221.142012 289.882016 221.142012 289.999531 
C 221.142012 290.117046 221.188701 290.229764 221.271796 290.312859 
C 221.354892 290.395955 221.46761 290.442644 221.585125 290.442644 
z
" style="fill:#ffffff;stroke:#ffffff;stroke-width:0.886227;"/>
    <path clip-path="url(#p6f4c8fc787)" d="M 231.73058 292.861844 
C 231.848095 292.861844 231.960812 292.815155 232.043908 292.732059 
C 232.127004 292.648964 232.173693 292.536246 232.173693 292.418731 
C 232.173693 292.301216 232.127004 292.188498 232.043908 292.105402 
C 231.960812 292.022307 231.848095 291.975617 231.73058 291.975617 
C 231.613064 291.975617 231.500347 292.022307 231.417251 292.105402 
C 231.334155 292.188498 231.287466 292.301216 231.287466 292.418731 
C 231.287466 292.536246 231.334155 292.648964 231.417251 292.732059 
C 231.500347 292.815155 231.613064 292.861844 231.73058 292.861844 
z
" style="fill:#ffffff;stroke:#ffffff;stroke-width:0.886227;"/>
    <path clip-path="url(#p6f4c8fc787)" d="M 241.876034 293.345684 
C 241.993549 293.345684 242.106267 293.298995 242.189363 293.215899 
C 242.272458 293.132804 242.319148 293.020086 242.319148 292.902571 
C 242.319148 292.785056 242.272458 292.672338 242.189363 292.589242 
C 242.106267 292.506147 241.993549 292.459457 241.876034 292.459457 
C 241.758519 292.459457 241.645801 292.506147 241.562706 292.589242 
C 241.47961 292.672338 241.432921 292.785056 241.432921 292.902571 
C 241.432921 293.020086 241.47961 293.132804 241.562706 293.215899 
C 241.645801 293.298995 241.758519 293.345684 241.876034 293.345684 
z
" style="fill:#ffffff;stroke:#ffffff;stroke-width:0.886227;"/>
    <path clip-path="url(#p6f4c8fc787)" d="M 252.021489 293.829524 
C 252.139004 293.829524 252.251721 293.782835 252.334817 293.699739 
C 252.417913 293.616644 252.464602 293.503926 252.464602 293.386411 
C 252.464602 293.268896 252.417913 293.156178 252.334817 293.073082 
C 252.251721 292.989987 252.139004 292.943297 252.021489 292.943297 
C 251.903974 292.943297 251.791256 292.989987 251.70816 293.073082 
C 251.625064 293.156178 251.578375 293.268896 251.578375 293.386411 
C 251.578375 293.503926 251.625064 293.616644 251.70816 293.699739 
C 251.791256 293.782835 251.903974 293.829524 252.021489 293.829524 
z
" style="fill:#ffffff;stroke:#ffffff;stroke-width:0.886227;"/>
    <path clip-path="url(#p6f4c8fc787)" d="M 262.166943 284.152724 
C 262.284458 284.152724 262.397176 284.106035 262.480272 284.022939 
C 262.563367 283.939844 262.610057 283.827126 262.610057 283.709611 
C 262.610057 283.592096 262.563367 283.479378 262.480272 283.396282 
C 262.397176 283.313187 262.284458 283.266497 262.166943 283.266497 
C 262.049428 283.266497 261.93671 283.313187 261.853615 283.396282 
C 261.770519 283.479378 261.72383 283.592096 261.72383 283.709611 
C 261.72383 283.827126 261.770519 283.939844 261.853615 284.022939 
C 261.93671 284.106035 262.049428 284.152724 262.166943 284.152724 
z
" style="fill:#ffffff;stroke:#ffffff;stroke-width:0.886227;"/>
    <path clip-path="url(#p6f4c8fc787)" d="M 272.312398 293.829524 
C 272.429913 293.829524 272.542631 293.782835 272.625726 293.699739 
C 272.708822 293.616644 272.755511 293.503926 272.755511 293.386411 
C 272.755511 293.268896 272.708822 293.156178 272.625726 293.073082 
C 272.542631 292.989987 272.429913 292.943297 272.312398 292.943297 
C 272.194883 292.943297 272.082165 292.989987 271.999069 293.073082 
C 271.915973 293.156178 271.869284 293.268896 271.869284 293.386411 
C 271.869284 293.503926 271.915973 293.616644 271.999069 293.699739 
C 272.082165 293.782835 272.194883 293.829524 272.312398 293.829524 
z
" style="fill:#ffffff;stroke:#ffffff;stroke-width:0.886227;"/>
    <path clip-path="url(#p6f4c8fc787)" d="M 282.457852 293.829524 
C 282.575367 293.829524 282.688085 293.782835 282.771181 293.699739 
C 282.854277 293.616644 282.900966 293.503926 282.900966 293.386411 
C 282.900966 293.268896 282.854277 293.156178 282.771181 293.073082 
C 282.688085 292.989987 282.575367 292.943297 282.457852 292.943297 
C 282.340337 292.943297 282.227619 292.989987 282.144524 293.073082 
C 282.061428 293.156178 282.014739 293.268896 282.014739 293.386411 
C 282.014739 293.503926 282.061428 293.616644 282.144524 293.699739 
C 282.227619 293.782835 282.340337 293.829524 282.457852 293.829524 
z
" style="fill:#ffffff;stroke:#ffffff;stroke-width:0.886227;"/>
    <path clip-path="url(#p6f4c8fc787)" d="M 292.603307 293.829524 
C 292.720822 293.829524 292.83354 293.782835 292.916635 293.699739 
C 292.999731 293.616644 293.04642 293.503926 293.04642 293.386411 
C 293.04642 293.268896 292.999731 293.156178 292.916635 293.073082 
C 292.83354 292.989987 292.720822 292.943297 292.603307 292.943297 
C 292.485792 292.943297 292.373074 292.989987 292.289978 293.073082 
C 292.206883 293.156178 292.160193 293.268896 292.160193 293.386411 
C 292.160193 293.503926 292.206883 293.616644 292.289978 293.699739 
C 292.373074 293.782835 292.485792 293.829524 292.603307 293.829524 
z
" style="fill:#ffffff;stroke:#ffffff;stroke-width:0.886227;"/>
    <path clip-path="url(#p6f4c8fc787)" d="M 302.748761 254.638484 
C 302.866276 254.638484 302.978994 254.591795 303.06209 254.508699 
C 303.145186 254.425604 303.191875 254.312886 303.191875 254.195371 
C 303.191875 254.077856 303.145186 253.965138 303.06209 253.882042 
C 302.978994 253.798947 302.866276 253.752257 302.748761 253.752257 
C 302.631246 253.752257 302.518529 253.798947 302.435433 253.882042 
C 302.352337 253.965138 302.305648 254.077856 302.305648 254.195371 
C 302.305648 254.312886 302.352337 254.425604 302.435433 254.508699 
C 302.518529 254.591795 302.631246 254.638484 302.748761 254.638484 
z
" style="fill:#ffffff;stroke:#ffffff;stroke-width:0.886227;"/>
    <path clip-path="url(#p6f4c8fc787)" d="M 312.894216 275.443604 
C 313.011731 275.443604 313.124449 275.396915 313.207544 275.313819 
C 313.29064 275.230724 313.337329 275.118006 313.337329 275.000491 
C 313.337329 274.882976 313.29064 274.770258 313.207544 274.687162 
C 313.124449 274.604067 313.011731 274.557377 312.894216 274.557377 
C 312.776701 274.557377 312.663983 274.604067 312.580887 274.687162 
C 312.497792 274.770258 312.451102 274.882976 312.451102 275.000491 
C 312.451102 275.118006 312.497792 275.230724 312.580887 275.313819 
C 312.663983 275.396915 312.776701 275.443604 312.894216 275.443604 
z
" style="fill:#ffffff;stroke:#ffffff;stroke-width:0.886227;"/>
    <path clip-path="url(#p6f4c8fc787)" d="M 323.03967 280.765844 
C 323.157186 280.765844 323.269903 280.719155 323.352999 280.636059 
C 323.436095 280.552964 323.482784 280.440246 323.482784 280.322731 
C 323.482784 280.205216 323.436095 280.092498 323.352999 280.009402 
C 323.269903 279.926307 323.157186 279.879617 323.03967 279.879617 
C 322.922155 279.879617 322.809438 279.926307 322.726342 280.009402 
C 322.643246 280.092498 322.596557 280.205216 322.596557 280.322731 
C 322.596557 280.440246 322.643246 280.552964 322.726342 280.636059 
C 322.809438 280.719155 322.922155 280.765844 323.03967 280.765844 
z
" style="fill:#ffffff;stroke:#ffffff;stroke-width:0.886227;"/>
    <path clip-path="url(#p6f4c8fc787)" d="M 333.185125 269.153684 
C 333.30264 269.153684 333.415358 269.106995 333.498454 269.023899 
C 333.581549 268.940804 333.628238 268.828086 333.628238 268.710571 
C 333.628238 268.593056 333.581549 268.480338 333.498454 268.397242 
C 333.415358 268.314147 333.30264 268.267457 333.185125 268.267457 
C 333.06761 268.267457 332.954892 268.314147 332.871796 268.397242 
C 332.788701 268.480338 332.742012 268.593056 332.742012 268.710571 
C 332.742012 268.828086 332.788701 268.940804 332.871796 269.023899 
C 332.954892 269.106995 333.06761 269.153684 333.185125 269.153684 
z
" style="fill:#ffffff;stroke:#ffffff;stroke-width:0.886227;"/>
    <path clip-path="url(#p6f4c8fc787)" d="M 343.33058 229.962644 
C 343.448095 229.962644 343.560812 229.915955 343.643908 229.832859 
C 343.727004 229.749764 343.773693 229.637046 343.773693 229.519531 
C 343.773693 229.402016 343.727004 229.289298 343.643908 229.206202 
C 343.560812 229.123107 343.448095 229.076417 343.33058 229.076417 
C 343.213064 229.076417 343.100347 229.123107 343.017251 229.206202 
C 342.934155 229.289298 342.887466 229.402016 342.887466 229.519531 
C 342.887466 229.637046 342.934155 229.749764 343.017251 229.832859 
C 343.100347 229.915955 343.213064 229.962644 343.33058 229.962644 
z
" style="fill:#ffffff;stroke:#ffffff;stroke-width:0.886227;"/>
    <path clip-path="url(#p6f4c8fc787)" d="M 353.476034 247.864724 
C 353.593549 247.864724 353.706267 247.818035 353.789363 247.734939 
C 353.872458 247.651844 353.919148 247.539126 353.919148 247.421611 
C 353.919148 247.304096 353.872458 247.191378 353.789363 247.108282 
C 353.706267 247.025187 353.593549 246.978497 353.476034 246.978497 
C 353.358519 246.978497 353.245801 247.025187 353.162706 247.108282 
C 353.07961 247.191378 353.032921 247.304096 353.032921 247.421611 
C 353.032921 247.539126 353.07961 247.651844 353.162706 247.734939 
C 353.245801 247.818035 353.358519 247.864724 353.476034 247.864724 
z
" style="fill:#ffffff;stroke:#ffffff;stroke-width:0.886227;"/>
    <path clip-path="url(#p6f4c8fc787)" d="M 363.621489 185.933204 
C 363.739004 185.933204 363.851721 185.886515 363.934817 185.803419 
C 364.017913 185.720324 364.064602 185.607606 364.064602 185.490091 
C 364.064602 185.372576 364.017913 185.259858 363.934817 185.176762 
C 363.851721 185.093667 363.739004 185.046977 363.621489 185.046977 
C 363.503974 185.046977 363.391256 185.093667 363.30816 185.176762 
C 363.225064 185.259858 363.178375 185.372576 363.178375 185.490091 
C 363.178375 185.607606 363.225064 185.720324 363.30816 185.803419 
C 363.391256 185.886515 363.503974 185.933204 363.621489 185.933204 
z
" style="fill:#ffffff;stroke:#ffffff;stroke-width:0.886227;"/>
    <path clip-path="url(#p6f4c8fc787)" d="M 373.766943 118.679444 
C 373.884458 118.679444 373.997176 118.632755 374.080272 118.549659 
C 374.163367 118.466564 374.210057 118.353846 374.210057 118.236331 
C 374.210057 118.118816 374.163367 118.006098 374.080272 117.923002 
C 373.997176 117.839907 373.884458 117.793217 373.766943 117.793217 
C 373.649428 117.793217 373.53671 117.839907 373.453615 117.923002 
C 373.370519 118.006098 373.32383 118.118816 373.32383 118.236331 
C 373.32383 118.353846 373.370519 118.466564 373.453615 118.549659 
C 373.53671 118.632755 373.649428 118.679444 373.766943 118.679444 
z
" style="fill:#ffffff;stroke:#ffffff;stroke-width:0.886227;"/>
   </g>
   <g id="line2d_33">
    <path clip-path="url(#p6f4c8fc787)" d="M 67.220108 291.415181 
L 71.201235 289.07148 
L 75.182363 286.558297 
L 79.163491 284.234497 
L 83.144619 281.991886 
L 87.125746 279.696129 
L 91.106874 277.810126 
L 95.088002 274.485458 
L 99.06913 271.720091 
L 103.050257 271.460779 
L 107.031385 272.351231 
L 111.012513 273.78069 
L 114.993641 278.395116 
L 118.974768 283.515402 
L 122.955896 286.307911 
L 126.937024 289.215779 
L 130.918151 291.062518 
L 134.899279 290.623786 
L 138.880407 289.54141 
L 142.861535 289.651787 
L 146.842662 289.900775 
L 150.82379 290.112975 
L 154.804918 290.123068 
L 158.786046 290.033881 
L 162.767173 290.147119 
L 166.748301 290.403896 
L 170.729429 290.623728 
L 174.710557 290.762717 
L 178.691684 290.902191 
L 182.672812 291.042209 
L 186.65394 291.180187 
L 190.635067 291.299156 
L 194.616195 291.380386 
L 198.597323 291.42829 
L 202.578451 291.456102 
L 206.559578 291.417377 
L 210.540706 291.402246 
L 214.521834 291.479106 
L 218.502962 291.575002 
L 222.484089 291.706903 
L 226.465217 292.104219 
L 230.446345 292.46167 
L 234.427473 292.452636 
L 238.4086 292.359766 
L 242.389728 292.145439 
L 246.370856 291.427538 
L 250.351983 290.612935 
L 254.333111 290.254636 
L 258.314239 289.795149 
L 262.295367 289.581031 
L 266.276494 290.866517 
L 270.257622 292.606016 
L 274.23875 292.666055 
L 278.219878 292.645943 
L 282.201005 291.812314 
L 286.182133 288.488887 
L 290.163261 283.840052 
L 294.144389 280.664587 
L 298.125516 276.733993 
L 302.106644 273.302231 
L 306.087772 272.49465 
L 310.068899 273.005112 
L 314.050027 272.251889 
L 318.031155 272.529904 
L 322.012283 272.46017 
L 325.99341 270.406213 
L 329.974538 268.144527 
L 333.955666 264.399131 
L 337.936794 260.5884 
L 341.917921 255.237776 
L 345.899049 246.107258 
L 349.880177 235.052642 
L 353.861305 221.890267 
L 357.842432 206.708389 
L 361.82356 189.585308 
L 365.804688 170.303461 
L 369.785815 148.873997 
L 373.766943 125.358047 
" style="fill:none;stroke:#00008b;stroke-linejoin:miter;stroke-width:2.658681;"/>
   </g>
   <g id="patch_3">
    <path d="M 43.025125 305.482411 
L 400.145125 305.482411 
" style="fill:none;stroke:#000000;stroke-linecap:square;stroke-linejoin:miter;stroke-width:0.7;"/>
   </g>
  </g>
  <g id="text_16">
   <!-- Weekly positive Covid19 cases in Pennsylvania prison -->
   <g transform="translate(27.407 17.837812)scale(0.14 -0.14)">
    <defs>
     <path d="M 3.328125 72.90625 
L 13.28125 72.90625 
L 28.609375 11.28125 
L 43.890625 72.90625 
L 54.984375 72.90625 
L 70.3125 11.28125 
L 85.59375 72.90625 
L 95.609375 72.90625 
L 77.296875 0 
L 64.890625 0 
L 49.515625 63.28125 
L 33.984375 0 
L 21.578125 0 
z
" id="DejaVuSans-87"/>
     <path d="M 9.078125 75.984375 
L 18.109375 75.984375 
L 18.109375 31.109375 
L 44.921875 54.6875 
L 56.390625 54.6875 
L 27.390625 29.109375 
L 57.625 0 
L 45.90625 0 
L 18.109375 26.703125 
L 18.109375 0 
L 9.078125 0 
z
" id="DejaVuSans-107"/>
     <path d="M 19.671875 64.796875 
L 19.671875 37.40625 
L 32.078125 37.40625 
Q 38.96875 37.40625 42.71875 40.96875 
Q 46.484375 44.53125 46.484375 51.125 
Q 46.484375 57.671875 42.71875 61.234375 
Q 38.96875 64.796875 32.078125 64.796875 
z
M 9.8125 72.90625 
L 32.078125 72.90625 
Q 44.34375 72.90625 50.609375 67.359375 
Q 56.890625 61.8125 56.890625 51.125 
Q 56.890625 40.328125 50.609375 34.8125 
Q 44.34375 29.296875 32.078125 29.296875 
L 19.671875 29.296875 
L 19.671875 0 
L 9.8125 0 
z
" id="DejaVuSans-80"/>
    </defs>
    <use xlink:href="#DejaVuSans-87"/>
    <use x="93.001953" xlink:href="#DejaVuSans-101"/>
    <use x="154.525391" xlink:href="#DejaVuSans-101"/>
    <use x="216.048828" xlink:href="#DejaVuSans-107"/>
    <use x="273.958984" xlink:href="#DejaVuSans-108"/>
    <use x="301.742188" xlink:href="#DejaVuSans-121"/>
    <use x="360.921875" xlink:href="#DejaVuSans-32"/>
    <use x="392.708984" xlink:href="#DejaVuSans-112"/>
    <use x="456.185547" xlink:href="#DejaVuSans-111"/>
    <use x="517.367188" xlink:href="#DejaVuSans-115"/>
    <use x="569.466797" xlink:href="#DejaVuSans-105"/>
    <use x="597.25" xlink:href="#DejaVuSans-116"/>
    <use x="636.458984" xlink:href="#DejaVuSans-105"/>
    <use x="664.242188" xlink:href="#DejaVuSans-118"/>
    <use x="723.421875" xlink:href="#DejaVuSans-101"/>
    <use x="784.945312" xlink:href="#DejaVuSans-32"/>
    <use x="816.732422" xlink:href="#DejaVuSans-67"/>
    <use x="886.556641" xlink:href="#DejaVuSans-111"/>
    <use x="947.738281" xlink:href="#DejaVuSans-118"/>
    <use x="1006.917969" xlink:href="#DejaVuSans-105"/>
    <use x="1034.701172" xlink:href="#DejaVuSans-100"/>
    <use x="1098.177734" xlink:href="#DejaVuSans-49"/>
    <use x="1161.800781" xlink:href="#DejaVuSans-57"/>
    <use x="1225.423828" xlink:href="#DejaVuSans-32"/>
    <use x="1257.210938" xlink:href="#DejaVuSans-99"/>
    <use x="1312.191406" xlink:href="#DejaVuSans-97"/>
    <use x="1373.470703" xlink:href="#DejaVuSans-115"/>
    <use x="1425.570312" xlink:href="#DejaVuSans-101"/>
    <use x="1487.09375" xlink:href="#DejaVuSans-115"/>
    <use x="1539.193359" xlink:href="#DejaVuSans-32"/>
    <use x="1570.980469" xlink:href="#DejaVuSans-105"/>
    <use x="1598.763672" xlink:href="#DejaVuSans-110"/>
    <use x="1662.142578" xlink:href="#DejaVuSans-32"/>
    <use x="1693.929688" xlink:href="#DejaVuSans-80"/>
    <use x="1750.607422" xlink:href="#DejaVuSans-101"/>
    <use x="1812.130859" xlink:href="#DejaVuSans-110"/>
    <use x="1875.509766" xlink:href="#DejaVuSans-110"/>
    <use x="1938.888672" xlink:href="#DejaVuSans-115"/>
    <use x="1990.988281" xlink:href="#DejaVuSans-121"/>
    <use x="2050.167969" xlink:href="#DejaVuSans-108"/>
    <use x="2077.951172" xlink:href="#DejaVuSans-118"/>
    <use x="2137.130859" xlink:href="#DejaVuSans-97"/>
    <use x="2198.410156" xlink:href="#DejaVuSans-110"/>
    <use x="2261.789062" xlink:href="#DejaVuSans-105"/>
    <use x="2289.572266" xlink:href="#DejaVuSans-97"/>
    <use x="2350.851562" xlink:href="#DejaVuSans-32"/>
    <use x="2382.638672" xlink:href="#DejaVuSans-112"/>
    <use x="2446.115234" xlink:href="#DejaVuSans-114"/>
    <use x="2487.228516" xlink:href="#DejaVuSans-105"/>
    <use x="2515.011719" xlink:href="#DejaVuSans-115"/>
    <use x="2567.111328" xlink:href="#DejaVuSans-111"/>
    <use x="2628.292969" xlink:href="#DejaVuSans-110"/>
   </g>
   <!-- for weeks of 07 Apr to 17 Nov -->
   <g transform="translate(111.225437 30.323406)scale(0.14 -0.14)">
    <defs>
     <path d="M 37.109375 75.984375 
L 37.109375 68.5 
L 28.515625 68.5 
Q 23.6875 68.5 21.796875 66.546875 
Q 19.921875 64.59375 19.921875 59.515625 
L 19.921875 54.6875 
L 34.71875 54.6875 
L 34.71875 47.703125 
L 19.921875 47.703125 
L 19.921875 0 
L 10.890625 0 
L 10.890625 47.703125 
L 2.296875 47.703125 
L 2.296875 54.6875 
L 10.890625 54.6875 
L 10.890625 58.5 
Q 10.890625 67.625 15.140625 71.796875 
Q 19.390625 75.984375 28.609375 75.984375 
z
" id="DejaVuSans-102"/>
     <path d="M 4.203125 54.6875 
L 13.1875 54.6875 
L 24.421875 12.015625 
L 35.59375 54.6875 
L 46.1875 54.6875 
L 57.421875 12.015625 
L 68.609375 54.6875 
L 77.59375 54.6875 
L 63.28125 0 
L 52.6875 0 
L 40.921875 44.828125 
L 29.109375 0 
L 18.5 0 
z
" id="DejaVuSans-119"/>
     <path d="M 8.203125 72.90625 
L 55.078125 72.90625 
L 55.078125 68.703125 
L 28.609375 0 
L 18.3125 0 
L 43.21875 64.59375 
L 8.203125 64.59375 
z
" id="DejaVuSans-55"/>
    </defs>
    <use xlink:href="#DejaVuSans-102"/>
    <use x="35.205078" xlink:href="#DejaVuSans-111"/>
    <use x="96.386719" xlink:href="#DejaVuSans-114"/>
    <use x="137.5" xlink:href="#DejaVuSans-32"/>
    <use x="169.287109" xlink:href="#DejaVuSans-119"/>
    <use x="251.074219" xlink:href="#DejaVuSans-101"/>
    <use x="312.597656" xlink:href="#DejaVuSans-101"/>
    <use x="374.121094" xlink:href="#DejaVuSans-107"/>
    <use x="432.03125" xlink:href="#DejaVuSans-115"/>
    <use x="484.130859" xlink:href="#DejaVuSans-32"/>
    <use x="515.917969" xlink:href="#DejaVuSans-111"/>
    <use x="577.099609" xlink:href="#DejaVuSans-102"/>
    <use x="612.304688" xlink:href="#DejaVuSans-32"/>
    <use x="644.091797" xlink:href="#DejaVuSans-48"/>
    <use x="707.714844" xlink:href="#DejaVuSans-55"/>
    <use x="771.337891" xlink:href="#DejaVuSans-32"/>
    <use x="803.125" xlink:href="#DejaVuSans-65"/>
    <use x="871.533203" xlink:href="#DejaVuSans-112"/>
    <use x="935.009766" xlink:href="#DejaVuSans-114"/>
    <use x="976.123047" xlink:href="#DejaVuSans-32"/>
    <use x="1007.910156" xlink:href="#DejaVuSans-116"/>
    <use x="1047.119141" xlink:href="#DejaVuSans-111"/>
    <use x="1108.300781" xlink:href="#DejaVuSans-32"/>
    <use x="1140.087891" xlink:href="#DejaVuSans-49"/>
    <use x="1203.710938" xlink:href="#DejaVuSans-55"/>
    <use x="1267.333984" xlink:href="#DejaVuSans-32"/>
    <use x="1299.121094" xlink:href="#DejaVuSans-78"/>
    <use x="1373.925781" xlink:href="#DejaVuSans-111"/>
    <use x="1435.107422" xlink:href="#DejaVuSans-118"/>
   </g>
  </g>
 </g>
 <defs>
  <clipPath id="p6f4c8fc787">
   <rect height="266.112" width="357.12" x="43.025125" y="39.370411"/>
  </clipPath>
 </defs>
</svg>
