<?xml version="1.0" encoding="utf-8" standalone="no"?>
<!DOCTYPE svg PUBLIC "-//W3C//DTD SVG 1.1//EN"
  "http://www.w3.org/Graphics/SVG/1.1/DTD/svg11.dtd">
<!-- Created with matplotlib (https://matplotlib.org/) -->
<svg height="326.149161pt" version="1.1" viewBox="0 0 411.44325 326.149161" width="411.44325pt" xmlns="http://www.w3.org/2000/svg" xmlns:xlink="http://www.w3.org/1999/xlink">
 <metadata>
  <rdf:RDF xmlns:cc="http://creativecommons.org/ns#" xmlns:dc="http://purl.org/dc/elements/1.1/" xmlns:rdf="http://www.w3.org/1999/02/22-rdf-syntax-ns#">
   <cc:Work>
    <dc:type rdf:resource="http://purl.org/dc/dcmitype/StillImage"/>
    <dc:date>2020-11-22T17:03:04.919988</dc:date>
    <dc:format>image/svg+xml</dc:format>
    <dc:creator>
     <cc:Agent>
      <dc:title>Matplotlib v3.3.3, https://matplotlib.org/</dc:title>
     </cc:Agent>
    </dc:creator>
   </cc:Work>
  </rdf:RDF>
 </metadata>
 <defs>
  <style type="text/css">*{stroke-linecap:butt;stroke-linejoin:round;}</style>
 </defs>
 <g id="figure_1">
  <g id="patch_1">
   <path d="M 0 326.149161 
L 411.44325 326.149161 
L 411.44325 0 
L 0 0 
z
" style="fill:#ffffff;stroke:#ffffff;stroke-linejoin:miter;"/>
  </g>
  <g id="axes_1">
   <g id="patch_2">
    <path d="M 43.025125 305.482411 
L 400.145125 305.482411 
L 400.145125 39.370411 
L 43.025125 39.370411 
z
" style="fill:none;"/>
   </g>
   <g id="matplotlib.axis_1">
    <g id="xtick_1">
     <g id="line2d_1">
      <path clip-path="url(#p45b36bd0bd)" d="M 50.561748 305.482411 
L 50.561748 39.370411 
" style="fill:none;stroke:#ffffff;"/>
     </g>
     <g id="text_1">
      <!-- Apr -->
      <g style="fill:#4d4d4d;" transform="translate(42.949748 317.119036)scale(0.088 -0.088)">
       <defs>
        <path d="M 34.1875 63.1875 
L 20.796875 26.90625 
L 47.609375 26.90625 
z
M 28.609375 72.90625 
L 39.796875 72.90625 
L 67.578125 0 
L 57.328125 0 
L 50.6875 18.703125 
L 17.828125 18.703125 
L 11.1875 0 
L 0.78125 0 
z
" id="DejaVuSans-65"/>
        <path d="M 18.109375 8.203125 
L 18.109375 -20.796875 
L 9.078125 -20.796875 
L 9.078125 54.6875 
L 18.109375 54.6875 
L 18.109375 46.390625 
Q 20.953125 51.265625 25.265625 53.625 
Q 29.59375 56 35.59375 56 
Q 45.5625 56 51.78125 48.09375 
Q 58.015625 40.1875 58.015625 27.296875 
Q 58.015625 14.40625 51.78125 6.484375 
Q 45.5625 -1.421875 35.59375 -1.421875 
Q 29.59375 -1.421875 25.265625 0.953125 
Q 20.953125 3.328125 18.109375 8.203125 
z
M 48.6875 27.296875 
Q 48.6875 37.203125 44.609375 42.84375 
Q 40.53125 48.484375 33.40625 48.484375 
Q 26.265625 48.484375 22.1875 42.84375 
Q 18.109375 37.203125 18.109375 27.296875 
Q 18.109375 17.390625 22.1875 11.75 
Q 26.265625 6.109375 33.40625 6.109375 
Q 40.53125 6.109375 44.609375 11.75 
Q 48.6875 17.390625 48.6875 27.296875 
z
" id="DejaVuSans-112"/>
        <path d="M 41.109375 46.296875 
Q 39.59375 47.171875 37.8125 47.578125 
Q 36.03125 48 33.890625 48 
Q 26.265625 48 22.1875 43.046875 
Q 18.109375 38.09375 18.109375 28.8125 
L 18.109375 0 
L 9.078125 0 
L 9.078125 54.6875 
L 18.109375 54.6875 
L 18.109375 46.1875 
Q 20.953125 51.171875 25.484375 53.578125 
Q 30.03125 56 36.53125 56 
Q 37.453125 56 38.578125 55.875 
Q 39.703125 55.765625 41.0625 55.515625 
z
" id="DejaVuSans-114"/>
       </defs>
       <use xlink:href="#DejaVuSans-65"/>
       <use x="68.408203" xlink:href="#DejaVuSans-112"/>
       <use x="131.884766" xlink:href="#DejaVuSans-114"/>
      </g>
     </g>
    </g>
    <g id="xtick_2">
     <g id="line2d_2">
      <path clip-path="url(#p45b36bd0bd)" d="M 94.042268 305.482411 
L 94.042268 39.370411 
" style="fill:none;stroke:#ffffff;"/>
     </g>
     <g id="text_2">
      <!-- May -->
      <g style="fill:#4d4d4d;" transform="translate(84.945268 317.119036)scale(0.088 -0.088)">
       <defs>
        <path d="M 9.8125 72.90625 
L 24.515625 72.90625 
L 43.109375 23.296875 
L 61.8125 72.90625 
L 76.515625 72.90625 
L 76.515625 0 
L 66.890625 0 
L 66.890625 64.015625 
L 48.09375 14.015625 
L 38.1875 14.015625 
L 19.390625 64.015625 
L 19.390625 0 
L 9.8125 0 
z
" id="DejaVuSans-77"/>
        <path d="M 34.28125 27.484375 
Q 23.390625 27.484375 19.1875 25 
Q 14.984375 22.515625 14.984375 16.5 
Q 14.984375 11.71875 18.140625 8.90625 
Q 21.296875 6.109375 26.703125 6.109375 
Q 34.1875 6.109375 38.703125 11.40625 
Q 43.21875 16.703125 43.21875 25.484375 
L 43.21875 27.484375 
z
M 52.203125 31.203125 
L 52.203125 0 
L 43.21875 0 
L 43.21875 8.296875 
Q 40.140625 3.328125 35.546875 0.953125 
Q 30.953125 -1.421875 24.3125 -1.421875 
Q 15.921875 -1.421875 10.953125 3.296875 
Q 6 8.015625 6 15.921875 
Q 6 25.140625 12.171875 29.828125 
Q 18.359375 34.515625 30.609375 34.515625 
L 43.21875 34.515625 
L 43.21875 35.40625 
Q 43.21875 41.609375 39.140625 45 
Q 35.0625 48.390625 27.6875 48.390625 
Q 23 48.390625 18.546875 47.265625 
Q 14.109375 46.140625 10.015625 43.890625 
L 10.015625 52.203125 
Q 14.9375 54.109375 19.578125 55.046875 
Q 24.21875 56 28.609375 56 
Q 40.484375 56 46.34375 49.84375 
Q 52.203125 43.703125 52.203125 31.203125 
z
" id="DejaVuSans-97"/>
        <path d="M 32.171875 -5.078125 
Q 28.375 -14.84375 24.75 -17.8125 
Q 21.140625 -20.796875 15.09375 -20.796875 
L 7.90625 -20.796875 
L 7.90625 -13.28125 
L 13.1875 -13.28125 
Q 16.890625 -13.28125 18.9375 -11.515625 
Q 21 -9.765625 23.484375 -3.21875 
L 25.09375 0.875 
L 2.984375 54.6875 
L 12.5 54.6875 
L 29.59375 11.921875 
L 46.6875 54.6875 
L 56.203125 54.6875 
z
" id="DejaVuSans-121"/>
       </defs>
       <use xlink:href="#DejaVuSans-77"/>
       <use x="86.279297" xlink:href="#DejaVuSans-97"/>
       <use x="147.558594" xlink:href="#DejaVuSans-121"/>
      </g>
     </g>
    </g>
    <g id="xtick_3">
     <g id="line2d_3">
      <path clip-path="url(#p45b36bd0bd)" d="M 138.972138 305.482411 
L 138.972138 39.370411 
" style="fill:none;stroke:#ffffff;"/>
     </g>
     <g id="text_3">
      <!-- Jun -->
      <g style="fill:#4d4d4d;" transform="translate(132.097138 317.119036)scale(0.088 -0.088)">
       <defs>
        <path d="M 9.8125 72.90625 
L 19.671875 72.90625 
L 19.671875 5.078125 
Q 19.671875 -8.109375 14.671875 -14.0625 
Q 9.671875 -20.015625 -1.421875 -20.015625 
L -5.171875 -20.015625 
L -5.171875 -11.71875 
L -2.09375 -11.71875 
Q 4.4375 -11.71875 7.125 -8.046875 
Q 9.8125 -4.390625 9.8125 5.078125 
z
" id="DejaVuSans-74"/>
        <path d="M 8.5 21.578125 
L 8.5 54.6875 
L 17.484375 54.6875 
L 17.484375 21.921875 
Q 17.484375 14.15625 20.5 10.265625 
Q 23.53125 6.390625 29.59375 6.390625 
Q 36.859375 6.390625 41.078125 11.03125 
Q 45.3125 15.671875 45.3125 23.6875 
L 45.3125 54.6875 
L 54.296875 54.6875 
L 54.296875 0 
L 45.3125 0 
L 45.3125 8.40625 
Q 42.046875 3.421875 37.71875 1 
Q 33.40625 -1.421875 27.6875 -1.421875 
Q 18.265625 -1.421875 13.375 4.4375 
Q 8.5 10.296875 8.5 21.578125 
z
M 31.109375 56 
z
" id="DejaVuSans-117"/>
        <path d="M 54.890625 33.015625 
L 54.890625 0 
L 45.90625 0 
L 45.90625 32.71875 
Q 45.90625 40.484375 42.875 44.328125 
Q 39.84375 48.1875 33.796875 48.1875 
Q 26.515625 48.1875 22.3125 43.546875 
Q 18.109375 38.921875 18.109375 30.90625 
L 18.109375 0 
L 9.078125 0 
L 9.078125 54.6875 
L 18.109375 54.6875 
L 18.109375 46.1875 
Q 21.34375 51.125 25.703125 53.5625 
Q 30.078125 56 35.796875 56 
Q 45.21875 56 50.046875 50.171875 
Q 54.890625 44.34375 54.890625 33.015625 
z
" id="DejaVuSans-110"/>
       </defs>
       <use xlink:href="#DejaVuSans-74"/>
       <use x="29.492188" xlink:href="#DejaVuSans-117"/>
       <use x="92.871094" xlink:href="#DejaVuSans-110"/>
      </g>
     </g>
    </g>
    <g id="xtick_4">
     <g id="line2d_4">
      <path clip-path="url(#p45b36bd0bd)" d="M 182.452657 305.482411 
L 182.452657 39.370411 
" style="fill:none;stroke:#ffffff;"/>
     </g>
     <g id="text_4">
      <!-- Jul -->
      <g style="fill:#4d4d4d;" transform="translate(177.143782 317.119036)scale(0.088 -0.088)">
       <defs>
        <path d="M 9.421875 75.984375 
L 18.40625 75.984375 
L 18.40625 0 
L 9.421875 0 
z
" id="DejaVuSans-108"/>
       </defs>
       <use xlink:href="#DejaVuSans-74"/>
       <use x="29.492188" xlink:href="#DejaVuSans-117"/>
       <use x="92.871094" xlink:href="#DejaVuSans-108"/>
      </g>
     </g>
    </g>
    <g id="xtick_5">
     <g id="line2d_5">
      <path clip-path="url(#p45b36bd0bd)" d="M 227.382528 305.482411 
L 227.382528 39.370411 
" style="fill:none;stroke:#ffffff;"/>
     </g>
     <g id="text_5">
      <!-- Aug -->
      <g style="fill:#4d4d4d;" transform="translate(218.79084 317.119036)scale(0.088 -0.088)">
       <defs>
        <path d="M 45.40625 27.984375 
Q 45.40625 37.75 41.375 43.109375 
Q 37.359375 48.484375 30.078125 48.484375 
Q 22.859375 48.484375 18.828125 43.109375 
Q 14.796875 37.75 14.796875 27.984375 
Q 14.796875 18.265625 18.828125 12.890625 
Q 22.859375 7.515625 30.078125 7.515625 
Q 37.359375 7.515625 41.375 12.890625 
Q 45.40625 18.265625 45.40625 27.984375 
z
M 54.390625 6.78125 
Q 54.390625 -7.171875 48.1875 -13.984375 
Q 42 -20.796875 29.203125 -20.796875 
Q 24.46875 -20.796875 20.265625 -20.09375 
Q 16.0625 -19.390625 12.109375 -17.921875 
L 12.109375 -9.1875 
Q 16.0625 -11.328125 19.921875 -12.34375 
Q 23.78125 -13.375 27.78125 -13.375 
Q 36.625 -13.375 41.015625 -8.765625 
Q 45.40625 -4.15625 45.40625 5.171875 
L 45.40625 9.625 
Q 42.625 4.78125 38.28125 2.390625 
Q 33.9375 0 27.875 0 
Q 17.828125 0 11.671875 7.65625 
Q 5.515625 15.328125 5.515625 27.984375 
Q 5.515625 40.671875 11.671875 48.328125 
Q 17.828125 56 27.875 56 
Q 33.9375 56 38.28125 53.609375 
Q 42.625 51.21875 45.40625 46.390625 
L 45.40625 54.6875 
L 54.390625 54.6875 
z
" id="DejaVuSans-103"/>
       </defs>
       <use xlink:href="#DejaVuSans-65"/>
       <use x="68.408203" xlink:href="#DejaVuSans-117"/>
       <use x="131.787109" xlink:href="#DejaVuSans-103"/>
      </g>
     </g>
    </g>
    <g id="xtick_6">
     <g id="line2d_6">
      <path clip-path="url(#p45b36bd0bd)" d="M 272.312398 305.482411 
L 272.312398 39.370411 
" style="fill:none;stroke:#ffffff;"/>
     </g>
     <g id="text_6">
      <!-- Sep -->
      <g style="fill:#4d4d4d;" transform="translate(264.018398 317.119036)scale(0.088 -0.088)">
       <defs>
        <path d="M 53.515625 70.515625 
L 53.515625 60.890625 
Q 47.90625 63.578125 42.921875 64.890625 
Q 37.9375 66.21875 33.296875 66.21875 
Q 25.25 66.21875 20.875 63.09375 
Q 16.5 59.96875 16.5 54.203125 
Q 16.5 49.359375 19.40625 46.890625 
Q 22.3125 44.4375 30.421875 42.921875 
L 36.375 41.703125 
Q 47.40625 39.59375 52.65625 34.296875 
Q 57.90625 29 57.90625 20.125 
Q 57.90625 9.515625 50.796875 4.046875 
Q 43.703125 -1.421875 29.984375 -1.421875 
Q 24.8125 -1.421875 18.96875 -0.25 
Q 13.140625 0.921875 6.890625 3.21875 
L 6.890625 13.375 
Q 12.890625 10.015625 18.65625 8.296875 
Q 24.421875 6.59375 29.984375 6.59375 
Q 38.421875 6.59375 43.015625 9.90625 
Q 47.609375 13.234375 47.609375 19.390625 
Q 47.609375 24.75 44.3125 27.78125 
Q 41.015625 30.8125 33.5 32.328125 
L 27.484375 33.5 
Q 16.453125 35.6875 11.515625 40.375 
Q 6.59375 45.0625 6.59375 53.421875 
Q 6.59375 63.09375 13.40625 68.65625 
Q 20.21875 74.21875 32.171875 74.21875 
Q 37.3125 74.21875 42.625 73.28125 
Q 47.953125 72.359375 53.515625 70.515625 
z
" id="DejaVuSans-83"/>
        <path d="M 56.203125 29.59375 
L 56.203125 25.203125 
L 14.890625 25.203125 
Q 15.484375 15.921875 20.484375 11.0625 
Q 25.484375 6.203125 34.421875 6.203125 
Q 39.59375 6.203125 44.453125 7.46875 
Q 49.3125 8.734375 54.109375 11.28125 
L 54.109375 2.78125 
Q 49.265625 0.734375 44.1875 -0.34375 
Q 39.109375 -1.421875 33.890625 -1.421875 
Q 20.796875 -1.421875 13.15625 6.1875 
Q 5.515625 13.8125 5.515625 26.8125 
Q 5.515625 40.234375 12.765625 48.109375 
Q 20.015625 56 32.328125 56 
Q 43.359375 56 49.78125 48.890625 
Q 56.203125 41.796875 56.203125 29.59375 
z
M 47.21875 32.234375 
Q 47.125 39.59375 43.09375 43.984375 
Q 39.0625 48.390625 32.421875 48.390625 
Q 24.90625 48.390625 20.390625 44.140625 
Q 15.875 39.890625 15.1875 32.171875 
z
" id="DejaVuSans-101"/>
       </defs>
       <use xlink:href="#DejaVuSans-83"/>
       <use x="63.476562" xlink:href="#DejaVuSans-101"/>
       <use x="125" xlink:href="#DejaVuSans-112"/>
      </g>
     </g>
    </g>
    <g id="xtick_7">
     <g id="line2d_7">
      <path clip-path="url(#p45b36bd0bd)" d="M 315.792917 305.482411 
L 315.792917 39.370411 
" style="fill:none;stroke:#ffffff;"/>
     </g>
     <g id="text_7">
      <!-- Oct -->
      <g style="fill:#4d4d4d;" transform="translate(308.185042 317.119036)scale(0.088 -0.088)">
       <defs>
        <path d="M 39.40625 66.21875 
Q 28.65625 66.21875 22.328125 58.203125 
Q 16.015625 50.203125 16.015625 36.375 
Q 16.015625 22.609375 22.328125 14.59375 
Q 28.65625 6.59375 39.40625 6.59375 
Q 50.140625 6.59375 56.421875 14.59375 
Q 62.703125 22.609375 62.703125 36.375 
Q 62.703125 50.203125 56.421875 58.203125 
Q 50.140625 66.21875 39.40625 66.21875 
z
M 39.40625 74.21875 
Q 54.734375 74.21875 63.90625 63.9375 
Q 73.09375 53.65625 73.09375 36.375 
Q 73.09375 19.140625 63.90625 8.859375 
Q 54.734375 -1.421875 39.40625 -1.421875 
Q 24.03125 -1.421875 14.8125 8.828125 
Q 5.609375 19.09375 5.609375 36.375 
Q 5.609375 53.65625 14.8125 63.9375 
Q 24.03125 74.21875 39.40625 74.21875 
z
" id="DejaVuSans-79"/>
        <path d="M 48.78125 52.59375 
L 48.78125 44.1875 
Q 44.96875 46.296875 41.140625 47.34375 
Q 37.3125 48.390625 33.40625 48.390625 
Q 24.65625 48.390625 19.8125 42.84375 
Q 14.984375 37.3125 14.984375 27.296875 
Q 14.984375 17.28125 19.8125 11.734375 
Q 24.65625 6.203125 33.40625 6.203125 
Q 37.3125 6.203125 41.140625 7.25 
Q 44.96875 8.296875 48.78125 10.40625 
L 48.78125 2.09375 
Q 45.015625 0.34375 40.984375 -0.53125 
Q 36.96875 -1.421875 32.421875 -1.421875 
Q 20.0625 -1.421875 12.78125 6.34375 
Q 5.515625 14.109375 5.515625 27.296875 
Q 5.515625 40.671875 12.859375 48.328125 
Q 20.21875 56 33.015625 56 
Q 37.15625 56 41.109375 55.140625 
Q 45.0625 54.296875 48.78125 52.59375 
z
" id="DejaVuSans-99"/>
        <path d="M 18.3125 70.21875 
L 18.3125 54.6875 
L 36.8125 54.6875 
L 36.8125 47.703125 
L 18.3125 47.703125 
L 18.3125 18.015625 
Q 18.3125 11.328125 20.140625 9.421875 
Q 21.96875 7.515625 27.59375 7.515625 
L 36.8125 7.515625 
L 36.8125 0 
L 27.59375 0 
Q 17.1875 0 13.234375 3.875 
Q 9.28125 7.765625 9.28125 18.015625 
L 9.28125 47.703125 
L 2.6875 47.703125 
L 2.6875 54.6875 
L 9.28125 54.6875 
L 9.28125 70.21875 
z
" id="DejaVuSans-116"/>
       </defs>
       <use xlink:href="#DejaVuSans-79"/>
       <use x="78.710938" xlink:href="#DejaVuSans-99"/>
       <use x="133.691406" xlink:href="#DejaVuSans-116"/>
      </g>
     </g>
    </g>
    <g id="xtick_8">
     <g id="line2d_8">
      <path clip-path="url(#p45b36bd0bd)" d="M 360.722787 305.482411 
L 360.722787 39.370411 
" style="fill:none;stroke:#ffffff;"/>
     </g>
     <g id="text_8">
      <!-- Nov -->
      <g style="fill:#4d4d4d;" transform="translate(352.134537 317.119036)scale(0.088 -0.088)">
       <defs>
        <path d="M 9.8125 72.90625 
L 23.09375 72.90625 
L 55.421875 11.921875 
L 55.421875 72.90625 
L 64.984375 72.90625 
L 64.984375 0 
L 51.703125 0 
L 19.390625 60.984375 
L 19.390625 0 
L 9.8125 0 
z
" id="DejaVuSans-78"/>
        <path d="M 30.609375 48.390625 
Q 23.390625 48.390625 19.1875 42.75 
Q 14.984375 37.109375 14.984375 27.296875 
Q 14.984375 17.484375 19.15625 11.84375 
Q 23.34375 6.203125 30.609375 6.203125 
Q 37.796875 6.203125 41.984375 11.859375 
Q 46.1875 17.53125 46.1875 27.296875 
Q 46.1875 37.015625 41.984375 42.703125 
Q 37.796875 48.390625 30.609375 48.390625 
z
M 30.609375 56 
Q 42.328125 56 49.015625 48.375 
Q 55.71875 40.765625 55.71875 27.296875 
Q 55.71875 13.875 49.015625 6.21875 
Q 42.328125 -1.421875 30.609375 -1.421875 
Q 18.84375 -1.421875 12.171875 6.21875 
Q 5.515625 13.875 5.515625 27.296875 
Q 5.515625 40.765625 12.171875 48.375 
Q 18.84375 56 30.609375 56 
z
" id="DejaVuSans-111"/>
        <path d="M 2.984375 54.6875 
L 12.5 54.6875 
L 29.59375 8.796875 
L 46.6875 54.6875 
L 56.203125 54.6875 
L 35.6875 0 
L 23.484375 0 
z
" id="DejaVuSans-118"/>
       </defs>
       <use xlink:href="#DejaVuSans-78"/>
       <use x="74.804688" xlink:href="#DejaVuSans-111"/>
       <use x="135.986328" xlink:href="#DejaVuSans-118"/>
      </g>
     </g>
    </g>
    <g id="xtick_9">
     <g id="line2d_9">
      <path clip-path="url(#p45b36bd0bd)" d="M 72.302008 305.482411 
L 72.302008 39.370411 
" style="fill:none;stroke:#ffffff;stroke-width:0.5;"/>
     </g>
    </g>
    <g id="xtick_10">
     <g id="line2d_10">
      <path clip-path="url(#p45b36bd0bd)" d="M 116.507203 305.482411 
L 116.507203 39.370411 
" style="fill:none;stroke:#ffffff;stroke-width:0.5;"/>
     </g>
    </g>
    <g id="xtick_11">
     <g id="line2d_11">
      <path clip-path="url(#p45b36bd0bd)" d="M 160.712398 305.482411 
L 160.712398 39.370411 
" style="fill:none;stroke:#ffffff;stroke-width:0.5;"/>
     </g>
    </g>
    <g id="xtick_12">
     <g id="line2d_12">
      <path clip-path="url(#p45b36bd0bd)" d="M 204.917593 305.482411 
L 204.917593 39.370411 
" style="fill:none;stroke:#ffffff;stroke-width:0.5;"/>
     </g>
    </g>
    <g id="xtick_13">
     <g id="line2d_13">
      <path clip-path="url(#p45b36bd0bd)" d="M 249.847463 305.482411 
L 249.847463 39.370411 
" style="fill:none;stroke:#ffffff;stroke-width:0.5;"/>
     </g>
    </g>
    <g id="xtick_14">
     <g id="line2d_14">
      <path clip-path="url(#p45b36bd0bd)" d="M 294.052657 305.482411 
L 294.052657 39.370411 
" style="fill:none;stroke:#ffffff;stroke-width:0.5;"/>
     </g>
    </g>
    <g id="xtick_15">
     <g id="line2d_15">
      <path clip-path="url(#p45b36bd0bd)" d="M 338.257852 305.482411 
L 338.257852 39.370411 
" style="fill:none;stroke:#ffffff;stroke-width:0.5;"/>
     </g>
    </g>
   </g>
   <g id="matplotlib.axis_2">
    <g id="ytick_1">
     <g id="line2d_16">
      <path clip-path="url(#p45b36bd0bd)" d="M 43.025125 293.386411 
L 400.145125 293.386411 
" style="fill:none;stroke:#ffffff;"/>
     </g>
     <g id="line2d_17">
      <path d="M 43.025125 293.386411 
" style="fill:none;stroke:#333333;stroke-width:1.5;"/>
      <defs>
       <path d="M 0 0 
L -2.75 0 
" id="mbd6e936f3c" style="stroke:#000000;"/>
      </defs>
      <g>
       <use style="fill:#333333;stroke:#000000;" x="43.025125" xlink:href="#mbd6e936f3c" y="293.386411"/>
      </g>
     </g>
     <g id="text_9">
      <!-- 0 -->
      <g style="fill:#00008b;" transform="translate(32.476125 295.814661)scale(0.088 -0.088)">
       <defs>
        <path d="M 31.78125 66.40625 
Q 24.171875 66.40625 20.328125 58.90625 
Q 16.5 51.421875 16.5 36.375 
Q 16.5 21.390625 20.328125 13.890625 
Q 24.171875 6.390625 31.78125 6.390625 
Q 39.453125 6.390625 43.28125 13.890625 
Q 47.125 21.390625 47.125 36.375 
Q 47.125 51.421875 43.28125 58.90625 
Q 39.453125 66.40625 31.78125 66.40625 
z
M 31.78125 74.21875 
Q 44.046875 74.21875 50.515625 64.515625 
Q 56.984375 54.828125 56.984375 36.375 
Q 56.984375 17.96875 50.515625 8.265625 
Q 44.046875 -1.421875 31.78125 -1.421875 
Q 19.53125 -1.421875 13.0625 8.265625 
Q 6.59375 17.96875 6.59375 36.375 
Q 6.59375 54.828125 13.0625 64.515625 
Q 19.53125 74.21875 31.78125 74.21875 
z
" id="DejaVuSans-48"/>
       </defs>
       <use xlink:href="#DejaVuSans-48"/>
      </g>
     </g>
    </g>
    <g id="ytick_2">
     <g id="line2d_18">
      <path clip-path="url(#p45b36bd0bd)" d="M 43.025125 232.906411 
L 400.145125 232.906411 
" style="fill:none;stroke:#ffffff;"/>
     </g>
     <g id="line2d_19">
      <path d="M 43.025125 232.906411 
" style="fill:none;stroke:#333333;stroke-width:1.5;"/>
      <g>
       <use style="fill:#333333;stroke:#000000;" x="43.025125" xlink:href="#mbd6e936f3c" y="232.906411"/>
      </g>
     </g>
     <g id="text_10">
      <!-- 100 -->
      <g style="fill:#00008b;" transform="translate(21.278125 235.334661)scale(0.088 -0.088)">
       <defs>
        <path d="M 12.40625 8.296875 
L 28.515625 8.296875 
L 28.515625 63.921875 
L 10.984375 60.40625 
L 10.984375 69.390625 
L 28.421875 72.90625 
L 38.28125 72.90625 
L 38.28125 8.296875 
L 54.390625 8.296875 
L 54.390625 0 
L 12.40625 0 
z
" id="DejaVuSans-49"/>
       </defs>
       <use xlink:href="#DejaVuSans-49"/>
       <use x="63.623047" xlink:href="#DejaVuSans-48"/>
       <use x="127.246094" xlink:href="#DejaVuSans-48"/>
      </g>
     </g>
    </g>
    <g id="ytick_3">
     <g id="line2d_20">
      <path clip-path="url(#p45b36bd0bd)" d="M 43.025125 172.426411 
L 400.145125 172.426411 
" style="fill:none;stroke:#ffffff;"/>
     </g>
     <g id="line2d_21">
      <path d="M 43.025125 172.426411 
" style="fill:none;stroke:#333333;stroke-width:1.5;"/>
      <g>
       <use style="fill:#333333;stroke:#000000;" x="43.025125" xlink:href="#mbd6e936f3c" y="172.426411"/>
      </g>
     </g>
     <g id="text_11">
      <!-- 200 -->
      <g style="fill:#00008b;" transform="translate(21.278125 174.854661)scale(0.088 -0.088)">
       <defs>
        <path d="M 19.1875 8.296875 
L 53.609375 8.296875 
L 53.609375 0 
L 7.328125 0 
L 7.328125 8.296875 
Q 12.9375 14.109375 22.625 23.890625 
Q 32.328125 33.6875 34.8125 36.53125 
Q 39.546875 41.84375 41.421875 45.53125 
Q 43.3125 49.21875 43.3125 52.78125 
Q 43.3125 58.59375 39.234375 62.25 
Q 35.15625 65.921875 28.609375 65.921875 
Q 23.96875 65.921875 18.8125 64.3125 
Q 13.671875 62.703125 7.8125 59.421875 
L 7.8125 69.390625 
Q 13.765625 71.78125 18.9375 73 
Q 24.125 74.21875 28.421875 74.21875 
Q 39.75 74.21875 46.484375 68.546875 
Q 53.21875 62.890625 53.21875 53.421875 
Q 53.21875 48.921875 51.53125 44.890625 
Q 49.859375 40.875 45.40625 35.40625 
Q 44.1875 33.984375 37.640625 27.21875 
Q 31.109375 20.453125 19.1875 8.296875 
z
" id="DejaVuSans-50"/>
       </defs>
       <use xlink:href="#DejaVuSans-50"/>
       <use x="63.623047" xlink:href="#DejaVuSans-48"/>
       <use x="127.246094" xlink:href="#DejaVuSans-48"/>
      </g>
     </g>
    </g>
    <g id="ytick_4">
     <g id="line2d_22">
      <path clip-path="url(#p45b36bd0bd)" d="M 43.025125 111.946411 
L 400.145125 111.946411 
" style="fill:none;stroke:#ffffff;"/>
     </g>
     <g id="line2d_23">
      <path d="M 43.025125 111.946411 
" style="fill:none;stroke:#333333;stroke-width:1.5;"/>
      <g>
       <use style="fill:#333333;stroke:#000000;" x="43.025125" xlink:href="#mbd6e936f3c" y="111.946411"/>
      </g>
     </g>
     <g id="text_12">
      <!-- 300 -->
      <g style="fill:#00008b;" transform="translate(21.278125 114.374661)scale(0.088 -0.088)">
       <defs>
        <path d="M 40.578125 39.3125 
Q 47.65625 37.796875 51.625 33 
Q 55.609375 28.21875 55.609375 21.1875 
Q 55.609375 10.40625 48.1875 4.484375 
Q 40.765625 -1.421875 27.09375 -1.421875 
Q 22.515625 -1.421875 17.65625 -0.515625 
Q 12.796875 0.390625 7.625 2.203125 
L 7.625 11.71875 
Q 11.71875 9.328125 16.59375 8.109375 
Q 21.484375 6.890625 26.8125 6.890625 
Q 36.078125 6.890625 40.9375 10.546875 
Q 45.796875 14.203125 45.796875 21.1875 
Q 45.796875 27.640625 41.28125 31.265625 
Q 36.765625 34.90625 28.71875 34.90625 
L 20.21875 34.90625 
L 20.21875 43.015625 
L 29.109375 43.015625 
Q 36.375 43.015625 40.234375 45.921875 
Q 44.09375 48.828125 44.09375 54.296875 
Q 44.09375 59.90625 40.109375 62.90625 
Q 36.140625 65.921875 28.71875 65.921875 
Q 24.65625 65.921875 20.015625 65.03125 
Q 15.375 64.15625 9.8125 62.3125 
L 9.8125 71.09375 
Q 15.4375 72.65625 20.34375 73.4375 
Q 25.25 74.21875 29.59375 74.21875 
Q 40.828125 74.21875 47.359375 69.109375 
Q 53.90625 64.015625 53.90625 55.328125 
Q 53.90625 49.265625 50.4375 45.09375 
Q 46.96875 40.921875 40.578125 39.3125 
z
" id="DejaVuSans-51"/>
       </defs>
       <use xlink:href="#DejaVuSans-51"/>
       <use x="63.623047" xlink:href="#DejaVuSans-48"/>
       <use x="127.246094" xlink:href="#DejaVuSans-48"/>
      </g>
     </g>
    </g>
    <g id="ytick_5">
     <g id="line2d_24">
      <path clip-path="url(#p45b36bd0bd)" d="M 43.025125 51.466411 
L 400.145125 51.466411 
" style="fill:none;stroke:#ffffff;"/>
     </g>
     <g id="line2d_25">
      <path d="M 43.025125 51.466411 
" style="fill:none;stroke:#333333;stroke-width:1.5;"/>
      <g>
       <use style="fill:#333333;stroke:#000000;" x="43.025125" xlink:href="#mbd6e936f3c" y="51.466411"/>
      </g>
     </g>
     <g id="text_13">
      <!-- 400 -->
      <g style="fill:#00008b;" transform="translate(21.278125 53.894661)scale(0.088 -0.088)">
       <defs>
        <path d="M 37.796875 64.3125 
L 12.890625 25.390625 
L 37.796875 25.390625 
z
M 35.203125 72.90625 
L 47.609375 72.90625 
L 47.609375 25.390625 
L 58.015625 25.390625 
L 58.015625 17.1875 
L 47.609375 17.1875 
L 47.609375 0 
L 37.796875 0 
L 37.796875 17.1875 
L 4.890625 17.1875 
L 4.890625 26.703125 
z
" id="DejaVuSans-52"/>
       </defs>
       <use xlink:href="#DejaVuSans-52"/>
       <use x="63.623047" xlink:href="#DejaVuSans-48"/>
       <use x="127.246094" xlink:href="#DejaVuSans-48"/>
      </g>
     </g>
    </g>
    <g id="ytick_6">
     <g id="line2d_26">
      <path clip-path="url(#p45b36bd0bd)" d="M 43.025125 263.146411 
L 400.145125 263.146411 
" style="fill:none;stroke:#ffffff;stroke-width:0.5;"/>
     </g>
    </g>
    <g id="ytick_7">
     <g id="line2d_27">
      <path clip-path="url(#p45b36bd0bd)" d="M 43.025125 202.666411 
L 400.145125 202.666411 
" style="fill:none;stroke:#ffffff;stroke-width:0.5;"/>
     </g>
    </g>
    <g id="ytick_8">
     <g id="line2d_28">
      <path clip-path="url(#p45b36bd0bd)" d="M 43.025125 142.186411 
L 400.145125 142.186411 
" style="fill:none;stroke:#ffffff;stroke-width:0.5;"/>
     </g>
    </g>
    <g id="ytick_9">
     <g id="line2d_29">
      <path clip-path="url(#p45b36bd0bd)" d="M 43.025125 81.706411 
L 400.145125 81.706411 
" style="fill:none;stroke:#ffffff;stroke-width:0.5;"/>
     </g>
    </g>
    <g id="text_14">
     <!-- Inmate Covid19 positive test result -->
     <g style="fill:#00008b;" transform="translate(14.798438 258.461692)rotate(-90)scale(0.1 -0.1)">
      <defs>
       <path d="M 9.8125 72.90625 
L 19.671875 72.90625 
L 19.671875 0 
L 9.8125 0 
z
" id="DejaVuSans-73"/>
       <path d="M 52 44.1875 
Q 55.375 50.25 60.0625 53.125 
Q 64.75 56 71.09375 56 
Q 79.640625 56 84.28125 50.015625 
Q 88.921875 44.046875 88.921875 33.015625 
L 88.921875 0 
L 79.890625 0 
L 79.890625 32.71875 
Q 79.890625 40.578125 77.09375 44.375 
Q 74.3125 48.1875 68.609375 48.1875 
Q 61.625 48.1875 57.5625 43.546875 
Q 53.515625 38.921875 53.515625 30.90625 
L 53.515625 0 
L 44.484375 0 
L 44.484375 32.71875 
Q 44.484375 40.625 41.703125 44.40625 
Q 38.921875 48.1875 33.109375 48.1875 
Q 26.21875 48.1875 22.15625 43.53125 
Q 18.109375 38.875 18.109375 30.90625 
L 18.109375 0 
L 9.078125 0 
L 9.078125 54.6875 
L 18.109375 54.6875 
L 18.109375 46.1875 
Q 21.1875 51.21875 25.484375 53.609375 
Q 29.78125 56 35.6875 56 
Q 41.65625 56 45.828125 52.96875 
Q 50 49.953125 52 44.1875 
z
" id="DejaVuSans-109"/>
       <path id="DejaVuSans-32"/>
       <path d="M 64.40625 67.28125 
L 64.40625 56.890625 
Q 59.421875 61.53125 53.78125 63.8125 
Q 48.140625 66.109375 41.796875 66.109375 
Q 29.296875 66.109375 22.65625 58.46875 
Q 16.015625 50.828125 16.015625 36.375 
Q 16.015625 21.96875 22.65625 14.328125 
Q 29.296875 6.6875 41.796875 6.6875 
Q 48.140625 6.6875 53.78125 8.984375 
Q 59.421875 11.28125 64.40625 15.921875 
L 64.40625 5.609375 
Q 59.234375 2.09375 53.4375 0.328125 
Q 47.65625 -1.421875 41.21875 -1.421875 
Q 24.65625 -1.421875 15.125 8.703125 
Q 5.609375 18.84375 5.609375 36.375 
Q 5.609375 53.953125 15.125 64.078125 
Q 24.65625 74.21875 41.21875 74.21875 
Q 47.75 74.21875 53.53125 72.484375 
Q 59.328125 70.75 64.40625 67.28125 
z
" id="DejaVuSans-67"/>
       <path d="M 9.421875 54.6875 
L 18.40625 54.6875 
L 18.40625 0 
L 9.421875 0 
z
M 9.421875 75.984375 
L 18.40625 75.984375 
L 18.40625 64.59375 
L 9.421875 64.59375 
z
" id="DejaVuSans-105"/>
       <path d="M 45.40625 46.390625 
L 45.40625 75.984375 
L 54.390625 75.984375 
L 54.390625 0 
L 45.40625 0 
L 45.40625 8.203125 
Q 42.578125 3.328125 38.25 0.953125 
Q 33.9375 -1.421875 27.875 -1.421875 
Q 17.96875 -1.421875 11.734375 6.484375 
Q 5.515625 14.40625 5.515625 27.296875 
Q 5.515625 40.1875 11.734375 48.09375 
Q 17.96875 56 27.875 56 
Q 33.9375 56 38.25 53.625 
Q 42.578125 51.265625 45.40625 46.390625 
z
M 14.796875 27.296875 
Q 14.796875 17.390625 18.875 11.75 
Q 22.953125 6.109375 30.078125 6.109375 
Q 37.203125 6.109375 41.296875 11.75 
Q 45.40625 17.390625 45.40625 27.296875 
Q 45.40625 37.203125 41.296875 42.84375 
Q 37.203125 48.484375 30.078125 48.484375 
Q 22.953125 48.484375 18.875 42.84375 
Q 14.796875 37.203125 14.796875 27.296875 
z
" id="DejaVuSans-100"/>
       <path d="M 10.984375 1.515625 
L 10.984375 10.5 
Q 14.703125 8.734375 18.5 7.8125 
Q 22.3125 6.890625 25.984375 6.890625 
Q 35.75 6.890625 40.890625 13.453125 
Q 46.046875 20.015625 46.78125 33.40625 
Q 43.953125 29.203125 39.59375 26.953125 
Q 35.25 24.703125 29.984375 24.703125 
Q 19.046875 24.703125 12.671875 31.3125 
Q 6.296875 37.9375 6.296875 49.421875 
Q 6.296875 60.640625 12.9375 67.421875 
Q 19.578125 74.21875 30.609375 74.21875 
Q 43.265625 74.21875 49.921875 64.515625 
Q 56.59375 54.828125 56.59375 36.375 
Q 56.59375 19.140625 48.40625 8.859375 
Q 40.234375 -1.421875 26.421875 -1.421875 
Q 22.703125 -1.421875 18.890625 -0.6875 
Q 15.09375 0.046875 10.984375 1.515625 
z
M 30.609375 32.421875 
Q 37.25 32.421875 41.125 36.953125 
Q 45.015625 41.5 45.015625 49.421875 
Q 45.015625 57.28125 41.125 61.84375 
Q 37.25 66.40625 30.609375 66.40625 
Q 23.96875 66.40625 20.09375 61.84375 
Q 16.21875 57.28125 16.21875 49.421875 
Q 16.21875 41.5 20.09375 36.953125 
Q 23.96875 32.421875 30.609375 32.421875 
z
" id="DejaVuSans-57"/>
       <path d="M 44.28125 53.078125 
L 44.28125 44.578125 
Q 40.484375 46.53125 36.375 47.5 
Q 32.28125 48.484375 27.875 48.484375 
Q 21.1875 48.484375 17.84375 46.4375 
Q 14.5 44.390625 14.5 40.28125 
Q 14.5 37.15625 16.890625 35.375 
Q 19.28125 33.59375 26.515625 31.984375 
L 29.59375 31.296875 
Q 39.15625 29.25 43.1875 25.515625 
Q 47.21875 21.78125 47.21875 15.09375 
Q 47.21875 7.46875 41.1875 3.015625 
Q 35.15625 -1.421875 24.609375 -1.421875 
Q 20.21875 -1.421875 15.453125 -0.5625 
Q 10.6875 0.296875 5.421875 2 
L 5.421875 11.28125 
Q 10.40625 8.6875 15.234375 7.390625 
Q 20.0625 6.109375 24.8125 6.109375 
Q 31.15625 6.109375 34.5625 8.28125 
Q 37.984375 10.453125 37.984375 14.40625 
Q 37.984375 18.0625 35.515625 20.015625 
Q 33.0625 21.96875 24.703125 23.78125 
L 21.578125 24.515625 
Q 13.234375 26.265625 9.515625 29.90625 
Q 5.8125 33.546875 5.8125 39.890625 
Q 5.8125 47.609375 11.28125 51.796875 
Q 16.75 56 26.8125 56 
Q 31.78125 56 36.171875 55.265625 
Q 40.578125 54.546875 44.28125 53.078125 
z
" id="DejaVuSans-115"/>
      </defs>
      <use xlink:href="#DejaVuSans-73"/>
      <use x="29.492188" xlink:href="#DejaVuSans-110"/>
      <use x="92.871094" xlink:href="#DejaVuSans-109"/>
      <use x="190.283203" xlink:href="#DejaVuSans-97"/>
      <use x="251.5625" xlink:href="#DejaVuSans-116"/>
      <use x="290.771484" xlink:href="#DejaVuSans-101"/>
      <use x="352.294922" xlink:href="#DejaVuSans-32"/>
      <use x="384.082031" xlink:href="#DejaVuSans-67"/>
      <use x="453.90625" xlink:href="#DejaVuSans-111"/>
      <use x="515.087891" xlink:href="#DejaVuSans-118"/>
      <use x="574.267578" xlink:href="#DejaVuSans-105"/>
      <use x="602.050781" xlink:href="#DejaVuSans-100"/>
      <use x="665.527344" xlink:href="#DejaVuSans-49"/>
      <use x="729.150391" xlink:href="#DejaVuSans-57"/>
      <use x="792.773438" xlink:href="#DejaVuSans-32"/>
      <use x="824.560547" xlink:href="#DejaVuSans-112"/>
      <use x="888.037109" xlink:href="#DejaVuSans-111"/>
      <use x="949.21875" xlink:href="#DejaVuSans-115"/>
      <use x="1001.318359" xlink:href="#DejaVuSans-105"/>
      <use x="1029.101562" xlink:href="#DejaVuSans-116"/>
      <use x="1068.310547" xlink:href="#DejaVuSans-105"/>
      <use x="1096.09375" xlink:href="#DejaVuSans-118"/>
      <use x="1155.273438" xlink:href="#DejaVuSans-101"/>
      <use x="1216.796875" xlink:href="#DejaVuSans-32"/>
      <use x="1248.583984" xlink:href="#DejaVuSans-116"/>
      <use x="1287.792969" xlink:href="#DejaVuSans-101"/>
      <use x="1349.316406" xlink:href="#DejaVuSans-115"/>
      <use x="1401.416016" xlink:href="#DejaVuSans-116"/>
      <use x="1440.625" xlink:href="#DejaVuSans-32"/>
      <use x="1472.412109" xlink:href="#DejaVuSans-114"/>
      <use x="1511.275391" xlink:href="#DejaVuSans-101"/>
      <use x="1572.798828" xlink:href="#DejaVuSans-115"/>
      <use x="1624.898438" xlink:href="#DejaVuSans-117"/>
      <use x="1688.277344" xlink:href="#DejaVuSans-108"/>
      <use x="1716.060547" xlink:href="#DejaVuSans-116"/>
     </g>
    </g>
   </g>
   <g id="PathCollection_1">
    <path clip-path="url(#p45b36bd0bd)" d="M 59.257852 290.200724 
C 59.375367 290.200724 59.488085 290.154035 59.571181 290.070939 
C 59.654277 289.987844 59.700966 289.875126 59.700966 289.757611 
C 59.700966 289.640096 59.654277 289.527378 59.571181 289.444282 
C 59.488085 289.361187 59.375367 289.314497 59.257852 289.314497 
C 59.140337 289.314497 59.027619 289.361187 58.944524 289.444282 
C 58.861428 289.527378 58.814739 289.640096 58.814739 289.757611 
C 58.814739 289.875126 58.861428 289.987844 58.944524 290.070939 
C 59.027619 290.154035 59.140337 290.200724 59.257852 290.200724 
z
" style="fill:#ffffff;stroke:#ffffff;stroke-width:0.886227;"/>
    <path clip-path="url(#p45b36bd0bd)" d="M 69.403307 293.829524 
C 69.520822 293.829524 69.63354 293.782835 69.716635 293.699739 
C 69.799731 293.616644 69.84642 293.503926 69.84642 293.386411 
C 69.84642 293.268896 69.799731 293.156178 69.716635 293.073082 
C 69.63354 292.989987 69.520822 292.943297 69.403307 292.943297 
C 69.285792 292.943297 69.173074 292.989987 69.089978 293.073082 
C 69.006883 293.156178 68.960193 293.268896 68.960193 293.386411 
C 68.960193 293.503926 69.006883 293.616644 69.089978 293.699739 
C 69.173074 293.782835 69.285792 293.829524 69.403307 293.829524 
z
" style="fill:#ffffff;stroke:#ffffff;stroke-width:0.886227;"/>
    <path clip-path="url(#p45b36bd0bd)" d="M 79.548761 293.829524 
C 79.666276 293.829524 79.778994 293.782835 79.86209 293.699739 
C 79.945186 293.616644 79.991875 293.503926 79.991875 293.386411 
C 79.991875 293.268896 79.945186 293.156178 79.86209 293.073082 
C 79.778994 292.989987 79.666276 292.943297 79.548761 292.943297 
C 79.431246 292.943297 79.318529 292.989987 79.235433 293.073082 
C 79.152337 293.156178 79.105648 293.268896 79.105648 293.386411 
C 79.105648 293.503926 79.152337 293.616644 79.235433 293.699739 
C 79.318529 293.782835 79.431246 293.829524 79.548761 293.829524 
z
" style="fill:#ffffff;stroke:#ffffff;stroke-width:0.886227;"/>
    <path clip-path="url(#p45b36bd0bd)" d="M 89.694216 293.829524 
C 89.811731 293.829524 89.924449 293.782835 90.007544 293.699739 
C 90.09064 293.616644 90.137329 293.503926 90.137329 293.386411 
C 90.137329 293.268896 90.09064 293.156178 90.007544 293.073082 
C 89.924449 292.989987 89.811731 292.943297 89.694216 292.943297 
C 89.576701 292.943297 89.463983 292.989987 89.380887 293.073082 
C 89.297792 293.156178 89.251102 293.268896 89.251102 293.386411 
C 89.251102 293.503926 89.297792 293.616644 89.380887 293.699739 
C 89.463983 293.782835 89.576701 293.829524 89.694216 293.829524 
z
" style="fill:#ffffff;stroke:#ffffff;stroke-width:0.886227;"/>
    <path clip-path="url(#p45b36bd0bd)" d="M 99.83967 229.720724 
C 99.957186 229.720724 100.069903 229.674035 100.152999 229.590939 
C 100.236095 229.507844 100.282784 229.395126 100.282784 229.277611 
C 100.282784 229.160096 100.236095 229.047378 100.152999 228.964282 
C 100.069903 228.881187 99.957186 228.834497 99.83967 228.834497 
C 99.722155 228.834497 99.609438 228.881187 99.526342 228.964282 
C 99.443246 229.047378 99.396557 229.160096 99.396557 229.277611 
C 99.396557 229.395126 99.443246 229.507844 99.526342 229.590939 
C 99.609438 229.674035 99.722155 229.720724 99.83967 229.720724 
z
" style="fill:#ffffff;stroke:#ffffff;stroke-width:0.886227;"/>
    <path clip-path="url(#p45b36bd0bd)" d="M 109.985125 288.386324 
C 110.10264 288.386324 110.215358 288.339635 110.298454 288.256539 
C 110.381549 288.173444 110.428238 288.060726 110.428238 287.943211 
C 110.428238 287.825696 110.381549 287.712978 110.298454 287.629882 
C 110.215358 287.546787 110.10264 287.500097 109.985125 287.500097 
C 109.86761 287.500097 109.754892 287.546787 109.671796 287.629882 
C 109.588701 287.712978 109.542012 287.825696 109.542012 287.943211 
C 109.542012 288.060726 109.588701 288.173444 109.671796 288.256539 
C 109.754892 288.339635 109.86761 288.386324 109.985125 288.386324 
z
" style="fill:#ffffff;stroke:#ffffff;stroke-width:0.886227;"/>
    <path clip-path="url(#p45b36bd0bd)" d="M 120.13058 282.943124 
C 120.248095 282.943124 120.360812 282.896435 120.443908 282.813339 
C 120.527004 282.730244 120.573693 282.617526 120.573693 282.500011 
C 120.573693 282.382496 120.527004 282.269778 120.443908 282.186682 
C 120.360812 282.103587 120.248095 282.056897 120.13058 282.056897 
C 120.013064 282.056897 119.900347 282.103587 119.817251 282.186682 
C 119.734155 282.269778 119.687466 282.382496 119.687466 282.500011 
C 119.687466 282.617526 119.734155 282.730244 119.817251 282.813339 
C 119.900347 282.896435 120.013064 282.943124 120.13058 282.943124 
z
" style="fill:#ffffff;stroke:#ffffff;stroke-width:0.886227;"/>
    <path clip-path="url(#p45b36bd0bd)" d="M 130.276034 287.781524 
C 130.393549 287.781524 130.506267 287.734835 130.589363 287.651739 
C 130.672458 287.568644 130.719148 287.455926 130.719148 287.338411 
C 130.719148 287.220896 130.672458 287.108178 130.589363 287.025082 
C 130.506267 286.941987 130.393549 286.895297 130.276034 286.895297 
C 130.158519 286.895297 130.045801 286.941987 129.962706 287.025082 
C 129.87961 287.108178 129.832921 287.220896 129.832921 287.338411 
C 129.832921 287.455926 129.87961 287.568644 129.962706 287.651739 
C 130.045801 287.734835 130.158519 287.781524 130.276034 287.781524 
z
" style="fill:#ffffff;stroke:#ffffff;stroke-width:0.886227;"/>
    <path clip-path="url(#p45b36bd0bd)" d="M 140.421489 291.410324 
C 140.539004 291.410324 140.651721 291.363635 140.734817 291.280539 
C 140.817913 291.197444 140.864602 291.084726 140.864602 290.967211 
C 140.864602 290.849696 140.817913 290.736978 140.734817 290.653882 
C 140.651721 290.570787 140.539004 290.524097 140.421489 290.524097 
C 140.303974 290.524097 140.191256 290.570787 140.10816 290.653882 
C 140.025064 290.736978 139.978375 290.849696 139.978375 290.967211 
C 139.978375 291.084726 140.025064 291.197444 140.10816 291.280539 
C 140.191256 291.363635 140.303974 291.410324 140.421489 291.410324 
z
" style="fill:#ffffff;stroke:#ffffff;stroke-width:0.886227;"/>
    <path clip-path="url(#p45b36bd0bd)" d="M 150.566943 287.781524 
C 150.684458 287.781524 150.797176 287.734835 150.880272 287.651739 
C 150.963367 287.568644 151.010057 287.455926 151.010057 287.338411 
C 151.010057 287.220896 150.963367 287.108178 150.880272 287.025082 
C 150.797176 286.941987 150.684458 286.895297 150.566943 286.895297 
C 150.449428 286.895297 150.33671 286.941987 150.253615 287.025082 
C 150.170519 287.108178 150.12383 287.220896 150.12383 287.338411 
C 150.12383 287.455926 150.170519 287.568644 150.253615 287.651739 
C 150.33671 287.734835 150.449428 287.781524 150.566943 287.781524 
z
" style="fill:#ffffff;stroke:#ffffff;stroke-width:0.886227;"/>
    <path clip-path="url(#p45b36bd0bd)" d="M 160.712398 290.200724 
C 160.829913 290.200724 160.942631 290.154035 161.025726 290.070939 
C 161.108822 289.987844 161.155511 289.875126 161.155511 289.757611 
C 161.155511 289.640096 161.108822 289.527378 161.025726 289.444282 
C 160.942631 289.361187 160.829913 289.314497 160.712398 289.314497 
C 160.594883 289.314497 160.482165 289.361187 160.399069 289.444282 
C 160.315973 289.527378 160.269284 289.640096 160.269284 289.757611 
C 160.269284 289.875126 160.315973 289.987844 160.399069 290.070939 
C 160.482165 290.154035 160.594883 290.200724 160.712398 290.200724 
z
" style="fill:#ffffff;stroke:#ffffff;stroke-width:0.886227;"/>
    <path clip-path="url(#p45b36bd0bd)" d="M 170.857852 289.595924 
C 170.975367 289.595924 171.088085 289.549235 171.171181 289.466139 
C 171.254277 289.383044 171.300966 289.270326 171.300966 289.152811 
C 171.300966 289.035296 171.254277 288.922578 171.171181 288.839482 
C 171.088085 288.756387 170.975367 288.709697 170.857852 288.709697 
C 170.740337 288.709697 170.627619 288.756387 170.544524 288.839482 
C 170.461428 288.922578 170.414739 289.035296 170.414739 289.152811 
C 170.414739 289.270326 170.461428 289.383044 170.544524 289.466139 
C 170.627619 289.549235 170.740337 289.595924 170.857852 289.595924 
z
" style="fill:#ffffff;stroke:#ffffff;stroke-width:0.886227;"/>
    <path clip-path="url(#p45b36bd0bd)" d="M 181.003307 292.619924 
C 181.120822 292.619924 181.23354 292.573235 181.316635 292.490139 
C 181.399731 292.407044 181.44642 292.294326 181.44642 292.176811 
C 181.44642 292.059296 181.399731 291.946578 181.316635 291.863482 
C 181.23354 291.780387 181.120822 291.733697 181.003307 291.733697 
C 180.885792 291.733697 180.773074 291.780387 180.689978 291.863482 
C 180.606883 291.946578 180.560193 292.059296 180.560193 292.176811 
C 180.560193 292.294326 180.606883 292.407044 180.689978 292.490139 
C 180.773074 292.573235 180.885792 292.619924 181.003307 292.619924 
z
" style="fill:#ffffff;stroke:#ffffff;stroke-width:0.886227;"/>
    <path clip-path="url(#p45b36bd0bd)" d="M 191.148761 289.595924 
C 191.266276 289.595924 191.378994 289.549235 191.46209 289.466139 
C 191.545186 289.383044 191.591875 289.270326 191.591875 289.152811 
C 191.591875 289.035296 191.545186 288.922578 191.46209 288.839482 
C 191.378994 288.756387 191.266276 288.709697 191.148761 288.709697 
C 191.031246 288.709697 190.918529 288.756387 190.835433 288.839482 
C 190.752337 288.922578 190.705648 289.035296 190.705648 289.152811 
C 190.705648 289.270326 190.752337 289.383044 190.835433 289.466139 
C 190.918529 289.549235 191.031246 289.595924 191.148761 289.595924 
z
" style="fill:#ffffff;stroke:#ffffff;stroke-width:0.886227;"/>
    <path clip-path="url(#p45b36bd0bd)" d="M 201.294216 291.410324 
C 201.411731 291.410324 201.524449 291.363635 201.607544 291.280539 
C 201.69064 291.197444 201.737329 291.084726 201.737329 290.967211 
C 201.737329 290.849696 201.69064 290.736978 201.607544 290.653882 
C 201.524449 290.570787 201.411731 290.524097 201.294216 290.524097 
C 201.176701 290.524097 201.063983 290.570787 200.980887 290.653882 
C 200.897792 290.736978 200.851102 290.849696 200.851102 290.967211 
C 200.851102 291.084726 200.897792 291.197444 200.980887 291.280539 
C 201.063983 291.363635 201.176701 291.410324 201.294216 291.410324 
z
" style="fill:#ffffff;stroke:#ffffff;stroke-width:0.886227;"/>
    <path clip-path="url(#p45b36bd0bd)" d="M 211.43967 293.224724 
C 211.557186 293.224724 211.669903 293.178035 211.752999 293.094939 
C 211.836095 293.011844 211.882784 292.899126 211.882784 292.781611 
C 211.882784 292.664096 211.836095 292.551378 211.752999 292.468282 
C 211.669903 292.385187 211.557186 292.338497 211.43967 292.338497 
C 211.322155 292.338497 211.209438 292.385187 211.126342 292.468282 
C 211.043246 292.551378 210.996557 292.664096 210.996557 292.781611 
C 210.996557 292.899126 211.043246 293.011844 211.126342 293.094939 
C 211.209438 293.178035 211.322155 293.224724 211.43967 293.224724 
z
" style="fill:#ffffff;stroke:#ffffff;stroke-width:0.886227;"/>
    <path clip-path="url(#p45b36bd0bd)" d="M 221.585125 289.595924 
C 221.70264 289.595924 221.815358 289.549235 221.898454 289.466139 
C 221.981549 289.383044 222.028238 289.270326 222.028238 289.152811 
C 222.028238 289.035296 221.981549 288.922578 221.898454 288.839482 
C 221.815358 288.756387 221.70264 288.709697 221.585125 288.709697 
C 221.46761 288.709697 221.354892 288.756387 221.271796 288.839482 
C 221.188701 288.922578 221.142012 289.035296 221.142012 289.152811 
C 221.142012 289.270326 221.188701 289.383044 221.271796 289.466139 
C 221.354892 289.549235 221.46761 289.595924 221.585125 289.595924 
z
" style="fill:#ffffff;stroke:#ffffff;stroke-width:0.886227;"/>
    <path clip-path="url(#p45b36bd0bd)" d="M 231.73058 292.619924 
C 231.848095 292.619924 231.960812 292.573235 232.043908 292.490139 
C 232.127004 292.407044 232.173693 292.294326 232.173693 292.176811 
C 232.173693 292.059296 232.127004 291.946578 232.043908 291.863482 
C 231.960812 291.780387 231.848095 291.733697 231.73058 291.733697 
C 231.613064 291.733697 231.500347 291.780387 231.417251 291.863482 
C 231.334155 291.946578 231.287466 292.059296 231.287466 292.176811 
C 231.287466 292.294326 231.334155 292.407044 231.417251 292.490139 
C 231.500347 292.573235 231.613064 292.619924 231.73058 292.619924 
z
" style="fill:#ffffff;stroke:#ffffff;stroke-width:0.886227;"/>
    <path clip-path="url(#p45b36bd0bd)" d="M 241.876034 293.224724 
C 241.993549 293.224724 242.106267 293.178035 242.189363 293.094939 
C 242.272458 293.011844 242.319148 292.899126 242.319148 292.781611 
C 242.319148 292.664096 242.272458 292.551378 242.189363 292.468282 
C 242.106267 292.385187 241.993549 292.338497 241.876034 292.338497 
C 241.758519 292.338497 241.645801 292.385187 241.562706 292.468282 
C 241.47961 292.551378 241.432921 292.664096 241.432921 292.781611 
C 241.432921 292.899126 241.47961 293.011844 241.562706 293.094939 
C 241.645801 293.178035 241.758519 293.224724 241.876034 293.224724 
z
" style="fill:#ffffff;stroke:#ffffff;stroke-width:0.886227;"/>
    <path clip-path="url(#p45b36bd0bd)" d="M 252.021489 293.829524 
C 252.139004 293.829524 252.251721 293.782835 252.334817 293.699739 
C 252.417913 293.616644 252.464602 293.503926 252.464602 293.386411 
C 252.464602 293.268896 252.417913 293.156178 252.334817 293.073082 
C 252.251721 292.989987 252.139004 292.943297 252.021489 292.943297 
C 251.903974 292.943297 251.791256 292.989987 251.70816 293.073082 
C 251.625064 293.156178 251.578375 293.268896 251.578375 293.386411 
C 251.578375 293.503926 251.625064 293.616644 251.70816 293.699739 
C 251.791256 293.782835 251.903974 293.829524 252.021489 293.829524 
z
" style="fill:#ffffff;stroke:#ffffff;stroke-width:0.886227;"/>
    <path clip-path="url(#p45b36bd0bd)" d="M 262.166943 281.733524 
C 262.284458 281.733524 262.397176 281.686835 262.480272 281.603739 
C 262.563367 281.520644 262.610057 281.407926 262.610057 281.290411 
C 262.610057 281.172896 262.563367 281.060178 262.480272 280.977082 
C 262.397176 280.893987 262.284458 280.847297 262.166943 280.847297 
C 262.049428 280.847297 261.93671 280.893987 261.853615 280.977082 
C 261.770519 281.060178 261.72383 281.172896 261.72383 281.290411 
C 261.72383 281.407926 261.770519 281.520644 261.853615 281.603739 
C 261.93671 281.686835 262.049428 281.733524 262.166943 281.733524 
z
" style="fill:#ffffff;stroke:#ffffff;stroke-width:0.886227;"/>
    <path clip-path="url(#p45b36bd0bd)" d="M 272.312398 293.829524 
C 272.429913 293.829524 272.542631 293.782835 272.625726 293.699739 
C 272.708822 293.616644 272.755511 293.503926 272.755511 293.386411 
C 272.755511 293.268896 272.708822 293.156178 272.625726 293.073082 
C 272.542631 292.989987 272.429913 292.943297 272.312398 292.943297 
C 272.194883 292.943297 272.082165 292.989987 271.999069 293.073082 
C 271.915973 293.156178 271.869284 293.268896 271.869284 293.386411 
C 271.869284 293.503926 271.915973 293.616644 271.999069 293.699739 
C 272.082165 293.782835 272.194883 293.829524 272.312398 293.829524 
z
" style="fill:#ffffff;stroke:#ffffff;stroke-width:0.886227;"/>
    <path clip-path="url(#p45b36bd0bd)" d="M 282.457852 293.829524 
C 282.575367 293.829524 282.688085 293.782835 282.771181 293.699739 
C 282.854277 293.616644 282.900966 293.503926 282.900966 293.386411 
C 282.900966 293.268896 282.854277 293.156178 282.771181 293.073082 
C 282.688085 292.989987 282.575367 292.943297 282.457852 292.943297 
C 282.340337 292.943297 282.227619 292.989987 282.144524 293.073082 
C 282.061428 293.156178 282.014739 293.268896 282.014739 293.386411 
C 282.014739 293.503926 282.061428 293.616644 282.144524 293.699739 
C 282.227619 293.782835 282.340337 293.829524 282.457852 293.829524 
z
" style="fill:#ffffff;stroke:#ffffff;stroke-width:0.886227;"/>
    <path clip-path="url(#p45b36bd0bd)" d="M 292.603307 293.829524 
C 292.720822 293.829524 292.83354 293.782835 292.916635 293.699739 
C 292.999731 293.616644 293.04642 293.503926 293.04642 293.386411 
C 293.04642 293.268896 292.999731 293.156178 292.916635 293.073082 
C 292.83354 292.989987 292.720822 292.943297 292.603307 292.943297 
C 292.485792 292.943297 292.373074 292.989987 292.289978 293.073082 
C 292.206883 293.156178 292.160193 293.268896 292.160193 293.386411 
C 292.160193 293.503926 292.206883 293.616644 292.289978 293.699739 
C 292.373074 293.782835 292.485792 293.829524 292.603307 293.829524 
z
" style="fill:#ffffff;stroke:#ffffff;stroke-width:0.886227;"/>
    <path clip-path="url(#p45b36bd0bd)" d="M 302.748761 244.840724 
C 302.866276 244.840724 302.978994 244.794035 303.06209 244.710939 
C 303.145186 244.627844 303.191875 244.515126 303.191875 244.397611 
C 303.191875 244.280096 303.145186 244.167378 303.06209 244.084282 
C 302.978994 244.001187 302.866276 243.954497 302.748761 243.954497 
C 302.631246 243.954497 302.518529 244.001187 302.435433 244.084282 
C 302.352337 244.167378 302.305648 244.280096 302.305648 244.397611 
C 302.305648 244.515126 302.352337 244.627844 302.435433 244.710939 
C 302.518529 244.794035 302.631246 244.840724 302.748761 244.840724 
z
" style="fill:#ffffff;stroke:#ffffff;stroke-width:0.886227;"/>
    <path clip-path="url(#p45b36bd0bd)" d="M 312.894216 270.847124 
C 313.011731 270.847124 313.124449 270.800435 313.207544 270.717339 
C 313.29064 270.634244 313.337329 270.521526 313.337329 270.404011 
C 313.337329 270.286496 313.29064 270.173778 313.207544 270.090682 
C 313.124449 270.007587 313.011731 269.960897 312.894216 269.960897 
C 312.776701 269.960897 312.663983 270.007587 312.580887 270.090682 
C 312.497792 270.173778 312.451102 270.286496 312.451102 270.404011 
C 312.451102 270.521526 312.497792 270.634244 312.580887 270.717339 
C 312.663983 270.800435 312.776701 270.847124 312.894216 270.847124 
z
" style="fill:#ffffff;stroke:#ffffff;stroke-width:0.886227;"/>
    <path clip-path="url(#p45b36bd0bd)" d="M 323.03967 277.499924 
C 323.157186 277.499924 323.269903 277.453235 323.352999 277.370139 
C 323.436095 277.287044 323.482784 277.174326 323.482784 277.056811 
C 323.482784 276.939296 323.436095 276.826578 323.352999 276.743482 
C 323.269903 276.660387 323.157186 276.613697 323.03967 276.613697 
C 322.922155 276.613697 322.809438 276.660387 322.726342 276.743482 
C 322.643246 276.826578 322.596557 276.939296 322.596557 277.056811 
C 322.596557 277.174326 322.643246 277.287044 322.726342 277.370139 
C 322.809438 277.453235 322.922155 277.499924 323.03967 277.499924 
z
" style="fill:#ffffff;stroke:#ffffff;stroke-width:0.886227;"/>
    <path clip-path="url(#p45b36bd0bd)" d="M 333.185125 262.984724 
C 333.30264 262.984724 333.415358 262.938035 333.498454 262.854939 
C 333.581549 262.771844 333.628238 262.659126 333.628238 262.541611 
C 333.628238 262.424096 333.581549 262.311378 333.498454 262.228282 
C 333.415358 262.145187 333.30264 262.098497 333.185125 262.098497 
C 333.06761 262.098497 332.954892 262.145187 332.871796 262.228282 
C 332.788701 262.311378 332.742012 262.424096 332.742012 262.541611 
C 332.742012 262.659126 332.788701 262.771844 332.871796 262.854939 
C 332.954892 262.938035 333.06761 262.984724 333.185125 262.984724 
z
" style="fill:#ffffff;stroke:#ffffff;stroke-width:0.886227;"/>
    <path clip-path="url(#p45b36bd0bd)" d="M 343.33058 213.995924 
C 343.448095 213.995924 343.560812 213.949235 343.643908 213.866139 
C 343.727004 213.783044 343.773693 213.670326 343.773693 213.552811 
C 343.773693 213.435296 343.727004 213.322578 343.643908 213.239482 
C 343.560812 213.156387 343.448095 213.109697 343.33058 213.109697 
C 343.213064 213.109697 343.100347 213.156387 343.017251 213.239482 
C 342.934155 213.322578 342.887466 213.435296 342.887466 213.552811 
C 342.887466 213.670326 342.934155 213.783044 343.017251 213.866139 
C 343.100347 213.949235 343.213064 213.995924 343.33058 213.995924 
z
" style="fill:#ffffff;stroke:#ffffff;stroke-width:0.886227;"/>
    <path clip-path="url(#p45b36bd0bd)" d="M 353.476034 236.373524 
C 353.593549 236.373524 353.706267 236.326835 353.789363 236.243739 
C 353.872458 236.160644 353.919148 236.047926 353.919148 235.930411 
C 353.919148 235.812896 353.872458 235.700178 353.789363 235.617082 
C 353.706267 235.533987 353.593549 235.487297 353.476034 235.487297 
C 353.358519 235.487297 353.245801 235.533987 353.162706 235.617082 
C 353.07961 235.700178 353.032921 235.812896 353.032921 235.930411 
C 353.032921 236.047926 353.07961 236.160644 353.162706 236.243739 
C 353.245801 236.326835 353.358519 236.373524 353.476034 236.373524 
z
" style="fill:#ffffff;stroke:#ffffff;stroke-width:0.886227;"/>
    <path clip-path="url(#p45b36bd0bd)" d="M 363.621489 158.959124 
C 363.739004 158.959124 363.851721 158.912435 363.934817 158.829339 
C 364.017913 158.746244 364.064602 158.633526 364.064602 158.516011 
C 364.064602 158.398496 364.017913 158.285778 363.934817 158.202682 
C 363.851721 158.119587 363.739004 158.072897 363.621489 158.072897 
C 363.503974 158.072897 363.391256 158.119587 363.30816 158.202682 
C 363.225064 158.285778 363.178375 158.398496 363.178375 158.516011 
C 363.178375 158.633526 363.225064 158.746244 363.30816 158.829339 
C 363.391256 158.912435 363.503974 158.959124 363.621489 158.959124 
z
" style="fill:#ffffff;stroke:#ffffff;stroke-width:0.886227;"/>
    <path clip-path="url(#p45b36bd0bd)" d="M 373.766943 74.891924 
C 373.884458 74.891924 373.997176 74.845235 374.080272 74.762139 
C 374.163367 74.679044 374.210057 74.566326 374.210057 74.448811 
C 374.210057 74.331296 374.163367 74.218578 374.080272 74.135482 
C 373.997176 74.052387 373.884458 74.005697 373.766943 74.005697 
C 373.649428 74.005697 373.53671 74.052387 373.453615 74.135482 
C 373.370519 74.218578 373.32383 74.331296 373.32383 74.448811 
C 373.32383 74.566326 373.370519 74.679044 373.453615 74.762139 
C 373.53671 74.845235 373.649428 74.891924 373.766943 74.891924 
z
" style="fill:#ffffff;stroke:#ffffff;stroke-width:0.886227;"/>
    <path clip-path="url(#p45b36bd0bd)" d="M 383.912398 104.527124 
C 384.029913 104.527124 384.142631 104.480435 384.225726 104.397339 
C 384.308822 104.314244 384.355511 104.201526 384.355511 104.084011 
C 384.355511 103.966496 384.308822 103.853778 384.225726 103.770682 
C 384.142631 103.687587 384.029913 103.640897 383.912398 103.640897 
C 383.794883 103.640897 383.682165 103.687587 383.599069 103.770682 
C 383.515973 103.853778 383.469284 103.966496 383.469284 104.084011 
C 383.469284 104.201526 383.515973 104.314244 383.599069 104.397339 
C 383.682165 104.480435 383.794883 104.527124 383.912398 104.527124 
z
" style="fill:#ffffff;stroke:#ffffff;stroke-width:0.886227;"/>
   </g>
   <g id="line2d_30">
    <path clip-path="url(#p45b36bd0bd)" d="M 67.476955 290.739083 
L 71.586506 287.692842 
L 75.696057 284.452135 
L 79.805608 281.531759 
L 83.91516 278.564287 
L 88.024711 275.712352 
L 92.134262 272.992793 
L 96.243813 268.51235 
L 100.353364 265.951648 
L 104.462916 266.266646 
L 108.572467 267.685247 
L 112.682018 270.832785 
L 116.791569 277.822213 
L 120.90112 282.745316 
L 125.010672 286.465789 
L 129.120223 289.726351 
L 133.229774 290.43831 
L 137.339325 289.003079 
L 141.448876 288.593654 
L 145.558428 288.9347 
L 149.667979 289.222009 
L 153.77753 289.332804 
L 157.887081 289.209948 
L 161.996632 289.287638 
L 166.106184 289.604104 
L 170.215735 289.907581 
L 174.325286 290.089951 
L 178.434837 290.269879 
L 182.544389 290.450467 
L 186.65394 290.628631 
L 190.763491 290.781476 
L 194.873042 290.883729 
L 198.982593 290.943287 
L 203.092145 290.97132 
L 207.201696 290.915815 
L 211.311247 290.919685 
L 215.420798 291.027376 
L 219.530349 291.157295 
L 223.639901 291.398641 
L 227.749452 291.964186 
L 231.859003 292.25634 
L 235.968554 292.186028 
L 240.078105 292.016517 
L 244.187657 291.511644 
L 248.297208 290.395707 
L 252.406759 289.679956 
L 256.51631 289.155063 
L 260.625861 288.665163 
L 264.735413 289.360005 
L 268.844964 291.78865 
L 272.954515 292.556141 
L 277.064066 292.498032 
L 281.173618 291.878957 
L 285.283169 288.495862 
L 289.39272 282.511492 
L 293.502271 278.119028 
L 297.611822 273.237505 
L 301.721374 268.58032 
L 305.830925 267.248543 
L 309.940476 267.900535 
L 314.050027 266.968258 
L 318.159578 267.341955 
L 322.26913 267.110358 
L 326.378681 264.420012 
L 330.488232 261.36646 
L 334.597783 256.235424 
L 338.707334 250.317392 
L 342.816886 241.936127 
L 346.926437 227.871449 
L 351.035988 210.21384 
L 355.145539 194.754517 
L 359.25509 178.819451 
L 363.364642 162.639497 
L 367.474193 146.702518 
L 371.583744 130.203629 
L 375.693295 113.401333 
L 379.802847 96.335929 
L 383.912398 78.939226 
" style="fill:none;stroke:#00008b;stroke-linejoin:miter;stroke-width:2.658681;"/>
   </g>
   <g id="patch_3">
    <path d="M 43.025125 305.482411 
L 400.145125 305.482411 
" style="fill:none;stroke:#000000;stroke-linecap:square;stroke-linejoin:miter;stroke-width:0.7;"/>
   </g>
  </g>
  <g id="text_15">
   <!-- Weekly positive Covid19 cases in Pennsylvania prison -->
   <g transform="translate(27.407 17.837812)scale(0.14 -0.14)">
    <defs>
     <path d="M 3.328125 72.90625 
L 13.28125 72.90625 
L 28.609375 11.28125 
L 43.890625 72.90625 
L 54.984375 72.90625 
L 70.3125 11.28125 
L 85.59375 72.90625 
L 95.609375 72.90625 
L 77.296875 0 
L 64.890625 0 
L 49.515625 63.28125 
L 33.984375 0 
L 21.578125 0 
z
" id="DejaVuSans-87"/>
     <path d="M 9.078125 75.984375 
L 18.109375 75.984375 
L 18.109375 31.109375 
L 44.921875 54.6875 
L 56.390625 54.6875 
L 27.390625 29.109375 
L 57.625 0 
L 45.90625 0 
L 18.109375 26.703125 
L 18.109375 0 
L 9.078125 0 
z
" id="DejaVuSans-107"/>
     <path d="M 19.671875 64.796875 
L 19.671875 37.40625 
L 32.078125 37.40625 
Q 38.96875 37.40625 42.71875 40.96875 
Q 46.484375 44.53125 46.484375 51.125 
Q 46.484375 57.671875 42.71875 61.234375 
Q 38.96875 64.796875 32.078125 64.796875 
z
M 9.8125 72.90625 
L 32.078125 72.90625 
Q 44.34375 72.90625 50.609375 67.359375 
Q 56.890625 61.8125 56.890625 51.125 
Q 56.890625 40.328125 50.609375 34.8125 
Q 44.34375 29.296875 32.078125 29.296875 
L 19.671875 29.296875 
L 19.671875 0 
L 9.8125 0 
z
" id="DejaVuSans-80"/>
    </defs>
    <use xlink:href="#DejaVuSans-87"/>
    <use x="93.001953" xlink:href="#DejaVuSans-101"/>
    <use x="154.525391" xlink:href="#DejaVuSans-101"/>
    <use x="216.048828" xlink:href="#DejaVuSans-107"/>
    <use x="273.958984" xlink:href="#DejaVuSans-108"/>
    <use x="301.742188" xlink:href="#DejaVuSans-121"/>
    <use x="360.921875" xlink:href="#DejaVuSans-32"/>
    <use x="392.708984" xlink:href="#DejaVuSans-112"/>
    <use x="456.185547" xlink:href="#DejaVuSans-111"/>
    <use x="517.367188" xlink:href="#DejaVuSans-115"/>
    <use x="569.466797" xlink:href="#DejaVuSans-105"/>
    <use x="597.25" xlink:href="#DejaVuSans-116"/>
    <use x="636.458984" xlink:href="#DejaVuSans-105"/>
    <use x="664.242188" xlink:href="#DejaVuSans-118"/>
    <use x="723.421875" xlink:href="#DejaVuSans-101"/>
    <use x="784.945312" xlink:href="#DejaVuSans-32"/>
    <use x="816.732422" xlink:href="#DejaVuSans-67"/>
    <use x="886.556641" xlink:href="#DejaVuSans-111"/>
    <use x="947.738281" xlink:href="#DejaVuSans-118"/>
    <use x="1006.917969" xlink:href="#DejaVuSans-105"/>
    <use x="1034.701172" xlink:href="#DejaVuSans-100"/>
    <use x="1098.177734" xlink:href="#DejaVuSans-49"/>
    <use x="1161.800781" xlink:href="#DejaVuSans-57"/>
    <use x="1225.423828" xlink:href="#DejaVuSans-32"/>
    <use x="1257.210938" xlink:href="#DejaVuSans-99"/>
    <use x="1312.191406" xlink:href="#DejaVuSans-97"/>
    <use x="1373.470703" xlink:href="#DejaVuSans-115"/>
    <use x="1425.570312" xlink:href="#DejaVuSans-101"/>
    <use x="1487.09375" xlink:href="#DejaVuSans-115"/>
    <use x="1539.193359" xlink:href="#DejaVuSans-32"/>
    <use x="1570.980469" xlink:href="#DejaVuSans-105"/>
    <use x="1598.763672" xlink:href="#DejaVuSans-110"/>
    <use x="1662.142578" xlink:href="#DejaVuSans-32"/>
    <use x="1693.929688" xlink:href="#DejaVuSans-80"/>
    <use x="1750.607422" xlink:href="#DejaVuSans-101"/>
    <use x="1812.130859" xlink:href="#DejaVuSans-110"/>
    <use x="1875.509766" xlink:href="#DejaVuSans-110"/>
    <use x="1938.888672" xlink:href="#DejaVuSans-115"/>
    <use x="1990.988281" xlink:href="#DejaVuSans-121"/>
    <use x="2050.167969" xlink:href="#DejaVuSans-108"/>
    <use x="2077.951172" xlink:href="#DejaVuSans-118"/>
    <use x="2137.130859" xlink:href="#DejaVuSans-97"/>
    <use x="2198.410156" xlink:href="#DejaVuSans-110"/>
    <use x="2261.789062" xlink:href="#DejaVuSans-105"/>
    <use x="2289.572266" xlink:href="#DejaVuSans-97"/>
    <use x="2350.851562" xlink:href="#DejaVuSans-32"/>
    <use x="2382.638672" xlink:href="#DejaVuSans-112"/>
    <use x="2446.115234" xlink:href="#DejaVuSans-114"/>
    <use x="2487.228516" xlink:href="#DejaVuSans-105"/>
    <use x="2515.011719" xlink:href="#DejaVuSans-115"/>
    <use x="2567.111328" xlink:href="#DejaVuSans-111"/>
    <use x="2628.292969" xlink:href="#DejaVuSans-110"/>
   </g>
   <!-- for weeks of 07 Apr to 17 Nov -->
   <g transform="translate(111.225437 30.323406)scale(0.14 -0.14)">
    <defs>
     <path d="M 37.109375 75.984375 
L 37.109375 68.5 
L 28.515625 68.5 
Q 23.6875 68.5 21.796875 66.546875 
Q 19.921875 64.59375 19.921875 59.515625 
L 19.921875 54.6875 
L 34.71875 54.6875 
L 34.71875 47.703125 
L 19.921875 47.703125 
L 19.921875 0 
L 10.890625 0 
L 10.890625 47.703125 
L 2.296875 47.703125 
L 2.296875 54.6875 
L 10.890625 54.6875 
L 10.890625 58.5 
Q 10.890625 67.625 15.140625 71.796875 
Q 19.390625 75.984375 28.609375 75.984375 
z
" id="DejaVuSans-102"/>
     <path d="M 4.203125 54.6875 
L 13.1875 54.6875 
L 24.421875 12.015625 
L 35.59375 54.6875 
L 46.1875 54.6875 
L 57.421875 12.015625 
L 68.609375 54.6875 
L 77.59375 54.6875 
L 63.28125 0 
L 52.6875 0 
L 40.921875 44.828125 
L 29.109375 0 
L 18.5 0 
z
" id="DejaVuSans-119"/>
     <path d="M 8.203125 72.90625 
L 55.078125 72.90625 
L 55.078125 68.703125 
L 28.609375 0 
L 18.3125 0 
L 43.21875 64.59375 
L 8.203125 64.59375 
z
" id="DejaVuSans-55"/>
    </defs>
    <use xlink:href="#DejaVuSans-102"/>
    <use x="35.205078" xlink:href="#DejaVuSans-111"/>
    <use x="96.386719" xlink:href="#DejaVuSans-114"/>
    <use x="137.5" xlink:href="#DejaVuSans-32"/>
    <use x="169.287109" xlink:href="#DejaVuSans-119"/>
    <use x="251.074219" xlink:href="#DejaVuSans-101"/>
    <use x="312.597656" xlink:href="#DejaVuSans-101"/>
    <use x="374.121094" xlink:href="#DejaVuSans-107"/>
    <use x="432.03125" xlink:href="#DejaVuSans-115"/>
    <use x="484.130859" xlink:href="#DejaVuSans-32"/>
    <use x="515.917969" xlink:href="#DejaVuSans-111"/>
    <use x="577.099609" xlink:href="#DejaVuSans-102"/>
    <use x="612.304688" xlink:href="#DejaVuSans-32"/>
    <use x="644.091797" xlink:href="#DejaVuSans-48"/>
    <use x="707.714844" xlink:href="#DejaVuSans-55"/>
    <use x="771.337891" xlink:href="#DejaVuSans-32"/>
    <use x="803.125" xlink:href="#DejaVuSans-65"/>
    <use x="871.533203" xlink:href="#DejaVuSans-112"/>
    <use x="935.009766" xlink:href="#DejaVuSans-114"/>
    <use x="976.123047" xlink:href="#DejaVuSans-32"/>
    <use x="1007.910156" xlink:href="#DejaVuSans-116"/>
    <use x="1047.119141" xlink:href="#DejaVuSans-111"/>
    <use x="1108.300781" xlink:href="#DejaVuSans-32"/>
    <use x="1140.087891" xlink:href="#DejaVuSans-49"/>
    <use x="1203.710938" xlink:href="#DejaVuSans-55"/>
    <use x="1267.333984" xlink:href="#DejaVuSans-32"/>
    <use x="1299.121094" xlink:href="#DejaVuSans-78"/>
    <use x="1373.925781" xlink:href="#DejaVuSans-111"/>
    <use x="1435.107422" xlink:href="#DejaVuSans-118"/>
   </g>
  </g>
 </g>
 <defs>
  <clipPath id="p45b36bd0bd">
   <rect height="266.112" width="357.12" x="43.025125" y="39.370411"/>
  </clipPath>
 </defs>
</svg>
