<?xml version="1.0" encoding="utf-8" standalone="no"?>
<!DOCTYPE svg PUBLIC "-//W3C//DTD SVG 1.1//EN"
  "http://www.w3.org/Graphics/SVG/1.1/DTD/svg11.dtd">
<!-- Created with matplotlib (https://matplotlib.org/) -->
<svg height="326.149161pt" version="1.1" viewBox="0 0 411.44325 326.149161" width="411.44325pt" xmlns="http://www.w3.org/2000/svg" xmlns:xlink="http://www.w3.org/1999/xlink">
 <metadata>
  <rdf:RDF xmlns:cc="http://creativecommons.org/ns#" xmlns:dc="http://purl.org/dc/elements/1.1/" xmlns:rdf="http://www.w3.org/1999/02/22-rdf-syntax-ns#">
   <cc:Work>
    <dc:type rdf:resource="http://purl.org/dc/dcmitype/StillImage"/>
    <dc:date>2020-12-02T19:58:37.586530</dc:date>
    <dc:format>image/svg+xml</dc:format>
    <dc:creator>
     <cc:Agent>
      <dc:title>Matplotlib v3.3.3, https://matplotlib.org/</dc:title>
     </cc:Agent>
    </dc:creator>
   </cc:Work>
  </rdf:RDF>
 </metadata>
 <defs>
  <style type="text/css">*{stroke-linecap:butt;stroke-linejoin:round;}</style>
 </defs>
 <g id="figure_1">
  <g id="patch_1">
   <path d="M 0 326.149161 
L 411.44325 326.149161 
L 411.44325 0 
L 0 0 
z
" style="fill:#ffffff;stroke:#ffffff;stroke-linejoin:miter;"/>
  </g>
  <g id="axes_1">
   <g id="patch_2">
    <path d="M 43.025125 305.482411 
L 400.145125 305.482411 
L 400.145125 39.370411 
L 43.025125 39.370411 
z
" style="fill:none;"/>
   </g>
   <g id="matplotlib.axis_1">
    <g id="xtick_1">
     <g id="line2d_1">
      <path clip-path="url(#p5da9ce9e21)" d="M 51.073284 305.482411 
L 51.073284 39.370411 
" style="fill:none;stroke:#ffffff;"/>
     </g>
     <g id="text_1">
      <!-- Apr -->
      <g style="fill:#4d4d4d;" transform="translate(43.461284 317.119036)scale(0.088 -0.088)">
       <defs>
        <path d="M 34.1875 63.1875 
L 20.796875 26.90625 
L 47.609375 26.90625 
z
M 28.609375 72.90625 
L 39.796875 72.90625 
L 67.578125 0 
L 57.328125 0 
L 50.6875 18.703125 
L 17.828125 18.703125 
L 11.1875 0 
L 0.78125 0 
z
" id="DejaVuSans-65"/>
        <path d="M 18.109375 8.203125 
L 18.109375 -20.796875 
L 9.078125 -20.796875 
L 9.078125 54.6875 
L 18.109375 54.6875 
L 18.109375 46.390625 
Q 20.953125 51.265625 25.265625 53.625 
Q 29.59375 56 35.59375 56 
Q 45.5625 56 51.78125 48.09375 
Q 58.015625 40.1875 58.015625 27.296875 
Q 58.015625 14.40625 51.78125 6.484375 
Q 45.5625 -1.421875 35.59375 -1.421875 
Q 29.59375 -1.421875 25.265625 0.953125 
Q 20.953125 3.328125 18.109375 8.203125 
z
M 48.6875 27.296875 
Q 48.6875 37.203125 44.609375 42.84375 
Q 40.53125 48.484375 33.40625 48.484375 
Q 26.265625 48.484375 22.1875 42.84375 
Q 18.109375 37.203125 18.109375 27.296875 
Q 18.109375 17.390625 22.1875 11.75 
Q 26.265625 6.109375 33.40625 6.109375 
Q 40.53125 6.109375 44.609375 11.75 
Q 48.6875 17.390625 48.6875 27.296875 
z
" id="DejaVuSans-112"/>
        <path d="M 41.109375 46.296875 
Q 39.59375 47.171875 37.8125 47.578125 
Q 36.03125 48 33.890625 48 
Q 26.265625 48 22.1875 43.046875 
Q 18.109375 38.09375 18.109375 28.8125 
L 18.109375 0 
L 9.078125 0 
L 9.078125 54.6875 
L 18.109375 54.6875 
L 18.109375 46.1875 
Q 20.953125 51.171875 25.484375 53.578125 
Q 30.03125 56 36.53125 56 
Q 37.453125 56 38.578125 55.875 
Q 39.703125 55.765625 41.0625 55.515625 
z
" id="DejaVuSans-114"/>
       </defs>
       <use xlink:href="#DejaVuSans-65"/>
       <use x="68.408203" xlink:href="#DejaVuSans-112"/>
       <use x="131.884766" xlink:href="#DejaVuSans-114"/>
      </g>
     </g>
    </g>
    <g id="xtick_2">
     <g id="line2d_2">
      <path clip-path="url(#p5da9ce9e21)" d="M 91.996126 305.482411 
L 91.996126 39.370411 
" style="fill:none;stroke:#ffffff;"/>
     </g>
     <g id="text_2">
      <!-- May -->
      <g style="fill:#4d4d4d;" transform="translate(82.899126 317.119036)scale(0.088 -0.088)">
       <defs>
        <path d="M 9.8125 72.90625 
L 24.515625 72.90625 
L 43.109375 23.296875 
L 61.8125 72.90625 
L 76.515625 72.90625 
L 76.515625 0 
L 66.890625 0 
L 66.890625 64.015625 
L 48.09375 14.015625 
L 38.1875 14.015625 
L 19.390625 64.015625 
L 19.390625 0 
L 9.8125 0 
z
" id="DejaVuSans-77"/>
        <path d="M 34.28125 27.484375 
Q 23.390625 27.484375 19.1875 25 
Q 14.984375 22.515625 14.984375 16.5 
Q 14.984375 11.71875 18.140625 8.90625 
Q 21.296875 6.109375 26.703125 6.109375 
Q 34.1875 6.109375 38.703125 11.40625 
Q 43.21875 16.703125 43.21875 25.484375 
L 43.21875 27.484375 
z
M 52.203125 31.203125 
L 52.203125 0 
L 43.21875 0 
L 43.21875 8.296875 
Q 40.140625 3.328125 35.546875 0.953125 
Q 30.953125 -1.421875 24.3125 -1.421875 
Q 15.921875 -1.421875 10.953125 3.296875 
Q 6 8.015625 6 15.921875 
Q 6 25.140625 12.171875 29.828125 
Q 18.359375 34.515625 30.609375 34.515625 
L 43.21875 34.515625 
L 43.21875 35.40625 
Q 43.21875 41.609375 39.140625 45 
Q 35.0625 48.390625 27.6875 48.390625 
Q 23 48.390625 18.546875 47.265625 
Q 14.109375 46.140625 10.015625 43.890625 
L 10.015625 52.203125 
Q 14.9375 54.109375 19.578125 55.046875 
Q 24.21875 56 28.609375 56 
Q 40.484375 56 46.34375 49.84375 
Q 52.203125 43.703125 52.203125 31.203125 
z
" id="DejaVuSans-97"/>
        <path d="M 32.171875 -5.078125 
Q 28.375 -14.84375 24.75 -17.8125 
Q 21.140625 -20.796875 15.09375 -20.796875 
L 7.90625 -20.796875 
L 7.90625 -13.28125 
L 13.1875 -13.28125 
Q 16.890625 -13.28125 18.9375 -11.515625 
Q 21 -9.765625 23.484375 -3.21875 
L 25.09375 0.875 
L 2.984375 54.6875 
L 12.5 54.6875 
L 29.59375 11.921875 
L 46.6875 54.6875 
L 56.203125 54.6875 
z
" id="DejaVuSans-121"/>
       </defs>
       <use xlink:href="#DejaVuSans-77"/>
       <use x="86.279297" xlink:href="#DejaVuSans-97"/>
       <use x="147.558594" xlink:href="#DejaVuSans-121"/>
      </g>
     </g>
    </g>
    <g id="xtick_3">
     <g id="line2d_3">
      <path clip-path="url(#p5da9ce9e21)" d="M 134.283062 305.482411 
L 134.283062 39.370411 
" style="fill:none;stroke:#ffffff;"/>
     </g>
     <g id="text_3">
      <!-- Jun -->
      <g style="fill:#4d4d4d;" transform="translate(127.408062 317.119036)scale(0.088 -0.088)">
       <defs>
        <path d="M 9.8125 72.90625 
L 19.671875 72.90625 
L 19.671875 5.078125 
Q 19.671875 -8.109375 14.671875 -14.0625 
Q 9.671875 -20.015625 -1.421875 -20.015625 
L -5.171875 -20.015625 
L -5.171875 -11.71875 
L -2.09375 -11.71875 
Q 4.4375 -11.71875 7.125 -8.046875 
Q 9.8125 -4.390625 9.8125 5.078125 
z
" id="DejaVuSans-74"/>
        <path d="M 8.5 21.578125 
L 8.5 54.6875 
L 17.484375 54.6875 
L 17.484375 21.921875 
Q 17.484375 14.15625 20.5 10.265625 
Q 23.53125 6.390625 29.59375 6.390625 
Q 36.859375 6.390625 41.078125 11.03125 
Q 45.3125 15.671875 45.3125 23.6875 
L 45.3125 54.6875 
L 54.296875 54.6875 
L 54.296875 0 
L 45.3125 0 
L 45.3125 8.40625 
Q 42.046875 3.421875 37.71875 1 
Q 33.40625 -1.421875 27.6875 -1.421875 
Q 18.265625 -1.421875 13.375 4.4375 
Q 8.5 10.296875 8.5 21.578125 
z
M 31.109375 56 
z
" id="DejaVuSans-117"/>
        <path d="M 54.890625 33.015625 
L 54.890625 0 
L 45.90625 0 
L 45.90625 32.71875 
Q 45.90625 40.484375 42.875 44.328125 
Q 39.84375 48.1875 33.796875 48.1875 
Q 26.515625 48.1875 22.3125 43.546875 
Q 18.109375 38.921875 18.109375 30.90625 
L 18.109375 0 
L 9.078125 0 
L 9.078125 54.6875 
L 18.109375 54.6875 
L 18.109375 46.1875 
Q 21.34375 51.125 25.703125 53.5625 
Q 30.078125 56 35.796875 56 
Q 45.21875 56 50.046875 50.171875 
Q 54.890625 44.34375 54.890625 33.015625 
z
" id="DejaVuSans-110"/>
       </defs>
       <use xlink:href="#DejaVuSans-74"/>
       <use x="29.492188" xlink:href="#DejaVuSans-117"/>
       <use x="92.871094" xlink:href="#DejaVuSans-110"/>
      </g>
     </g>
    </g>
    <g id="xtick_4">
     <g id="line2d_4">
      <path clip-path="url(#p5da9ce9e21)" d="M 175.205904 305.482411 
L 175.205904 39.370411 
" style="fill:none;stroke:#ffffff;"/>
     </g>
     <g id="text_4">
      <!-- Jul -->
      <g style="fill:#4d4d4d;" transform="translate(169.897029 317.119036)scale(0.088 -0.088)">
       <defs>
        <path d="M 9.421875 75.984375 
L 18.40625 75.984375 
L 18.40625 0 
L 9.421875 0 
z
" id="DejaVuSans-108"/>
       </defs>
       <use xlink:href="#DejaVuSans-74"/>
       <use x="29.492188" xlink:href="#DejaVuSans-117"/>
       <use x="92.871094" xlink:href="#DejaVuSans-108"/>
      </g>
     </g>
    </g>
    <g id="xtick_5">
     <g id="line2d_5">
      <path clip-path="url(#p5da9ce9e21)" d="M 217.492841 305.482411 
L 217.492841 39.370411 
" style="fill:none;stroke:#ffffff;"/>
     </g>
     <g id="text_5">
      <!-- Aug -->
      <g style="fill:#4d4d4d;" transform="translate(208.901153 317.119036)scale(0.088 -0.088)">
       <defs>
        <path d="M 45.40625 27.984375 
Q 45.40625 37.75 41.375 43.109375 
Q 37.359375 48.484375 30.078125 48.484375 
Q 22.859375 48.484375 18.828125 43.109375 
Q 14.796875 37.75 14.796875 27.984375 
Q 14.796875 18.265625 18.828125 12.890625 
Q 22.859375 7.515625 30.078125 7.515625 
Q 37.359375 7.515625 41.375 12.890625 
Q 45.40625 18.265625 45.40625 27.984375 
z
M 54.390625 6.78125 
Q 54.390625 -7.171875 48.1875 -13.984375 
Q 42 -20.796875 29.203125 -20.796875 
Q 24.46875 -20.796875 20.265625 -20.09375 
Q 16.0625 -19.390625 12.109375 -17.921875 
L 12.109375 -9.1875 
Q 16.0625 -11.328125 19.921875 -12.34375 
Q 23.78125 -13.375 27.78125 -13.375 
Q 36.625 -13.375 41.015625 -8.765625 
Q 45.40625 -4.15625 45.40625 5.171875 
L 45.40625 9.625 
Q 42.625 4.78125 38.28125 2.390625 
Q 33.9375 0 27.875 0 
Q 17.828125 0 11.671875 7.65625 
Q 5.515625 15.328125 5.515625 27.984375 
Q 5.515625 40.671875 11.671875 48.328125 
Q 17.828125 56 27.875 56 
Q 33.9375 56 38.28125 53.609375 
Q 42.625 51.21875 45.40625 46.390625 
L 45.40625 54.6875 
L 54.390625 54.6875 
z
" id="DejaVuSans-103"/>
       </defs>
       <use xlink:href="#DejaVuSans-65"/>
       <use x="68.408203" xlink:href="#DejaVuSans-117"/>
       <use x="131.787109" xlink:href="#DejaVuSans-103"/>
      </g>
     </g>
    </g>
    <g id="xtick_6">
     <g id="line2d_6">
      <path clip-path="url(#p5da9ce9e21)" d="M 259.779777 305.482411 
L 259.779777 39.370411 
" style="fill:none;stroke:#ffffff;"/>
     </g>
     <g id="text_6">
      <!-- Sep -->
      <g style="fill:#4d4d4d;" transform="translate(251.485777 317.119036)scale(0.088 -0.088)">
       <defs>
        <path d="M 53.515625 70.515625 
L 53.515625 60.890625 
Q 47.90625 63.578125 42.921875 64.890625 
Q 37.9375 66.21875 33.296875 66.21875 
Q 25.25 66.21875 20.875 63.09375 
Q 16.5 59.96875 16.5 54.203125 
Q 16.5 49.359375 19.40625 46.890625 
Q 22.3125 44.4375 30.421875 42.921875 
L 36.375 41.703125 
Q 47.40625 39.59375 52.65625 34.296875 
Q 57.90625 29 57.90625 20.125 
Q 57.90625 9.515625 50.796875 4.046875 
Q 43.703125 -1.421875 29.984375 -1.421875 
Q 24.8125 -1.421875 18.96875 -0.25 
Q 13.140625 0.921875 6.890625 3.21875 
L 6.890625 13.375 
Q 12.890625 10.015625 18.65625 8.296875 
Q 24.421875 6.59375 29.984375 6.59375 
Q 38.421875 6.59375 43.015625 9.90625 
Q 47.609375 13.234375 47.609375 19.390625 
Q 47.609375 24.75 44.3125 27.78125 
Q 41.015625 30.8125 33.5 32.328125 
L 27.484375 33.5 
Q 16.453125 35.6875 11.515625 40.375 
Q 6.59375 45.0625 6.59375 53.421875 
Q 6.59375 63.09375 13.40625 68.65625 
Q 20.21875 74.21875 32.171875 74.21875 
Q 37.3125 74.21875 42.625 73.28125 
Q 47.953125 72.359375 53.515625 70.515625 
z
" id="DejaVuSans-83"/>
        <path d="M 56.203125 29.59375 
L 56.203125 25.203125 
L 14.890625 25.203125 
Q 15.484375 15.921875 20.484375 11.0625 
Q 25.484375 6.203125 34.421875 6.203125 
Q 39.59375 6.203125 44.453125 7.46875 
Q 49.3125 8.734375 54.109375 11.28125 
L 54.109375 2.78125 
Q 49.265625 0.734375 44.1875 -0.34375 
Q 39.109375 -1.421875 33.890625 -1.421875 
Q 20.796875 -1.421875 13.15625 6.1875 
Q 5.515625 13.8125 5.515625 26.8125 
Q 5.515625 40.234375 12.765625 48.109375 
Q 20.015625 56 32.328125 56 
Q 43.359375 56 49.78125 48.890625 
Q 56.203125 41.796875 56.203125 29.59375 
z
M 47.21875 32.234375 
Q 47.125 39.59375 43.09375 43.984375 
Q 39.0625 48.390625 32.421875 48.390625 
Q 24.90625 48.390625 20.390625 44.140625 
Q 15.875 39.890625 15.1875 32.171875 
z
" id="DejaVuSans-101"/>
       </defs>
       <use xlink:href="#DejaVuSans-83"/>
       <use x="63.476562" xlink:href="#DejaVuSans-101"/>
       <use x="125" xlink:href="#DejaVuSans-112"/>
      </g>
     </g>
    </g>
    <g id="xtick_7">
     <g id="line2d_7">
      <path clip-path="url(#p5da9ce9e21)" d="M 300.702619 305.482411 
L 300.702619 39.370411 
" style="fill:none;stroke:#ffffff;"/>
     </g>
     <g id="text_7">
      <!-- Oct -->
      <g style="fill:#4d4d4d;" transform="translate(293.094744 317.119036)scale(0.088 -0.088)">
       <defs>
        <path d="M 39.40625 66.21875 
Q 28.65625 66.21875 22.328125 58.203125 
Q 16.015625 50.203125 16.015625 36.375 
Q 16.015625 22.609375 22.328125 14.59375 
Q 28.65625 6.59375 39.40625 6.59375 
Q 50.140625 6.59375 56.421875 14.59375 
Q 62.703125 22.609375 62.703125 36.375 
Q 62.703125 50.203125 56.421875 58.203125 
Q 50.140625 66.21875 39.40625 66.21875 
z
M 39.40625 74.21875 
Q 54.734375 74.21875 63.90625 63.9375 
Q 73.09375 53.65625 73.09375 36.375 
Q 73.09375 19.140625 63.90625 8.859375 
Q 54.734375 -1.421875 39.40625 -1.421875 
Q 24.03125 -1.421875 14.8125 8.828125 
Q 5.609375 19.09375 5.609375 36.375 
Q 5.609375 53.65625 14.8125 63.9375 
Q 24.03125 74.21875 39.40625 74.21875 
z
" id="DejaVuSans-79"/>
        <path d="M 48.78125 52.59375 
L 48.78125 44.1875 
Q 44.96875 46.296875 41.140625 47.34375 
Q 37.3125 48.390625 33.40625 48.390625 
Q 24.65625 48.390625 19.8125 42.84375 
Q 14.984375 37.3125 14.984375 27.296875 
Q 14.984375 17.28125 19.8125 11.734375 
Q 24.65625 6.203125 33.40625 6.203125 
Q 37.3125 6.203125 41.140625 7.25 
Q 44.96875 8.296875 48.78125 10.40625 
L 48.78125 2.09375 
Q 45.015625 0.34375 40.984375 -0.53125 
Q 36.96875 -1.421875 32.421875 -1.421875 
Q 20.0625 -1.421875 12.78125 6.34375 
Q 5.515625 14.109375 5.515625 27.296875 
Q 5.515625 40.671875 12.859375 48.328125 
Q 20.21875 56 33.015625 56 
Q 37.15625 56 41.109375 55.140625 
Q 45.0625 54.296875 48.78125 52.59375 
z
" id="DejaVuSans-99"/>
        <path d="M 18.3125 70.21875 
L 18.3125 54.6875 
L 36.8125 54.6875 
L 36.8125 47.703125 
L 18.3125 47.703125 
L 18.3125 18.015625 
Q 18.3125 11.328125 20.140625 9.421875 
Q 21.96875 7.515625 27.59375 7.515625 
L 36.8125 7.515625 
L 36.8125 0 
L 27.59375 0 
Q 17.1875 0 13.234375 3.875 
Q 9.28125 7.765625 9.28125 18.015625 
L 9.28125 47.703125 
L 2.6875 47.703125 
L 2.6875 54.6875 
L 9.28125 54.6875 
L 9.28125 70.21875 
z
" id="DejaVuSans-116"/>
       </defs>
       <use xlink:href="#DejaVuSans-79"/>
       <use x="78.710938" xlink:href="#DejaVuSans-99"/>
       <use x="133.691406" xlink:href="#DejaVuSans-116"/>
      </g>
     </g>
    </g>
    <g id="xtick_8">
     <g id="line2d_8">
      <path clip-path="url(#p5da9ce9e21)" d="M 342.989556 305.482411 
L 342.989556 39.370411 
" style="fill:none;stroke:#ffffff;"/>
     </g>
     <g id="text_8">
      <!-- Nov -->
      <g style="fill:#4d4d4d;" transform="translate(334.401306 317.119036)scale(0.088 -0.088)">
       <defs>
        <path d="M 9.8125 72.90625 
L 23.09375 72.90625 
L 55.421875 11.921875 
L 55.421875 72.90625 
L 64.984375 72.90625 
L 64.984375 0 
L 51.703125 0 
L 19.390625 60.984375 
L 19.390625 0 
L 9.8125 0 
z
" id="DejaVuSans-78"/>
        <path d="M 30.609375 48.390625 
Q 23.390625 48.390625 19.1875 42.75 
Q 14.984375 37.109375 14.984375 27.296875 
Q 14.984375 17.484375 19.15625 11.84375 
Q 23.34375 6.203125 30.609375 6.203125 
Q 37.796875 6.203125 41.984375 11.859375 
Q 46.1875 17.53125 46.1875 27.296875 
Q 46.1875 37.015625 41.984375 42.703125 
Q 37.796875 48.390625 30.609375 48.390625 
z
M 30.609375 56 
Q 42.328125 56 49.015625 48.375 
Q 55.71875 40.765625 55.71875 27.296875 
Q 55.71875 13.875 49.015625 6.21875 
Q 42.328125 -1.421875 30.609375 -1.421875 
Q 18.84375 -1.421875 12.171875 6.21875 
Q 5.515625 13.875 5.515625 27.296875 
Q 5.515625 40.765625 12.171875 48.375 
Q 18.84375 56 30.609375 56 
z
" id="DejaVuSans-111"/>
        <path d="M 2.984375 54.6875 
L 12.5 54.6875 
L 29.59375 8.796875 
L 46.6875 54.6875 
L 56.203125 54.6875 
L 35.6875 0 
L 23.484375 0 
z
" id="DejaVuSans-118"/>
       </defs>
       <use xlink:href="#DejaVuSans-78"/>
       <use x="74.804688" xlink:href="#DejaVuSans-111"/>
       <use x="135.986328" xlink:href="#DejaVuSans-118"/>
      </g>
     </g>
    </g>
    <g id="xtick_9">
     <g id="line2d_9">
      <path clip-path="url(#p5da9ce9e21)" d="M 383.912398 305.482411 
L 383.912398 39.370411 
" style="fill:none;stroke:#ffffff;"/>
     </g>
     <g id="text_9">
      <!-- Dec -->
      <g style="fill:#4d4d4d;" transform="translate(375.39771 317.119036)scale(0.088 -0.088)">
       <defs>
        <path d="M 19.671875 64.796875 
L 19.671875 8.109375 
L 31.59375 8.109375 
Q 46.6875 8.109375 53.6875 14.9375 
Q 60.6875 21.78125 60.6875 36.53125 
Q 60.6875 51.171875 53.6875 57.984375 
Q 46.6875 64.796875 31.59375 64.796875 
z
M 9.8125 72.90625 
L 30.078125 72.90625 
Q 51.265625 72.90625 61.171875 64.09375 
Q 71.09375 55.28125 71.09375 36.53125 
Q 71.09375 17.671875 61.125 8.828125 
Q 51.171875 0 30.078125 0 
L 9.8125 0 
z
" id="DejaVuSans-68"/>
       </defs>
       <use xlink:href="#DejaVuSans-68"/>
       <use x="77.001953" xlink:href="#DejaVuSans-101"/>
       <use x="138.525391" xlink:href="#DejaVuSans-99"/>
      </g>
     </g>
    </g>
    <g id="xtick_10">
     <g id="line2d_10">
      <path clip-path="url(#p5da9ce9e21)" d="M 71.534705 305.482411 
L 71.534705 39.370411 
" style="fill:none;stroke:#ffffff;stroke-width:0.5;"/>
     </g>
    </g>
    <g id="xtick_11">
     <g id="line2d_11">
      <path clip-path="url(#p5da9ce9e21)" d="M 113.139594 305.482411 
L 113.139594 39.370411 
" style="fill:none;stroke:#ffffff;stroke-width:0.5;"/>
     </g>
    </g>
    <g id="xtick_12">
     <g id="line2d_12">
      <path clip-path="url(#p5da9ce9e21)" d="M 154.744483 305.482411 
L 154.744483 39.370411 
" style="fill:none;stroke:#ffffff;stroke-width:0.5;"/>
     </g>
    </g>
    <g id="xtick_13">
     <g id="line2d_13">
      <path clip-path="url(#p5da9ce9e21)" d="M 196.349373 305.482411 
L 196.349373 39.370411 
" style="fill:none;stroke:#ffffff;stroke-width:0.5;"/>
     </g>
    </g>
    <g id="xtick_14">
     <g id="line2d_14">
      <path clip-path="url(#p5da9ce9e21)" d="M 238.636309 305.482411 
L 238.636309 39.370411 
" style="fill:none;stroke:#ffffff;stroke-width:0.5;"/>
     </g>
    </g>
    <g id="xtick_15">
     <g id="line2d_15">
      <path clip-path="url(#p5da9ce9e21)" d="M 280.241198 305.482411 
L 280.241198 39.370411 
" style="fill:none;stroke:#ffffff;stroke-width:0.5;"/>
     </g>
    </g>
    <g id="xtick_16">
     <g id="line2d_16">
      <path clip-path="url(#p5da9ce9e21)" d="M 321.846088 305.482411 
L 321.846088 39.370411 
" style="fill:none;stroke:#ffffff;stroke-width:0.5;"/>
     </g>
    </g>
    <g id="xtick_17">
     <g id="line2d_17">
      <path clip-path="url(#p5da9ce9e21)" d="M 363.450977 305.482411 
L 363.450977 39.370411 
" style="fill:none;stroke:#ffffff;stroke-width:0.5;"/>
     </g>
    </g>
   </g>
   <g id="matplotlib.axis_2">
    <g id="ytick_1">
     <g id="line2d_18">
      <path clip-path="url(#p5da9ce9e21)" d="M 43.025125 293.386411 
L 400.145125 293.386411 
" style="fill:none;stroke:#ffffff;"/>
     </g>
     <g id="line2d_19">
      <path d="M 43.025125 293.386411 
" style="fill:none;stroke:#333333;stroke-width:1.5;"/>
      <defs>
       <path d="M 0 0 
L -2.75 0 
" id="mc0b5197ce8" style="stroke:#000000;"/>
      </defs>
      <g>
       <use style="fill:#333333;stroke:#000000;" x="43.025125" xlink:href="#mc0b5197ce8" y="293.386411"/>
      </g>
     </g>
     <g id="text_10">
      <!-- 0 -->
      <g style="fill:#00008b;" transform="translate(32.476125 295.814661)scale(0.088 -0.088)">
       <defs>
        <path d="M 31.78125 66.40625 
Q 24.171875 66.40625 20.328125 58.90625 
Q 16.5 51.421875 16.5 36.375 
Q 16.5 21.390625 20.328125 13.890625 
Q 24.171875 6.390625 31.78125 6.390625 
Q 39.453125 6.390625 43.28125 13.890625 
Q 47.125 21.390625 47.125 36.375 
Q 47.125 51.421875 43.28125 58.90625 
Q 39.453125 66.40625 31.78125 66.40625 
z
M 31.78125 74.21875 
Q 44.046875 74.21875 50.515625 64.515625 
Q 56.984375 54.828125 56.984375 36.375 
Q 56.984375 17.96875 50.515625 8.265625 
Q 44.046875 -1.421875 31.78125 -1.421875 
Q 19.53125 -1.421875 13.0625 8.265625 
Q 6.59375 17.96875 6.59375 36.375 
Q 6.59375 54.828125 13.0625 64.515625 
Q 19.53125 74.21875 31.78125 74.21875 
z
" id="DejaVuSans-48"/>
       </defs>
       <use xlink:href="#DejaVuSans-48"/>
      </g>
     </g>
    </g>
    <g id="ytick_2">
     <g id="line2d_20">
      <path clip-path="url(#p5da9ce9e21)" d="M 43.025125 245.002411 
L 400.145125 245.002411 
" style="fill:none;stroke:#ffffff;"/>
     </g>
     <g id="line2d_21">
      <path d="M 43.025125 245.002411 
" style="fill:none;stroke:#333333;stroke-width:1.5;"/>
      <g>
       <use style="fill:#333333;stroke:#000000;" x="43.025125" xlink:href="#mc0b5197ce8" y="245.002411"/>
      </g>
     </g>
     <g id="text_11">
      <!-- 100 -->
      <g style="fill:#00008b;" transform="translate(21.278125 247.430661)scale(0.088 -0.088)">
       <defs>
        <path d="M 12.40625 8.296875 
L 28.515625 8.296875 
L 28.515625 63.921875 
L 10.984375 60.40625 
L 10.984375 69.390625 
L 28.421875 72.90625 
L 38.28125 72.90625 
L 38.28125 8.296875 
L 54.390625 8.296875 
L 54.390625 0 
L 12.40625 0 
z
" id="DejaVuSans-49"/>
       </defs>
       <use xlink:href="#DejaVuSans-49"/>
       <use x="63.623047" xlink:href="#DejaVuSans-48"/>
       <use x="127.246094" xlink:href="#DejaVuSans-48"/>
      </g>
     </g>
    </g>
    <g id="ytick_3">
     <g id="line2d_22">
      <path clip-path="url(#p5da9ce9e21)" d="M 43.025125 196.618411 
L 400.145125 196.618411 
" style="fill:none;stroke:#ffffff;"/>
     </g>
     <g id="line2d_23">
      <path d="M 43.025125 196.618411 
" style="fill:none;stroke:#333333;stroke-width:1.5;"/>
      <g>
       <use style="fill:#333333;stroke:#000000;" x="43.025125" xlink:href="#mc0b5197ce8" y="196.618411"/>
      </g>
     </g>
     <g id="text_12">
      <!-- 200 -->
      <g style="fill:#00008b;" transform="translate(21.278125 199.046661)scale(0.088 -0.088)">
       <defs>
        <path d="M 19.1875 8.296875 
L 53.609375 8.296875 
L 53.609375 0 
L 7.328125 0 
L 7.328125 8.296875 
Q 12.9375 14.109375 22.625 23.890625 
Q 32.328125 33.6875 34.8125 36.53125 
Q 39.546875 41.84375 41.421875 45.53125 
Q 43.3125 49.21875 43.3125 52.78125 
Q 43.3125 58.59375 39.234375 62.25 
Q 35.15625 65.921875 28.609375 65.921875 
Q 23.96875 65.921875 18.8125 64.3125 
Q 13.671875 62.703125 7.8125 59.421875 
L 7.8125 69.390625 
Q 13.765625 71.78125 18.9375 73 
Q 24.125 74.21875 28.421875 74.21875 
Q 39.75 74.21875 46.484375 68.546875 
Q 53.21875 62.890625 53.21875 53.421875 
Q 53.21875 48.921875 51.53125 44.890625 
Q 49.859375 40.875 45.40625 35.40625 
Q 44.1875 33.984375 37.640625 27.21875 
Q 31.109375 20.453125 19.1875 8.296875 
z
" id="DejaVuSans-50"/>
       </defs>
       <use xlink:href="#DejaVuSans-50"/>
       <use x="63.623047" xlink:href="#DejaVuSans-48"/>
       <use x="127.246094" xlink:href="#DejaVuSans-48"/>
      </g>
     </g>
    </g>
    <g id="ytick_4">
     <g id="line2d_24">
      <path clip-path="url(#p5da9ce9e21)" d="M 43.025125 148.234411 
L 400.145125 148.234411 
" style="fill:none;stroke:#ffffff;"/>
     </g>
     <g id="line2d_25">
      <path d="M 43.025125 148.234411 
" style="fill:none;stroke:#333333;stroke-width:1.5;"/>
      <g>
       <use style="fill:#333333;stroke:#000000;" x="43.025125" xlink:href="#mc0b5197ce8" y="148.234411"/>
      </g>
     </g>
     <g id="text_13">
      <!-- 300 -->
      <g style="fill:#00008b;" transform="translate(21.278125 150.662661)scale(0.088 -0.088)">
       <defs>
        <path d="M 40.578125 39.3125 
Q 47.65625 37.796875 51.625 33 
Q 55.609375 28.21875 55.609375 21.1875 
Q 55.609375 10.40625 48.1875 4.484375 
Q 40.765625 -1.421875 27.09375 -1.421875 
Q 22.515625 -1.421875 17.65625 -0.515625 
Q 12.796875 0.390625 7.625 2.203125 
L 7.625 11.71875 
Q 11.71875 9.328125 16.59375 8.109375 
Q 21.484375 6.890625 26.8125 6.890625 
Q 36.078125 6.890625 40.9375 10.546875 
Q 45.796875 14.203125 45.796875 21.1875 
Q 45.796875 27.640625 41.28125 31.265625 
Q 36.765625 34.90625 28.71875 34.90625 
L 20.21875 34.90625 
L 20.21875 43.015625 
L 29.109375 43.015625 
Q 36.375 43.015625 40.234375 45.921875 
Q 44.09375 48.828125 44.09375 54.296875 
Q 44.09375 59.90625 40.109375 62.90625 
Q 36.140625 65.921875 28.71875 65.921875 
Q 24.65625 65.921875 20.015625 65.03125 
Q 15.375 64.15625 9.8125 62.3125 
L 9.8125 71.09375 
Q 15.4375 72.65625 20.34375 73.4375 
Q 25.25 74.21875 29.59375 74.21875 
Q 40.828125 74.21875 47.359375 69.109375 
Q 53.90625 64.015625 53.90625 55.328125 
Q 53.90625 49.265625 50.4375 45.09375 
Q 46.96875 40.921875 40.578125 39.3125 
z
" id="DejaVuSans-51"/>
       </defs>
       <use xlink:href="#DejaVuSans-51"/>
       <use x="63.623047" xlink:href="#DejaVuSans-48"/>
       <use x="127.246094" xlink:href="#DejaVuSans-48"/>
      </g>
     </g>
    </g>
    <g id="ytick_5">
     <g id="line2d_26">
      <path clip-path="url(#p5da9ce9e21)" d="M 43.025125 99.850411 
L 400.145125 99.850411 
" style="fill:none;stroke:#ffffff;"/>
     </g>
     <g id="line2d_27">
      <path d="M 43.025125 99.850411 
" style="fill:none;stroke:#333333;stroke-width:1.5;"/>
      <g>
       <use style="fill:#333333;stroke:#000000;" x="43.025125" xlink:href="#mc0b5197ce8" y="99.850411"/>
      </g>
     </g>
     <g id="text_14">
      <!-- 400 -->
      <g style="fill:#00008b;" transform="translate(21.278125 102.278661)scale(0.088 -0.088)">
       <defs>
        <path d="M 37.796875 64.3125 
L 12.890625 25.390625 
L 37.796875 25.390625 
z
M 35.203125 72.90625 
L 47.609375 72.90625 
L 47.609375 25.390625 
L 58.015625 25.390625 
L 58.015625 17.1875 
L 47.609375 17.1875 
L 47.609375 0 
L 37.796875 0 
L 37.796875 17.1875 
L 4.890625 17.1875 
L 4.890625 26.703125 
z
" id="DejaVuSans-52"/>
       </defs>
       <use xlink:href="#DejaVuSans-52"/>
       <use x="63.623047" xlink:href="#DejaVuSans-48"/>
       <use x="127.246094" xlink:href="#DejaVuSans-48"/>
      </g>
     </g>
    </g>
    <g id="ytick_6">
     <g id="line2d_28">
      <path clip-path="url(#p5da9ce9e21)" d="M 43.025125 51.466411 
L 400.145125 51.466411 
" style="fill:none;stroke:#ffffff;"/>
     </g>
     <g id="line2d_29">
      <path d="M 43.025125 51.466411 
" style="fill:none;stroke:#333333;stroke-width:1.5;"/>
      <g>
       <use style="fill:#333333;stroke:#000000;" x="43.025125" xlink:href="#mc0b5197ce8" y="51.466411"/>
      </g>
     </g>
     <g id="text_15">
      <!-- 500 -->
      <g style="fill:#00008b;" transform="translate(21.278125 53.894661)scale(0.088 -0.088)">
       <defs>
        <path d="M 10.796875 72.90625 
L 49.515625 72.90625 
L 49.515625 64.59375 
L 19.828125 64.59375 
L 19.828125 46.734375 
Q 21.96875 47.46875 24.109375 47.828125 
Q 26.265625 48.1875 28.421875 48.1875 
Q 40.625 48.1875 47.75 41.5 
Q 54.890625 34.8125 54.890625 23.390625 
Q 54.890625 11.625 47.5625 5.09375 
Q 40.234375 -1.421875 26.90625 -1.421875 
Q 22.3125 -1.421875 17.546875 -0.640625 
Q 12.796875 0.140625 7.71875 1.703125 
L 7.71875 11.625 
Q 12.109375 9.234375 16.796875 8.0625 
Q 21.484375 6.890625 26.703125 6.890625 
Q 35.15625 6.890625 40.078125 11.328125 
Q 45.015625 15.765625 45.015625 23.390625 
Q 45.015625 31 40.078125 35.4375 
Q 35.15625 39.890625 26.703125 39.890625 
Q 22.75 39.890625 18.8125 39.015625 
Q 14.890625 38.140625 10.796875 36.28125 
z
" id="DejaVuSans-53"/>
       </defs>
       <use xlink:href="#DejaVuSans-53"/>
       <use x="63.623047" xlink:href="#DejaVuSans-48"/>
       <use x="127.246094" xlink:href="#DejaVuSans-48"/>
      </g>
     </g>
    </g>
    <g id="ytick_7">
     <g id="line2d_30">
      <path clip-path="url(#p5da9ce9e21)" d="M 43.025125 269.194411 
L 400.145125 269.194411 
" style="fill:none;stroke:#ffffff;stroke-width:0.5;"/>
     </g>
    </g>
    <g id="ytick_8">
     <g id="line2d_31">
      <path clip-path="url(#p5da9ce9e21)" d="M 43.025125 220.810411 
L 400.145125 220.810411 
" style="fill:none;stroke:#ffffff;stroke-width:0.5;"/>
     </g>
    </g>
    <g id="ytick_9">
     <g id="line2d_32">
      <path clip-path="url(#p5da9ce9e21)" d="M 43.025125 172.426411 
L 400.145125 172.426411 
" style="fill:none;stroke:#ffffff;stroke-width:0.5;"/>
     </g>
    </g>
    <g id="ytick_10">
     <g id="line2d_33">
      <path clip-path="url(#p5da9ce9e21)" d="M 43.025125 124.042411 
L 400.145125 124.042411 
" style="fill:none;stroke:#ffffff;stroke-width:0.5;"/>
     </g>
    </g>
    <g id="ytick_11">
     <g id="line2d_34">
      <path clip-path="url(#p5da9ce9e21)" d="M 43.025125 75.658411 
L 400.145125 75.658411 
" style="fill:none;stroke:#ffffff;stroke-width:0.5;"/>
     </g>
    </g>
    <g id="text_16">
     <!-- Inmate Covid19 positive test result -->
     <g style="fill:#00008b;" transform="translate(14.798438 258.461692)rotate(-90)scale(0.1 -0.1)">
      <defs>
       <path d="M 9.8125 72.90625 
L 19.671875 72.90625 
L 19.671875 0 
L 9.8125 0 
z
" id="DejaVuSans-73"/>
       <path d="M 52 44.1875 
Q 55.375 50.25 60.0625 53.125 
Q 64.75 56 71.09375 56 
Q 79.640625 56 84.28125 50.015625 
Q 88.921875 44.046875 88.921875 33.015625 
L 88.921875 0 
L 79.890625 0 
L 79.890625 32.71875 
Q 79.890625 40.578125 77.09375 44.375 
Q 74.3125 48.1875 68.609375 48.1875 
Q 61.625 48.1875 57.5625 43.546875 
Q 53.515625 38.921875 53.515625 30.90625 
L 53.515625 0 
L 44.484375 0 
L 44.484375 32.71875 
Q 44.484375 40.625 41.703125 44.40625 
Q 38.921875 48.1875 33.109375 48.1875 
Q 26.21875 48.1875 22.15625 43.53125 
Q 18.109375 38.875 18.109375 30.90625 
L 18.109375 0 
L 9.078125 0 
L 9.078125 54.6875 
L 18.109375 54.6875 
L 18.109375 46.1875 
Q 21.1875 51.21875 25.484375 53.609375 
Q 29.78125 56 35.6875 56 
Q 41.65625 56 45.828125 52.96875 
Q 50 49.953125 52 44.1875 
z
" id="DejaVuSans-109"/>
       <path id="DejaVuSans-32"/>
       <path d="M 64.40625 67.28125 
L 64.40625 56.890625 
Q 59.421875 61.53125 53.78125 63.8125 
Q 48.140625 66.109375 41.796875 66.109375 
Q 29.296875 66.109375 22.65625 58.46875 
Q 16.015625 50.828125 16.015625 36.375 
Q 16.015625 21.96875 22.65625 14.328125 
Q 29.296875 6.6875 41.796875 6.6875 
Q 48.140625 6.6875 53.78125 8.984375 
Q 59.421875 11.28125 64.40625 15.921875 
L 64.40625 5.609375 
Q 59.234375 2.09375 53.4375 0.328125 
Q 47.65625 -1.421875 41.21875 -1.421875 
Q 24.65625 -1.421875 15.125 8.703125 
Q 5.609375 18.84375 5.609375 36.375 
Q 5.609375 53.953125 15.125 64.078125 
Q 24.65625 74.21875 41.21875 74.21875 
Q 47.75 74.21875 53.53125 72.484375 
Q 59.328125 70.75 64.40625 67.28125 
z
" id="DejaVuSans-67"/>
       <path d="M 9.421875 54.6875 
L 18.40625 54.6875 
L 18.40625 0 
L 9.421875 0 
z
M 9.421875 75.984375 
L 18.40625 75.984375 
L 18.40625 64.59375 
L 9.421875 64.59375 
z
" id="DejaVuSans-105"/>
       <path d="M 45.40625 46.390625 
L 45.40625 75.984375 
L 54.390625 75.984375 
L 54.390625 0 
L 45.40625 0 
L 45.40625 8.203125 
Q 42.578125 3.328125 38.25 0.953125 
Q 33.9375 -1.421875 27.875 -1.421875 
Q 17.96875 -1.421875 11.734375 6.484375 
Q 5.515625 14.40625 5.515625 27.296875 
Q 5.515625 40.1875 11.734375 48.09375 
Q 17.96875 56 27.875 56 
Q 33.9375 56 38.25 53.625 
Q 42.578125 51.265625 45.40625 46.390625 
z
M 14.796875 27.296875 
Q 14.796875 17.390625 18.875 11.75 
Q 22.953125 6.109375 30.078125 6.109375 
Q 37.203125 6.109375 41.296875 11.75 
Q 45.40625 17.390625 45.40625 27.296875 
Q 45.40625 37.203125 41.296875 42.84375 
Q 37.203125 48.484375 30.078125 48.484375 
Q 22.953125 48.484375 18.875 42.84375 
Q 14.796875 37.203125 14.796875 27.296875 
z
" id="DejaVuSans-100"/>
       <path d="M 10.984375 1.515625 
L 10.984375 10.5 
Q 14.703125 8.734375 18.5 7.8125 
Q 22.3125 6.890625 25.984375 6.890625 
Q 35.75 6.890625 40.890625 13.453125 
Q 46.046875 20.015625 46.78125 33.40625 
Q 43.953125 29.203125 39.59375 26.953125 
Q 35.25 24.703125 29.984375 24.703125 
Q 19.046875 24.703125 12.671875 31.3125 
Q 6.296875 37.9375 6.296875 49.421875 
Q 6.296875 60.640625 12.9375 67.421875 
Q 19.578125 74.21875 30.609375 74.21875 
Q 43.265625 74.21875 49.921875 64.515625 
Q 56.59375 54.828125 56.59375 36.375 
Q 56.59375 19.140625 48.40625 8.859375 
Q 40.234375 -1.421875 26.421875 -1.421875 
Q 22.703125 -1.421875 18.890625 -0.6875 
Q 15.09375 0.046875 10.984375 1.515625 
z
M 30.609375 32.421875 
Q 37.25 32.421875 41.125 36.953125 
Q 45.015625 41.5 45.015625 49.421875 
Q 45.015625 57.28125 41.125 61.84375 
Q 37.25 66.40625 30.609375 66.40625 
Q 23.96875 66.40625 20.09375 61.84375 
Q 16.21875 57.28125 16.21875 49.421875 
Q 16.21875 41.5 20.09375 36.953125 
Q 23.96875 32.421875 30.609375 32.421875 
z
" id="DejaVuSans-57"/>
       <path d="M 44.28125 53.078125 
L 44.28125 44.578125 
Q 40.484375 46.53125 36.375 47.5 
Q 32.28125 48.484375 27.875 48.484375 
Q 21.1875 48.484375 17.84375 46.4375 
Q 14.5 44.390625 14.5 40.28125 
Q 14.5 37.15625 16.890625 35.375 
Q 19.28125 33.59375 26.515625 31.984375 
L 29.59375 31.296875 
Q 39.15625 29.25 43.1875 25.515625 
Q 47.21875 21.78125 47.21875 15.09375 
Q 47.21875 7.46875 41.1875 3.015625 
Q 35.15625 -1.421875 24.609375 -1.421875 
Q 20.21875 -1.421875 15.453125 -0.5625 
Q 10.6875 0.296875 5.421875 2 
L 5.421875 11.28125 
Q 10.40625 8.6875 15.234375 7.390625 
Q 20.0625 6.109375 24.8125 6.109375 
Q 31.15625 6.109375 34.5625 8.28125 
Q 37.984375 10.453125 37.984375 14.40625 
Q 37.984375 18.0625 35.515625 20.015625 
Q 33.0625 21.96875 24.703125 23.78125 
L 21.578125 24.515625 
Q 13.234375 26.265625 9.515625 29.90625 
Q 5.8125 33.546875 5.8125 39.890625 
Q 5.8125 47.609375 11.28125 51.796875 
Q 16.75 56 26.8125 56 
Q 31.78125 56 36.171875 55.265625 
Q 40.578125 54.546875 44.28125 53.078125 
z
" id="DejaVuSans-115"/>
      </defs>
      <use xlink:href="#DejaVuSans-73"/>
      <use x="29.492188" xlink:href="#DejaVuSans-110"/>
      <use x="92.871094" xlink:href="#DejaVuSans-109"/>
      <use x="190.283203" xlink:href="#DejaVuSans-97"/>
      <use x="251.5625" xlink:href="#DejaVuSans-116"/>
      <use x="290.771484" xlink:href="#DejaVuSans-101"/>
      <use x="352.294922" xlink:href="#DejaVuSans-32"/>
      <use x="384.082031" xlink:href="#DejaVuSans-67"/>
      <use x="453.90625" xlink:href="#DejaVuSans-111"/>
      <use x="515.087891" xlink:href="#DejaVuSans-118"/>
      <use x="574.267578" xlink:href="#DejaVuSans-105"/>
      <use x="602.050781" xlink:href="#DejaVuSans-100"/>
      <use x="665.527344" xlink:href="#DejaVuSans-49"/>
      <use x="729.150391" xlink:href="#DejaVuSans-57"/>
      <use x="792.773438" xlink:href="#DejaVuSans-32"/>
      <use x="824.560547" xlink:href="#DejaVuSans-112"/>
      <use x="888.037109" xlink:href="#DejaVuSans-111"/>
      <use x="949.21875" xlink:href="#DejaVuSans-115"/>
      <use x="1001.318359" xlink:href="#DejaVuSans-105"/>
      <use x="1029.101562" xlink:href="#DejaVuSans-116"/>
      <use x="1068.310547" xlink:href="#DejaVuSans-105"/>
      <use x="1096.09375" xlink:href="#DejaVuSans-118"/>
      <use x="1155.273438" xlink:href="#DejaVuSans-101"/>
      <use x="1216.796875" xlink:href="#DejaVuSans-32"/>
      <use x="1248.583984" xlink:href="#DejaVuSans-116"/>
      <use x="1287.792969" xlink:href="#DejaVuSans-101"/>
      <use x="1349.316406" xlink:href="#DejaVuSans-115"/>
      <use x="1401.416016" xlink:href="#DejaVuSans-116"/>
      <use x="1440.625" xlink:href="#DejaVuSans-32"/>
      <use x="1472.412109" xlink:href="#DejaVuSans-114"/>
      <use x="1511.275391" xlink:href="#DejaVuSans-101"/>
      <use x="1572.798828" xlink:href="#DejaVuSans-115"/>
      <use x="1624.898438" xlink:href="#DejaVuSans-117"/>
      <use x="1688.277344" xlink:href="#DejaVuSans-108"/>
      <use x="1716.060547" xlink:href="#DejaVuSans-116"/>
     </g>
    </g>
   </g>
   <g id="PathCollection_1">
    <path clip-path="url(#p5da9ce9e21)" d="M 59.257852 290.926484 
C 59.375367 290.926484 59.488085 290.879795 59.571181 290.796699 
C 59.654277 290.713604 59.700966 290.600886 59.700966 290.483371 
C 59.700966 290.365856 59.654277 290.253138 59.571181 290.170042 
C 59.488085 290.086947 59.375367 290.040257 59.257852 290.040257 
C 59.140337 290.040257 59.027619 290.086947 58.944524 290.170042 
C 58.861428 290.253138 58.814739 290.365856 58.814739 290.483371 
C 58.814739 290.600886 58.861428 290.713604 58.944524 290.796699 
C 59.027619 290.879795 59.140337 290.926484 59.257852 290.926484 
z
" style="fill:#ffffff;stroke:#ffffff;stroke-width:0.886227;"/>
    <path clip-path="url(#p5da9ce9e21)" d="M 68.806515 293.829524 
C 68.92403 293.829524 69.036748 293.782835 69.119844 293.699739 
C 69.20294 293.616644 69.249629 293.503926 69.249629 293.386411 
C 69.249629 293.268896 69.20294 293.156178 69.119844 293.073082 
C 69.036748 292.989987 68.92403 292.943297 68.806515 292.943297 
C 68.689 292.943297 68.576283 292.989987 68.493187 293.073082 
C 68.410091 293.156178 68.363402 293.268896 68.363402 293.386411 
C 68.363402 293.503926 68.410091 293.616644 68.493187 293.699739 
C 68.576283 293.782835 68.689 293.829524 68.806515 293.829524 
z
" style="fill:#ffffff;stroke:#ffffff;stroke-width:0.886227;"/>
    <path clip-path="url(#p5da9ce9e21)" d="M 78.355178 293.829524 
C 78.472694 293.829524 78.585411 293.782835 78.668507 293.699739 
C 78.751603 293.616644 78.798292 293.503926 78.798292 293.386411 
C 78.798292 293.268896 78.751603 293.156178 78.668507 293.073082 
C 78.585411 292.989987 78.472694 292.943297 78.355178 292.943297 
C 78.237663 292.943297 78.124946 292.989987 78.04185 293.073082 
C 77.958754 293.156178 77.912065 293.268896 77.912065 293.386411 
C 77.912065 293.503926 77.958754 293.616644 78.04185 293.699739 
C 78.124946 293.782835 78.237663 293.829524 78.355178 293.829524 
z
" style="fill:#ffffff;stroke:#ffffff;stroke-width:0.886227;"/>
    <path clip-path="url(#p5da9ce9e21)" d="M 87.903842 293.829524 
C 88.021357 293.829524 88.134074 293.782835 88.21717 293.699739 
C 88.300266 293.616644 88.346955 293.503926 88.346955 293.386411 
C 88.346955 293.268896 88.300266 293.156178 88.21717 293.073082 
C 88.134074 292.989987 88.021357 292.943297 87.903842 292.943297 
C 87.786327 292.943297 87.673609 292.989987 87.590513 293.073082 
C 87.507417 293.156178 87.460728 293.268896 87.460728 293.386411 
C 87.460728 293.503926 87.507417 293.616644 87.590513 293.699739 
C 87.673609 293.782835 87.786327 293.829524 87.903842 293.829524 
z
" style="fill:#ffffff;stroke:#ffffff;stroke-width:0.886227;"/>
    <path clip-path="url(#p5da9ce9e21)" d="M 97.452505 242.542484 
C 97.57002 242.542484 97.682738 242.495795 97.765833 242.412699 
C 97.848929 242.329604 97.895618 242.216886 97.895618 242.099371 
C 97.895618 241.981856 97.848929 241.869138 97.765833 241.786042 
C 97.682738 241.702947 97.57002 241.656257 97.452505 241.656257 
C 97.33499 241.656257 97.222272 241.702947 97.139176 241.786042 
C 97.05608 241.869138 97.009391 241.981856 97.009391 242.099371 
C 97.009391 242.216886 97.05608 242.329604 97.139176 242.412699 
C 97.222272 242.495795 97.33499 242.542484 97.452505 242.542484 
z
" style="fill:#ffffff;stroke:#ffffff;stroke-width:0.886227;"/>
    <path clip-path="url(#p5da9ce9e21)" d="M 107.001168 289.474964 
C 107.118683 289.474964 107.231401 289.428275 107.314496 289.345179 
C 107.397592 289.262084 107.444281 289.149366 107.444281 289.031851 
C 107.444281 288.914336 107.397592 288.801618 107.314496 288.718522 
C 107.231401 288.635427 107.118683 288.588737 107.001168 288.588737 
C 106.883653 288.588737 106.770935 288.635427 106.687839 288.718522 
C 106.604744 288.801618 106.558054 288.914336 106.558054 289.031851 
C 106.558054 289.149366 106.604744 289.262084 106.687839 289.345179 
C 106.770935 289.428275 106.883653 289.474964 107.001168 289.474964 
z
" style="fill:#ffffff;stroke:#ffffff;stroke-width:0.886227;"/>
    <path clip-path="url(#p5da9ce9e21)" d="M 116.549831 285.120404 
C 116.667346 285.120404 116.780064 285.073715 116.863159 284.990619 
C 116.946255 284.907524 116.992944 284.794806 116.992944 284.677291 
C 116.992944 284.559776 116.946255 284.447058 116.863159 284.363962 
C 116.780064 284.280867 116.667346 284.234177 116.549831 284.234177 
C 116.432316 284.234177 116.319598 284.280867 116.236502 284.363962 
C 116.153407 284.447058 116.106717 284.559776 116.106717 284.677291 
C 116.106717 284.794806 116.153407 284.907524 116.236502 284.990619 
C 116.319598 285.073715 116.432316 285.120404 116.549831 285.120404 
z
" style="fill:#ffffff;stroke:#ffffff;stroke-width:0.886227;"/>
    <path clip-path="url(#p5da9ce9e21)" d="M 126.098494 288.991124 
C 126.216009 288.991124 126.328727 288.944435 126.411823 288.861339 
C 126.494918 288.778244 126.541607 288.665526 126.541607 288.548011 
C 126.541607 288.430496 126.494918 288.317778 126.411823 288.234682 
C 126.328727 288.151587 126.216009 288.104897 126.098494 288.104897 
C 125.980979 288.104897 125.868261 288.151587 125.785165 288.234682 
C 125.70207 288.317778 125.655381 288.430496 125.655381 288.548011 
C 125.655381 288.665526 125.70207 288.778244 125.785165 288.861339 
C 125.868261 288.944435 125.980979 288.991124 126.098494 288.991124 
z
" style="fill:#ffffff;stroke:#ffffff;stroke-width:0.886227;"/>
    <path clip-path="url(#p5da9ce9e21)" d="M 135.647157 291.894164 
C 135.764672 291.894164 135.87739 291.847475 135.960486 291.764379 
C 136.043581 291.681284 136.090271 291.568566 136.090271 291.451051 
C 136.090271 291.333536 136.043581 291.220818 135.960486 291.137722 
C 135.87739 291.054627 135.764672 291.007937 135.647157 291.007937 
C 135.529642 291.007937 135.416924 291.054627 135.333829 291.137722 
C 135.250733 291.220818 135.204044 291.333536 135.204044 291.451051 
C 135.204044 291.568566 135.250733 291.681284 135.333829 291.764379 
C 135.416924 291.847475 135.529642 291.894164 135.647157 291.894164 
z
" style="fill:#ffffff;stroke:#ffffff;stroke-width:0.886227;"/>
    <path clip-path="url(#p5da9ce9e21)" d="M 145.19582 288.991124 
C 145.313335 288.991124 145.426053 288.944435 145.509149 288.861339 
C 145.592244 288.778244 145.638934 288.665526 145.638934 288.548011 
C 145.638934 288.430496 145.592244 288.317778 145.509149 288.234682 
C 145.426053 288.151587 145.313335 288.104897 145.19582 288.104897 
C 145.078305 288.104897 144.965587 288.151587 144.882492 288.234682 
C 144.799396 288.317778 144.752707 288.430496 144.752707 288.548011 
C 144.752707 288.665526 144.799396 288.778244 144.882492 288.861339 
C 144.965587 288.944435 145.078305 288.991124 145.19582 288.991124 
z
" style="fill:#ffffff;stroke:#ffffff;stroke-width:0.886227;"/>
    <path clip-path="url(#p5da9ce9e21)" d="M 154.744483 290.926484 
C 154.861998 290.926484 154.974716 290.879795 155.057812 290.796699 
C 155.140908 290.713604 155.187597 290.600886 155.187597 290.483371 
C 155.187597 290.365856 155.140908 290.253138 155.057812 290.170042 
C 154.974716 290.086947 154.861998 290.040257 154.744483 290.040257 
C 154.626968 290.040257 154.51425 290.086947 154.431155 290.170042 
C 154.348059 290.253138 154.30137 290.365856 154.30137 290.483371 
C 154.30137 290.600886 154.348059 290.713604 154.431155 290.796699 
C 154.51425 290.879795 154.626968 290.926484 154.744483 290.926484 
z
" style="fill:#ffffff;stroke:#ffffff;stroke-width:0.886227;"/>
    <path clip-path="url(#p5da9ce9e21)" d="M 164.293146 290.442644 
C 164.410661 290.442644 164.523379 290.395955 164.606475 290.312859 
C 164.689571 290.229764 164.73626 290.117046 164.73626 289.999531 
C 164.73626 289.882016 164.689571 289.769298 164.606475 289.686202 
C 164.523379 289.603107 164.410661 289.556417 164.293146 289.556417 
C 164.175631 289.556417 164.062914 289.603107 163.979818 289.686202 
C 163.896722 289.769298 163.850033 289.882016 163.850033 289.999531 
C 163.850033 290.117046 163.896722 290.229764 163.979818 290.312859 
C 164.062914 290.395955 164.175631 290.442644 164.293146 290.442644 
z
" style="fill:#ffffff;stroke:#ffffff;stroke-width:0.886227;"/>
    <path clip-path="url(#p5da9ce9e21)" d="M 173.841809 292.861844 
C 173.959325 292.861844 174.072042 292.815155 174.155138 292.732059 
C 174.238234 292.648964 174.284923 292.536246 174.284923 292.418731 
C 174.284923 292.301216 174.238234 292.188498 174.155138 292.105402 
C 174.072042 292.022307 173.959325 291.975617 173.841809 291.975617 
C 173.724294 291.975617 173.611577 292.022307 173.528481 292.105402 
C 173.445385 292.188498 173.398696 292.301216 173.398696 292.418731 
C 173.398696 292.536246 173.445385 292.648964 173.528481 292.732059 
C 173.611577 292.815155 173.724294 292.861844 173.841809 292.861844 
z
" style="fill:#ffffff;stroke:#ffffff;stroke-width:0.886227;"/>
    <path clip-path="url(#p5da9ce9e21)" d="M 183.390473 290.442644 
C 183.507988 290.442644 183.620705 290.395955 183.703801 290.312859 
C 183.786897 290.229764 183.833586 290.117046 183.833586 289.999531 
C 183.833586 289.882016 183.786897 289.769298 183.703801 289.686202 
C 183.620705 289.603107 183.507988 289.556417 183.390473 289.556417 
C 183.272958 289.556417 183.16024 289.603107 183.077144 289.686202 
C 182.994048 289.769298 182.947359 289.882016 182.947359 289.999531 
C 182.947359 290.117046 182.994048 290.229764 183.077144 290.312859 
C 183.16024 290.395955 183.272958 290.442644 183.390473 290.442644 
z
" style="fill:#ffffff;stroke:#ffffff;stroke-width:0.886227;"/>
    <path clip-path="url(#p5da9ce9e21)" d="M 192.939136 291.894164 
C 193.056651 291.894164 193.169369 291.847475 193.252464 291.764379 
C 193.33556 291.681284 193.382249 291.568566 193.382249 291.451051 
C 193.382249 291.333536 193.33556 291.220818 193.252464 291.137722 
C 193.169369 291.054627 193.056651 291.007937 192.939136 291.007937 
C 192.821621 291.007937 192.708903 291.054627 192.625807 291.137722 
C 192.542711 291.220818 192.496022 291.333536 192.496022 291.451051 
C 192.496022 291.568566 192.542711 291.681284 192.625807 291.764379 
C 192.708903 291.847475 192.821621 291.894164 192.939136 291.894164 
z
" style="fill:#ffffff;stroke:#ffffff;stroke-width:0.886227;"/>
    <path clip-path="url(#p5da9ce9e21)" d="M 202.487799 293.345684 
C 202.605314 293.345684 202.718032 293.298995 202.801127 293.215899 
C 202.884223 293.132804 202.930912 293.020086 202.930912 292.902571 
C 202.930912 292.785056 202.884223 292.672338 202.801127 292.589242 
C 202.718032 292.506147 202.605314 292.459457 202.487799 292.459457 
C 202.370284 292.459457 202.257566 292.506147 202.17447 292.589242 
C 202.091375 292.672338 202.044685 292.785056 202.044685 292.902571 
C 202.044685 293.020086 202.091375 293.132804 202.17447 293.215899 
C 202.257566 293.298995 202.370284 293.345684 202.487799 293.345684 
z
" style="fill:#ffffff;stroke:#ffffff;stroke-width:0.886227;"/>
    <path clip-path="url(#p5da9ce9e21)" d="M 212.036462 290.442644 
C 212.153977 290.442644 212.266695 290.395955 212.34979 290.312859 
C 212.432886 290.229764 212.479575 290.117046 212.479575 289.999531 
C 212.479575 289.882016 212.432886 289.769298 212.34979 289.686202 
C 212.266695 289.603107 212.153977 289.556417 212.036462 289.556417 
C 211.918947 289.556417 211.806229 289.603107 211.723133 289.686202 
C 211.640038 289.769298 211.593348 289.882016 211.593348 289.999531 
C 211.593348 290.117046 211.640038 290.229764 211.723133 290.312859 
C 211.806229 290.395955 211.918947 290.442644 212.036462 290.442644 
z
" style="fill:#ffffff;stroke:#ffffff;stroke-width:0.886227;"/>
    <path clip-path="url(#p5da9ce9e21)" d="M 221.585125 292.861844 
C 221.70264 292.861844 221.815358 292.815155 221.898454 292.732059 
C 221.981549 292.648964 222.028238 292.536246 222.028238 292.418731 
C 222.028238 292.301216 221.981549 292.188498 221.898454 292.105402 
C 221.815358 292.022307 221.70264 291.975617 221.585125 291.975617 
C 221.46761 291.975617 221.354892 292.022307 221.271796 292.105402 
C 221.188701 292.188498 221.142012 292.301216 221.142012 292.418731 
C 221.142012 292.536246 221.188701 292.648964 221.271796 292.732059 
C 221.354892 292.815155 221.46761 292.861844 221.585125 292.861844 
z
" style="fill:#ffffff;stroke:#ffffff;stroke-width:0.886227;"/>
    <path clip-path="url(#p5da9ce9e21)" d="M 231.133788 293.345684 
C 231.251303 293.345684 231.364021 293.298995 231.447117 293.215899 
C 231.530212 293.132804 231.576902 293.020086 231.576902 292.902571 
C 231.576902 292.785056 231.530212 292.672338 231.447117 292.589242 
C 231.364021 292.506147 231.251303 292.459457 231.133788 292.459457 
C 231.016273 292.459457 230.903555 292.506147 230.82046 292.589242 
C 230.737364 292.672338 230.690675 292.785056 230.690675 292.902571 
C 230.690675 293.020086 230.737364 293.132804 230.82046 293.215899 
C 230.903555 293.298995 231.016273 293.345684 231.133788 293.345684 
z
" style="fill:#ffffff;stroke:#ffffff;stroke-width:0.886227;"/>
    <path clip-path="url(#p5da9ce9e21)" d="M 240.682451 293.829524 
C 240.799966 293.829524 240.912684 293.782835 240.99578 293.699739 
C 241.078875 293.616644 241.125565 293.503926 241.125565 293.386411 
C 241.125565 293.268896 241.078875 293.156178 240.99578 293.073082 
C 240.912684 292.989987 240.799966 292.943297 240.682451 292.943297 
C 240.564936 292.943297 240.452218 292.989987 240.369123 293.073082 
C 240.286027 293.156178 240.239338 293.268896 240.239338 293.386411 
C 240.239338 293.503926 240.286027 293.616644 240.369123 293.699739 
C 240.452218 293.782835 240.564936 293.829524 240.682451 293.829524 
z
" style="fill:#ffffff;stroke:#ffffff;stroke-width:0.886227;"/>
    <path clip-path="url(#p5da9ce9e21)" d="M 250.231114 284.152724 
C 250.348629 284.152724 250.461347 284.106035 250.544443 284.022939 
C 250.627539 283.939844 250.674228 283.827126 250.674228 283.709611 
C 250.674228 283.592096 250.627539 283.479378 250.544443 283.396282 
C 250.461347 283.313187 250.348629 283.266497 250.231114 283.266497 
C 250.113599 283.266497 250.000881 283.313187 249.917786 283.396282 
C 249.83469 283.479378 249.788001 283.592096 249.788001 283.709611 
C 249.788001 283.827126 249.83469 283.939844 249.917786 284.022939 
C 250.000881 284.106035 250.113599 284.152724 250.231114 284.152724 
z
" style="fill:#ffffff;stroke:#ffffff;stroke-width:0.886227;"/>
    <path clip-path="url(#p5da9ce9e21)" d="M 259.779777 293.829524 
C 259.897292 293.829524 260.01001 293.782835 260.093106 293.699739 
C 260.176202 293.616644 260.222891 293.503926 260.222891 293.386411 
C 260.222891 293.268896 260.176202 293.156178 260.093106 293.073082 
C 260.01001 292.989987 259.897292 292.943297 259.779777 292.943297 
C 259.662262 292.943297 259.549545 292.989987 259.466449 293.073082 
C 259.383353 293.156178 259.336664 293.268896 259.336664 293.386411 
C 259.336664 293.503926 259.383353 293.616644 259.466449 293.699739 
C 259.549545 293.782835 259.662262 293.829524 259.779777 293.829524 
z
" style="fill:#ffffff;stroke:#ffffff;stroke-width:0.886227;"/>
    <path clip-path="url(#p5da9ce9e21)" d="M 269.328441 293.829524 
C 269.445956 293.829524 269.558673 293.782835 269.641769 293.699739 
C 269.724865 293.616644 269.771554 293.503926 269.771554 293.386411 
C 269.771554 293.268896 269.724865 293.156178 269.641769 293.073082 
C 269.558673 292.989987 269.445956 292.943297 269.328441 292.943297 
C 269.210925 292.943297 269.098208 292.989987 269.015112 293.073082 
C 268.932016 293.156178 268.885327 293.268896 268.885327 293.386411 
C 268.885327 293.503926 268.932016 293.616644 269.015112 293.699739 
C 269.098208 293.782835 269.210925 293.829524 269.328441 293.829524 
z
" style="fill:#ffffff;stroke:#ffffff;stroke-width:0.886227;"/>
    <path clip-path="url(#p5da9ce9e21)" d="M 278.877104 293.829524 
C 278.994619 293.829524 279.107336 293.782835 279.190432 293.699739 
C 279.273528 293.616644 279.320217 293.503926 279.320217 293.386411 
C 279.320217 293.268896 279.273528 293.156178 279.190432 293.073082 
C 279.107336 292.989987 278.994619 292.943297 278.877104 292.943297 
C 278.759589 292.943297 278.646871 292.989987 278.563775 293.073082 
C 278.480679 293.156178 278.43399 293.268896 278.43399 293.386411 
C 278.43399 293.503926 278.480679 293.616644 278.563775 293.699739 
C 278.646871 293.782835 278.759589 293.829524 278.877104 293.829524 
z
" style="fill:#ffffff;stroke:#ffffff;stroke-width:0.886227;"/>
    <path clip-path="url(#p5da9ce9e21)" d="M 288.425767 254.638484 
C 288.543282 254.638484 288.656 254.591795 288.739095 254.508699 
C 288.822191 254.425604 288.86888 254.312886 288.86888 254.195371 
C 288.86888 254.077856 288.822191 253.965138 288.739095 253.882042 
C 288.656 253.798947 288.543282 253.752257 288.425767 253.752257 
C 288.308252 253.752257 288.195534 253.798947 288.112438 253.882042 
C 288.029342 253.965138 287.982653 254.077856 287.982653 254.195371 
C 287.982653 254.312886 288.029342 254.425604 288.112438 254.508699 
C 288.195534 254.591795 288.308252 254.638484 288.425767 254.638484 
z
" style="fill:#ffffff;stroke:#ffffff;stroke-width:0.886227;"/>
    <path clip-path="url(#p5da9ce9e21)" d="M 297.97443 275.443604 
C 298.091945 275.443604 298.204663 275.396915 298.287758 275.313819 
C 298.370854 275.230724 298.417543 275.118006 298.417543 275.000491 
C 298.417543 274.882976 298.370854 274.770258 298.287758 274.687162 
C 298.204663 274.604067 298.091945 274.557377 297.97443 274.557377 
C 297.856915 274.557377 297.744197 274.604067 297.661101 274.687162 
C 297.578006 274.770258 297.531316 274.882976 297.531316 275.000491 
C 297.531316 275.118006 297.578006 275.230724 297.661101 275.313819 
C 297.744197 275.396915 297.856915 275.443604 297.97443 275.443604 
z
" style="fill:#ffffff;stroke:#ffffff;stroke-width:0.886227;"/>
    <path clip-path="url(#p5da9ce9e21)" d="M 307.523093 280.765844 
C 307.640608 280.765844 307.753326 280.719155 307.836421 280.636059 
C 307.919517 280.552964 307.966206 280.440246 307.966206 280.322731 
C 307.966206 280.205216 307.919517 280.092498 307.836421 280.009402 
C 307.753326 279.926307 307.640608 279.879617 307.523093 279.879617 
C 307.405578 279.879617 307.29286 279.926307 307.209764 280.009402 
C 307.126669 280.092498 307.079979 280.205216 307.079979 280.322731 
C 307.079979 280.440246 307.126669 280.552964 307.209764 280.636059 
C 307.29286 280.719155 307.405578 280.765844 307.523093 280.765844 
z
" style="fill:#ffffff;stroke:#ffffff;stroke-width:0.886227;"/>
    <path clip-path="url(#p5da9ce9e21)" d="M 317.071756 269.153684 
C 317.189271 269.153684 317.301989 269.106995 317.385085 269.023899 
C 317.46818 268.940804 317.514869 268.828086 317.514869 268.710571 
C 317.514869 268.593056 317.46818 268.480338 317.385085 268.397242 
C 317.301989 268.314147 317.189271 268.267457 317.071756 268.267457 
C 316.954241 268.267457 316.841523 268.314147 316.758427 268.397242 
C 316.675332 268.480338 316.628643 268.593056 316.628643 268.710571 
C 316.628643 268.828086 316.675332 268.940804 316.758427 269.023899 
C 316.841523 269.106995 316.954241 269.153684 317.071756 269.153684 
z
" style="fill:#ffffff;stroke:#ffffff;stroke-width:0.886227;"/>
    <path clip-path="url(#p5da9ce9e21)" d="M 326.620419 229.962644 
C 326.737934 229.962644 326.850652 229.915955 326.933748 229.832859 
C 327.016843 229.749764 327.063533 229.637046 327.063533 229.519531 
C 327.063533 229.402016 327.016843 229.289298 326.933748 229.206202 
C 326.850652 229.123107 326.737934 229.076417 326.620419 229.076417 
C 326.502904 229.076417 326.390186 229.123107 326.307091 229.206202 
C 326.223995 229.289298 326.177306 229.402016 326.177306 229.519531 
C 326.177306 229.637046 326.223995 229.749764 326.307091 229.832859 
C 326.390186 229.915955 326.502904 229.962644 326.620419 229.962644 
z
" style="fill:#ffffff;stroke:#ffffff;stroke-width:0.886227;"/>
    <path clip-path="url(#p5da9ce9e21)" d="M 336.169082 247.864724 
C 336.286597 247.864724 336.399315 247.818035 336.482411 247.734939 
C 336.565506 247.651844 336.612196 247.539126 336.612196 247.421611 
C 336.612196 247.304096 336.565506 247.191378 336.482411 247.108282 
C 336.399315 247.025187 336.286597 246.978497 336.169082 246.978497 
C 336.051567 246.978497 335.938849 247.025187 335.855754 247.108282 
C 335.772658 247.191378 335.725969 247.304096 335.725969 247.421611 
C 335.725969 247.539126 335.772658 247.651844 335.855754 247.734939 
C 335.938849 247.818035 336.051567 247.864724 336.169082 247.864724 
z
" style="fill:#ffffff;stroke:#ffffff;stroke-width:0.886227;"/>
    <path clip-path="url(#p5da9ce9e21)" d="M 345.717745 185.933204 
C 345.83526 185.933204 345.947978 185.886515 346.031074 185.803419 
C 346.11417 185.720324 346.160859 185.607606 346.160859 185.490091 
C 346.160859 185.372576 346.11417 185.259858 346.031074 185.176762 
C 345.947978 185.093667 345.83526 185.046977 345.717745 185.046977 
C 345.60023 185.046977 345.487512 185.093667 345.404417 185.176762 
C 345.321321 185.259858 345.274632 185.372576 345.274632 185.490091 
C 345.274632 185.607606 345.321321 185.720324 345.404417 185.803419 
C 345.487512 185.886515 345.60023 185.933204 345.717745 185.933204 
z
" style="fill:#ffffff;stroke:#ffffff;stroke-width:0.886227;"/>
    <path clip-path="url(#p5da9ce9e21)" d="M 355.266408 118.679444 
C 355.383923 118.679444 355.496641 118.632755 355.579737 118.549659 
C 355.662833 118.466564 355.709522 118.353846 355.709522 118.236331 
C 355.709522 118.118816 355.662833 118.006098 355.579737 117.923002 
C 355.496641 117.839907 355.383923 117.793217 355.266408 117.793217 
C 355.148893 117.793217 355.036176 117.839907 354.95308 117.923002 
C 354.869984 118.006098 354.823295 118.118816 354.823295 118.236331 
C 354.823295 118.353846 354.869984 118.466564 354.95308 118.549659 
C 355.036176 118.632755 355.148893 118.679444 355.266408 118.679444 
z
" style="fill:#ffffff;stroke:#ffffff;stroke-width:0.886227;"/>
    <path clip-path="url(#p5da9ce9e21)" d="M 374.363735 147.709844 
C 374.48125 147.709844 374.593967 147.663155 374.677063 147.580059 
C 374.760159 147.496964 374.806848 147.384246 374.806848 147.266731 
C 374.806848 147.149216 374.760159 147.036498 374.677063 146.953402 
C 374.593967 146.870307 374.48125 146.823617 374.363735 146.823617 
C 374.24622 146.823617 374.133502 146.870307 374.050406 146.953402 
C 373.96731 147.036498 373.920621 147.149216 373.920621 147.266731 
C 373.920621 147.384246 373.96731 147.496964 374.050406 147.580059 
C 374.133502 147.663155 374.24622 147.709844 374.363735 147.709844 
z
" style="fill:#ffffff;stroke:#ffffff;stroke-width:0.886227;"/>
    <path clip-path="url(#p5da9ce9e21)" d="M 383.912398 135.613844 
C 384.029913 135.613844 384.142631 135.567155 384.225726 135.484059 
C 384.308822 135.400964 384.355511 135.288246 384.355511 135.170731 
C 384.355511 135.053216 384.308822 134.940498 384.225726 134.857402 
C 384.142631 134.774307 384.029913 134.727617 383.912398 134.727617 
C 383.794883 134.727617 383.682165 134.774307 383.599069 134.857402 
C 383.515973 134.940498 383.469284 135.053216 383.469284 135.170731 
C 383.469284 135.288246 383.515973 135.400964 383.599069 135.484059 
C 383.682165 135.567155 383.794883 135.613844 383.912398 135.613844 
z
" style="fill:#ffffff;stroke:#ffffff;stroke-width:0.886227;"/>
   </g>
   <g id="line2d_35">
    <path clip-path="url(#p5da9ce9e21)" d="M 67.476955 290.616079 
L 71.586506 287.66444 
L 75.696057 284.918936 
L 79.805608 282.561946 
L 83.91516 280.288819 
L 88.024711 278.16966 
L 92.134262 276.427453 
L 96.243813 275.285177 
L 100.353364 275.096041 
L 104.462916 276.104817 
L 108.572467 277.84976 
L 112.682018 279.836166 
L 116.791569 281.572306 
L 120.90112 283.516636 
L 125.010672 285.929066 
L 129.120223 288.307027 
L 133.229774 290.147947 
L 137.339325 291.005786 
L 141.448876 291.13434 
L 145.558428 290.888063 
L 149.667979 290.551434 
L 153.77753 290.408928 
L 157.887081 290.545472 
L 161.996632 290.648854 
L 166.106184 290.731455 
L 170.215735 290.822188 
L 174.325286 290.949294 
L 178.434837 291.078411 
L 182.544389 291.18194 
L 186.65394 291.267437 
L 190.763491 291.342456 
L 194.873042 291.425346 
L 198.982593 291.576818 
L 203.092145 291.76558 
L 207.201696 291.944109 
L 211.311247 292.064885 
L 215.420798 292.068723 
L 219.530349 291.943206 
L 223.639901 291.743121 
L 227.749452 291.524323 
L 231.859003 291.333385 
L 235.968554 290.945263 
L 240.078105 290.613377 
L 244.187657 290.869022 
L 248.297208 291.667966 
L 252.406759 292.484517 
L 256.51631 292.788509 
L 260.625861 292.056792 
L 264.735413 290.218593 
L 268.844964 287.7335 
L 272.954515 285.060725 
L 277.064066 282.659478 
L 281.173618 280.866511 
L 285.283169 279.288272 
L 289.39272 277.669121 
L 293.502271 275.808335 
L 297.611822 273.505191 
L 301.721374 271.80451 
L 305.830925 271.484799 
L 309.940476 271.110752 
L 314.050027 269.233777 
L 318.159578 264.428834 
L 322.26913 256.346578 
L 326.378681 245.878353 
L 330.488232 233.947527 
L 334.597783 221.477468 
L 338.707334 209.062277 
L 342.816886 196.326043 
L 346.926437 184.002175 
L 351.035988 172.948668 
L 355.145539 164.02352 
L 359.25509 156.865722 
L 363.364642 150.47622 
L 367.474193 144.956179 
L 371.583744 140.407778 
L 375.693295 136.933193 
L 379.802847 134.634601 
L 383.912398 133.61418 
" style="fill:none;stroke:#00008b;stroke-linejoin:miter;stroke-width:2.658681;"/>
   </g>
   <g id="patch_3">
    <path d="M 43.025125 305.482411 
L 400.145125 305.482411 
" style="fill:none;stroke:#000000;stroke-linecap:square;stroke-linejoin:miter;stroke-width:0.7;"/>
   </g>
  </g>
  <g id="text_17">
   <!-- Weekly positive Covid19 cases in Pennsylvania prison -->
   <g transform="translate(27.407 17.837812)scale(0.14 -0.14)">
    <defs>
     <path d="M 3.328125 72.90625 
L 13.28125 72.90625 
L 28.609375 11.28125 
L 43.890625 72.90625 
L 54.984375 72.90625 
L 70.3125 11.28125 
L 85.59375 72.90625 
L 95.609375 72.90625 
L 77.296875 0 
L 64.890625 0 
L 49.515625 63.28125 
L 33.984375 0 
L 21.578125 0 
z
" id="DejaVuSans-87"/>
     <path d="M 9.078125 75.984375 
L 18.109375 75.984375 
L 18.109375 31.109375 
L 44.921875 54.6875 
L 56.390625 54.6875 
L 27.390625 29.109375 
L 57.625 0 
L 45.90625 0 
L 18.109375 26.703125 
L 18.109375 0 
L 9.078125 0 
z
" id="DejaVuSans-107"/>
     <path d="M 19.671875 64.796875 
L 19.671875 37.40625 
L 32.078125 37.40625 
Q 38.96875 37.40625 42.71875 40.96875 
Q 46.484375 44.53125 46.484375 51.125 
Q 46.484375 57.671875 42.71875 61.234375 
Q 38.96875 64.796875 32.078125 64.796875 
z
M 9.8125 72.90625 
L 32.078125 72.90625 
Q 44.34375 72.90625 50.609375 67.359375 
Q 56.890625 61.8125 56.890625 51.125 
Q 56.890625 40.328125 50.609375 34.8125 
Q 44.34375 29.296875 32.078125 29.296875 
L 19.671875 29.296875 
L 19.671875 0 
L 9.8125 0 
z
" id="DejaVuSans-80"/>
    </defs>
    <use xlink:href="#DejaVuSans-87"/>
    <use x="93.001953" xlink:href="#DejaVuSans-101"/>
    <use x="154.525391" xlink:href="#DejaVuSans-101"/>
    <use x="216.048828" xlink:href="#DejaVuSans-107"/>
    <use x="273.958984" xlink:href="#DejaVuSans-108"/>
    <use x="301.742188" xlink:href="#DejaVuSans-121"/>
    <use x="360.921875" xlink:href="#DejaVuSans-32"/>
    <use x="392.708984" xlink:href="#DejaVuSans-112"/>
    <use x="456.185547" xlink:href="#DejaVuSans-111"/>
    <use x="517.367188" xlink:href="#DejaVuSans-115"/>
    <use x="569.466797" xlink:href="#DejaVuSans-105"/>
    <use x="597.25" xlink:href="#DejaVuSans-116"/>
    <use x="636.458984" xlink:href="#DejaVuSans-105"/>
    <use x="664.242188" xlink:href="#DejaVuSans-118"/>
    <use x="723.421875" xlink:href="#DejaVuSans-101"/>
    <use x="784.945312" xlink:href="#DejaVuSans-32"/>
    <use x="816.732422" xlink:href="#DejaVuSans-67"/>
    <use x="886.556641" xlink:href="#DejaVuSans-111"/>
    <use x="947.738281" xlink:href="#DejaVuSans-118"/>
    <use x="1006.917969" xlink:href="#DejaVuSans-105"/>
    <use x="1034.701172" xlink:href="#DejaVuSans-100"/>
    <use x="1098.177734" xlink:href="#DejaVuSans-49"/>
    <use x="1161.800781" xlink:href="#DejaVuSans-57"/>
    <use x="1225.423828" xlink:href="#DejaVuSans-32"/>
    <use x="1257.210938" xlink:href="#DejaVuSans-99"/>
    <use x="1312.191406" xlink:href="#DejaVuSans-97"/>
    <use x="1373.470703" xlink:href="#DejaVuSans-115"/>
    <use x="1425.570312" xlink:href="#DejaVuSans-101"/>
    <use x="1487.09375" xlink:href="#DejaVuSans-115"/>
    <use x="1539.193359" xlink:href="#DejaVuSans-32"/>
    <use x="1570.980469" xlink:href="#DejaVuSans-105"/>
    <use x="1598.763672" xlink:href="#DejaVuSans-110"/>
    <use x="1662.142578" xlink:href="#DejaVuSans-32"/>
    <use x="1693.929688" xlink:href="#DejaVuSans-80"/>
    <use x="1750.607422" xlink:href="#DejaVuSans-101"/>
    <use x="1812.130859" xlink:href="#DejaVuSans-110"/>
    <use x="1875.509766" xlink:href="#DejaVuSans-110"/>
    <use x="1938.888672" xlink:href="#DejaVuSans-115"/>
    <use x="1990.988281" xlink:href="#DejaVuSans-121"/>
    <use x="2050.167969" xlink:href="#DejaVuSans-108"/>
    <use x="2077.951172" xlink:href="#DejaVuSans-118"/>
    <use x="2137.130859" xlink:href="#DejaVuSans-97"/>
    <use x="2198.410156" xlink:href="#DejaVuSans-110"/>
    <use x="2261.789062" xlink:href="#DejaVuSans-105"/>
    <use x="2289.572266" xlink:href="#DejaVuSans-97"/>
    <use x="2350.851562" xlink:href="#DejaVuSans-32"/>
    <use x="2382.638672" xlink:href="#DejaVuSans-112"/>
    <use x="2446.115234" xlink:href="#DejaVuSans-114"/>
    <use x="2487.228516" xlink:href="#DejaVuSans-105"/>
    <use x="2515.011719" xlink:href="#DejaVuSans-115"/>
    <use x="2567.111328" xlink:href="#DejaVuSans-111"/>
    <use x="2628.292969" xlink:href="#DejaVuSans-110"/>
   </g>
   <!-- for weeks of 07 Apr to 01 Dec -->
   <g transform="translate(111.342469 30.323406)scale(0.14 -0.14)">
    <defs>
     <path d="M 37.109375 75.984375 
L 37.109375 68.5 
L 28.515625 68.5 
Q 23.6875 68.5 21.796875 66.546875 
Q 19.921875 64.59375 19.921875 59.515625 
L 19.921875 54.6875 
L 34.71875 54.6875 
L 34.71875 47.703125 
L 19.921875 47.703125 
L 19.921875 0 
L 10.890625 0 
L 10.890625 47.703125 
L 2.296875 47.703125 
L 2.296875 54.6875 
L 10.890625 54.6875 
L 10.890625 58.5 
Q 10.890625 67.625 15.140625 71.796875 
Q 19.390625 75.984375 28.609375 75.984375 
z
" id="DejaVuSans-102"/>
     <path d="M 4.203125 54.6875 
L 13.1875 54.6875 
L 24.421875 12.015625 
L 35.59375 54.6875 
L 46.1875 54.6875 
L 57.421875 12.015625 
L 68.609375 54.6875 
L 77.59375 54.6875 
L 63.28125 0 
L 52.6875 0 
L 40.921875 44.828125 
L 29.109375 0 
L 18.5 0 
z
" id="DejaVuSans-119"/>
     <path d="M 8.203125 72.90625 
L 55.078125 72.90625 
L 55.078125 68.703125 
L 28.609375 0 
L 18.3125 0 
L 43.21875 64.59375 
L 8.203125 64.59375 
z
" id="DejaVuSans-55"/>
    </defs>
    <use xlink:href="#DejaVuSans-102"/>
    <use x="35.205078" xlink:href="#DejaVuSans-111"/>
    <use x="96.386719" xlink:href="#DejaVuSans-114"/>
    <use x="137.5" xlink:href="#DejaVuSans-32"/>
    <use x="169.287109" xlink:href="#DejaVuSans-119"/>
    <use x="251.074219" xlink:href="#DejaVuSans-101"/>
    <use x="312.597656" xlink:href="#DejaVuSans-101"/>
    <use x="374.121094" xlink:href="#DejaVuSans-107"/>
    <use x="432.03125" xlink:href="#DejaVuSans-115"/>
    <use x="484.130859" xlink:href="#DejaVuSans-32"/>
    <use x="515.917969" xlink:href="#DejaVuSans-111"/>
    <use x="577.099609" xlink:href="#DejaVuSans-102"/>
    <use x="612.304688" xlink:href="#DejaVuSans-32"/>
    <use x="644.091797" xlink:href="#DejaVuSans-48"/>
    <use x="707.714844" xlink:href="#DejaVuSans-55"/>
    <use x="771.337891" xlink:href="#DejaVuSans-32"/>
    <use x="803.125" xlink:href="#DejaVuSans-65"/>
    <use x="871.533203" xlink:href="#DejaVuSans-112"/>
    <use x="935.009766" xlink:href="#DejaVuSans-114"/>
    <use x="976.123047" xlink:href="#DejaVuSans-32"/>
    <use x="1007.910156" xlink:href="#DejaVuSans-116"/>
    <use x="1047.119141" xlink:href="#DejaVuSans-111"/>
    <use x="1108.300781" xlink:href="#DejaVuSans-32"/>
    <use x="1140.087891" xlink:href="#DejaVuSans-48"/>
    <use x="1203.710938" xlink:href="#DejaVuSans-49"/>
    <use x="1267.333984" xlink:href="#DejaVuSans-32"/>
    <use x="1299.121094" xlink:href="#DejaVuSans-68"/>
    <use x="1376.123047" xlink:href="#DejaVuSans-101"/>
    <use x="1437.646484" xlink:href="#DejaVuSans-99"/>
   </g>
  </g>
 </g>
 <defs>
  <clipPath id="p5da9ce9e21">
   <rect height="266.112" width="357.12" x="43.025125" y="39.370411"/>
  </clipPath>
 </defs>
</svg>
